# Blender v2.78 (sub 0) OBJ File: 'mesh_monitorv3.blend'
# www.blender.org
mtllib mesh_monitor.mtl
o Cylinder.001
v 1.167917 0.502075 -0.727232
v 1.298955 0.502075 -0.727232
v 1.167917 0.502440 -0.959955
v 1.298955 0.502440 -0.959955
v 1.167917 0.311467 -1.073134
v 1.298955 0.311467 -1.073134
v 1.167917 0.117167 -0.982798
v 1.298955 0.117167 -0.982798
v 1.167917 0.116688 -0.727145
v 1.298955 0.116688 -0.727145
v 1.167917 0.314701 -0.621916
v 1.298955 0.314701 -0.621916
v -1.258601 0.502075 -0.727232
v -1.127564 0.502075 -0.727232
v -1.258601 0.502440 -0.959955
v -1.127564 0.502440 -0.959955
v -1.258602 0.311467 -1.073134
v -1.127564 0.311467 -1.073134
v -1.258602 0.117167 -0.982798
v -1.127564 0.117167 -0.982798
v -1.258602 0.116688 -0.727146
v -1.127564 0.116688 -0.727146
v -1.258601 0.314701 -0.621917
v -1.127564 0.314701 -0.621917
v -1.258601 0.502075 1.008054
v -1.127564 0.502075 1.008054
v -1.258601 0.502440 0.775332
v -1.127564 0.502440 0.775332
v -1.258601 0.311467 0.662152
v -1.127564 0.311467 0.662152
v -1.258601 0.117167 0.752488
v -1.127564 0.117167 0.752488
v -1.258601 0.116688 1.008141
v -1.127564 0.116688 1.008141
v -1.258601 0.314701 1.113370
v -1.127564 0.314701 1.113370
v 1.167917 0.502075 1.008054
v 1.298955 0.502075 1.008054
v 1.167917 0.502440 0.775332
v 1.298955 0.502440 0.775332
v 1.167917 0.311467 0.662152
v 1.298955 0.311467 0.662152
v 1.167917 0.117167 0.752488
v 1.298955 0.117167 0.752488
v 1.167917 0.116688 1.008141
v 1.298955 0.116688 1.008141
v 1.167917 0.314701 1.113370
v 1.298955 0.314701 1.113370
vt 0.8750 0.3421
vt 0.8357 0.2590
vt 0.8827 0.1781
vt 0.9776 0.1927
vt 0.6941 0.3343
vt 0.7347 0.2594
vt 0.5918 0.1777
vt 0.6906 0.1761
vt 0.6910 0.0141
vt 0.7368 0.0954
vt 0.9045 0.0144
vt 0.8412 0.0918
vt 0.6523 0.5121
vt 0.5767 0.6739
vt 0.5582 0.3527
vt 0.2761 0.5087
vt 0.3642 0.3526
vt 0.3635 0.6739
vt 0.3680 0.6671
vt 0.3686 0.9884
vt 0.2806 0.8323
vt 0.6567 0.8290
vt 0.5626 0.9884
vt 0.5812 0.6671
vt 0.8750 0.3421
vt 0.8357 0.2590
vt 0.8827 0.1781
vt 0.9776 0.1927
vt 0.6941 0.3343
vt 0.7347 0.2594
vt 0.5918 0.1777
vt 0.6906 0.1761
vt 0.6910 0.0141
vt 0.7368 0.0954
vt 0.9045 0.0144
vt 0.8412 0.0918
vt 0.6523 0.5121
vt 0.5767 0.6739
vt 0.5582 0.3527
vt 0.2761 0.5087
vt 0.3642 0.3526
vt 0.3635 0.6739
vt 0.3680 0.6671
vt 0.3686 0.9884
vt 0.2806 0.8323
vt 0.6567 0.8290
vt 0.5626 0.9884
vt 0.5812 0.6671
vt 0.8750 0.3421
vt 0.8357 0.2590
vt 0.8827 0.1781
vt 0.9776 0.1927
vt 0.6941 0.3343
vt 0.7347 0.2594
vt 0.5918 0.1777
vt 0.6906 0.1761
vt 0.6910 0.0141
vt 0.7368 0.0954
vt 0.9045 0.0144
vt 0.8412 0.0918
vt 0.6523 0.5121
vt 0.5767 0.6739
vt 0.5582 0.3527
vt 0.2761 0.5087
vt 0.3642 0.3526
vt 0.3635 0.6739
vt 0.3680 0.6671
vt 0.3686 0.9884
vt 0.2806 0.8323
vt 0.6567 0.8290
vt 0.5626 0.9884
vt 0.5812 0.6671
vt 0.8750 0.3421
vt 0.8357 0.2590
vt 0.8827 0.1781
vt 0.9776 0.1927
vt 0.6941 0.3343
vt 0.7347 0.2594
vt 0.5918 0.1777
vt 0.6906 0.1761
vt 0.6910 0.0141
vt 0.7368 0.0954
vt 0.9045 0.0144
vt 0.8412 0.0918
vt 0.6523 0.5121
vt 0.5767 0.6739
vt 0.5582 0.3527
vt 0.2761 0.5087
vt 0.3642 0.3526
vt 0.3635 0.6739
vt 0.3680 0.6671
vt 0.3686 0.9884
vt 0.2806 0.8323
vt 0.6567 0.8290
vt 0.5626 0.9884
vt 0.5812 0.6671
vn -0.6107 0.6883 -0.3915
vn 0.6107 0.6883 -0.3915
vn 0.6156 0.0393 -0.7870
vn -0.6156 0.0393 -0.7870
vn -0.6093 0.6841 0.4010
vn 0.6093 0.6841 0.4010
vn -0.6134 0.0093 0.7897
vn 0.6134 0.0093 0.7897
vn -0.6073 -0.6813 0.4086
vn 0.6073 -0.6813 0.4086
vn -0.6039 -0.6716 -0.4293
vn 0.6039 -0.6716 -0.4293
usemtl None
s 1
f 3/1/1 4/2/2 6/3/3 5/4/4
f 1/5/5 2/6/6 4/2/2 3/1/1
f 1/5/5 11/7/7 12/8/8 2/6/6
f 9/9/9 10/10/10 12/8/8 11/7/7
f 7/11/11 8/12/12 10/10/10 9/9/9
f 5/4/4 6/3/3 8/12/12 7/11/11
f 5/13/4 7/14/11 3/15/1
f 11/16/7 1/17/5 9/18/9
f 10/19/10 2/20/6 12/21/8
f 7/14/11 9/18/9 1/17/5 3/15/1
f 6/22/3 4/23/2 8/24/12
f 8/24/12 4/23/2 2/20/6 10/19/10
f 15/25/1 16/26/2 18/27/3 17/28/4
f 13/29/5 14/30/6 16/26/2 15/25/1
f 13/29/5 23/31/7 24/32/8 14/30/6
f 21/33/9 22/34/10 24/32/8 23/31/7
f 19/35/11 20/36/12 22/34/10 21/33/9
f 17/28/4 18/27/3 20/36/12 19/35/11
f 17/37/4 19/38/11 15/39/1
f 23/40/7 13/41/5 21/42/9
f 22/43/10 14/44/6 24/45/8
f 19/38/11 21/42/9 13/41/5 15/39/1
f 18/46/3 16/47/2 20/48/12
f 20/48/12 16/47/2 14/44/6 22/43/10
f 27/49/1 28/50/2 30/51/3 29/52/4
f 25/53/5 26/54/6 28/50/2 27/49/1
f 25/53/5 35/55/7 36/56/8 26/54/6
f 33/57/9 34/58/10 36/56/8 35/55/7
f 31/59/11 32/60/12 34/58/10 33/57/9
f 29/52/4 30/51/3 32/60/12 31/59/11
f 29/61/4 31/62/11 27/63/1
f 35/64/7 25/65/5 33/66/9
f 34/67/10 26/68/6 36/69/8
f 31/62/11 33/66/9 25/65/5 27/63/1
f 30/70/3 28/71/2 32/72/12
f 32/72/12 28/71/2 26/68/6 34/67/10
f 39/73/1 40/74/2 42/75/3 41/76/4
f 37/77/5 38/78/6 40/74/2 39/73/1
f 37/77/5 47/79/7 48/80/8 38/78/6
f 45/81/9 46/82/10 48/80/8 47/79/7
f 43/83/11 44/84/12 46/82/10 45/81/9
f 41/76/4 42/75/3 44/84/12 43/83/11
f 41/85/4 43/86/11 39/87/1
f 47/88/7 37/89/5 45/90/9
f 46/91/10 38/92/6 48/93/8
f 43/86/11 45/90/9 37/89/5 39/87/1
f 42/94/3 40/95/2 44/96/12
f 44/96/12 40/95/2 38/92/6 46/91/10
o Cube.004_Cube.007
v -0.778755 0.663229 0.656845
v -0.778755 1.345194 0.656845
v -0.778755 0.663229 -0.124406
v -0.778755 1.345194 -0.124406
v 0.818314 0.663229 0.656845
v 0.818314 1.345194 0.656845
v 0.818314 0.663229 -0.124406
v 0.818314 1.345194 -0.124406
vt 0.2304 0.9882
vt 0.0001 0.9882
vt 0.0001 0.7244
vt 0.2304 0.7244
vt 0.2304 0.4942
vt 0.7696 0.4942
vt 0.7696 0.7244
vt 0.9999 0.7244
vt 0.9999 0.9882
vt 0.7696 0.9882
vt 0.7696 0.0001
vt 0.7696 0.2304
vt 0.2304 0.2304
vt 0.2304 0.0001
vn -1.0000 0.0000 0.0000
vn 0.0000 0.0000 -1.0000
vn 1.0000 0.0000 0.0000
vn 0.0000 0.0000 1.0000
vn 0.0000 -1.0000 0.0000
vn 0.0000 1.0000 0.0000
usemtl Material.003
s off
f 49/97/13 50/98/13 52/99/13 51/100/13
f 51/100/14 52/101/14 56/102/14 55/103/14
f 55/103/15 56/104/15 54/105/15 53/106/15
f 53/107/16 54/108/16 50/109/16 49/110/16
f 51/100/17 55/103/17 53/106/17 49/97/17
f 56/102/18 52/101/18 50/109/18 54/108/18
o Cube.002
v -1.363496 1.924903 1.125250
v -1.363496 2.088417 1.138315
v -1.363496 1.923637 -1.125922
v -1.363496 2.087151 -1.112857
v 1.364054 1.924903 1.125250
v 1.364054 2.088417 1.138315
v 1.364054 1.923637 -1.125922
v 1.364054 2.087151 -1.112857
v -0.090619 2.074113 -0.511399
v -0.090619 4.065718 -0.511399
v -0.090619 2.074113 -0.746477
v -0.090619 4.065717 -0.746477
v 0.144459 2.074113 -0.511399
v 0.144459 4.065718 -0.511399
v 0.144459 2.074113 -0.746477
v 0.144459 4.065717 -0.746477
v -0.301735 2.029914 -0.957593
v -0.301735 2.029914 -0.300283
v 0.355576 2.029914 -0.957593
v 0.355576 2.029914 -0.300283
v -0.302361 0.538064 -0.958220
v -0.302361 0.538064 -0.299657
v 0.356202 0.538064 -0.958220
v 0.356202 0.538064 -0.299657
v -1.363496 0.514813 1.116040
v -1.363496 0.678326 1.129105
v -1.363496 0.513547 -1.135131
v -1.363496 0.677060 -1.122067
v 1.364054 0.514813 1.116040
v 1.364054 0.678326 1.129105
v 1.364054 0.513547 -1.135131
v 1.364054 0.677060 -1.122067
vt 0.5872 0.4911
vt 0.5851 0.4649
vt 0.9459 0.4649
vt 0.9480 0.4911
vt 0.0003 0.9728
vt 0.0003 0.9465
vt 0.4375 0.9465
vt 0.4375 0.9728
vt 0.9480 0.4381
vt 0.9459 0.4643
vt 0.5851 0.4643
vt 0.5872 0.4381
vt 0.4375 0.9734
vt 0.4375 0.9997
vt 0.0003 0.9997
vt 0.0003 0.9734
vt 0.5851 0.4375
vt 0.5851 0.0003
vt 0.9459 0.0003
vt 0.9459 0.4375
vt 0.4375 0.9459
vt 0.0003 0.9459
vt 0.0003 0.5851
vt 0.4375 0.5851
vt 0.9136 0.5851
vt 0.9136 0.9043
vt 0.8759 0.9043
vt 0.8759 0.5851
vt 0.9519 0.5851
vt 0.9519 0.9043
vt 0.9142 0.9043
vt 0.9142 0.5851
vt 0.9842 0.0003
vt 0.9842 0.3195
vt 0.9465 0.3195
vt 0.9465 0.0003
vt 0.9902 0.5851
vt 0.9902 0.9043
vt 0.9525 0.9043
vt 0.9525 0.5851
vt 0.3109 0.3111
vt 0.3111 0.2739
vt 0.3451 0.2396
vt 0.3451 0.3451
vt 0.6228 0.5831
vt 0.5851 0.5831
vt 0.5851 0.5454
vt 0.6228 0.5454
vt 0.2397 0.2397
vt 0.2395 0.0003
vt 0.3452 0.0003
vt 0.2739 0.2737
vt 0.2737 0.3109
vt 0.2397 0.3451
vt 0.0003 0.3452
vt 0.0003 0.2396
vt 0.5845 0.2395
vt 0.5845 0.3452
vt 0.3453 0.5844
vt 0.2396 0.5844
vt 0.5872 0.5179
vt 0.5851 0.4917
vt 0.9459 0.4917
vt 0.9480 0.5180
vt 0.4381 0.9997
vt 0.4381 0.9734
vt 0.8753 0.9734
vt 0.8753 0.9997
vt 0.9480 0.5186
vt 0.9459 0.5448
vt 0.5851 0.5448
vt 0.5872 0.5186
vt 0.8753 0.9465
vt 0.8753 0.9728
vt 0.4381 0.9728
vt 0.4381 0.9465
vt 0.8753 0.9459
vt 0.4381 0.9459
vt 0.4381 0.5851
vt 0.8753 0.5851
vn -1.0000 -0.0000 0.0000
vn 0.0000 0.0796 -0.9968
vn 1.0000 -0.0000 0.0000
vn 0.0000 -0.0796 0.9968
vn 0.0000 -1.0000 0.0006
vn 0.0000 1.0000 -0.0006
vn 0.0000 -0.0000 -1.0000
vn 0.0000 0.0000 1.0000
vn -0.2049 0.9788 0.0000
vn 0.0000 1.0000 -0.0000
vn 0.0000 0.0004 -1.0000
vn 0.2049 0.9788 0.0000
vn 0.0000 0.9788 0.2049
vn 0.0000 0.9788 -0.2049
vn 1.0000 0.0004 0.0000
vn -1.0000 0.0004 0.0000
vn 0.0000 0.0004 1.0000
usemtl Material.001
s off
f 57/111/19 58/112/19 60/113/19 59/114/19
f 59/115/20 60/116/20 64/117/20 63/118/20
f 63/119/21 64/120/21 62/121/21 61/122/21
f 61/123/22 62/124/22 58/125/22 57/126/22
f 59/127/23 63/128/23 61/129/23 57/130/23
f 64/131/24 60/132/24 58/133/24 62/134/24
f 65/135/19 66/136/19 68/137/19 67/138/19
f 67/139/25 68/140/25 72/141/25 71/142/25
f 71/143/21 72/144/21 70/145/21 69/146/21
f 69/147/26 70/148/26 66/149/26 65/150/26
f 65/151/27 67/152/27 73/153/27 74/154/27
f 72/155/28 68/156/28 66/157/28 70/158/28
f 73/153/29 75/159/29 79/160/29 77/161/29
f 71/162/30 69/163/30 76/164/30 75/159/30
f 69/163/31 65/151/31 74/154/31 76/164/31
f 67/152/32 71/162/32 75/159/32 73/153/32
f 75/159/33 76/164/33 80/165/33 79/166/33
f 74/154/34 73/153/34 77/167/34 78/168/34
f 76/164/35 74/154/35 78/169/35 80/170/35
f 81/171/19 82/172/19 84/173/19 83/174/19
f 83/175/20 84/176/20 88/177/20 87/178/20
f 87/179/21 88/180/21 86/181/21 85/182/21
f 85/183/22 86/184/22 82/185/22 81/186/22
f 88/187/24 84/188/24 82/189/24 86/190/24
o Cube
v 0.909573 3.127185 -0.530592
v 0.909573 3.127185 -0.004783
v -0.921941 3.127185 -0.004783
v -0.921941 3.127185 -0.530592
v 0.909573 4.813601 -0.528392
v 0.909572 4.813601 -0.004783
v -0.921941 4.813601 -0.004783
v -0.921941 4.813601 -0.528392
v -0.815797 3.076426 -0.530592
v -0.815798 3.076426 -0.004783
v -0.815798 4.864360 -0.528392
v -0.815798 4.864360 -0.004783
v 0.803985 3.076426 -0.530592
v 0.803985 3.076426 -0.004783
v 0.803985 4.864360 -0.528392
v 0.803984 4.864360 -0.004783
v 0.960164 4.700758 -0.528392
v 0.960163 4.700758 -0.004783
v -0.972532 4.700758 -0.004783
v -0.972532 4.700758 -0.528392
v -0.815798 4.700758 -0.528392
v -0.815798 4.700758 -0.004783
v 0.803984 4.700758 -0.004783
v 0.803985 4.700758 -0.528392
v -0.815798 3.367275 -0.004783
v 0.803985 3.367275 -0.004783
v 0.960164 3.233159 -0.530592
v 0.960164 3.233159 -0.004783
v -0.972532 3.233159 -0.004783
v -0.972532 3.233159 -0.530592
v -0.815797 3.233159 -0.530592
v 0.803985 3.233159 -0.530592
v 0.758549 4.659593 -0.032729
v -0.770363 4.659593 -0.032730
v -0.770363 3.408442 -0.032730
v 0.758550 3.408442 -0.032730
v 0.909573 3.127185 -0.180417
v -0.921941 3.127185 -0.180417
v 0.909572 4.813601 -0.179940
v -0.921941 4.813601 -0.179941
v -0.815798 4.864360 -0.179941
v -0.815798 3.076426 -0.180417
v 0.803985 3.076426 -0.180417
v 0.803985 4.864360 -0.179940
v -1.053515 4.700758 -0.399143
v 1.041147 4.700758 -0.399142
v 1.041147 3.233159 -0.399620
v -1.053515 3.233159 -0.399620
v 1.250337 3.233159 -0.004783
v 1.250336 4.700758 -0.004783
v -1.262705 3.233159 -0.004783
v -1.262706 4.700758 -0.004783
v 1.250337 4.700758 -0.179940
v 1.250337 3.233159 -0.180417
v -1.262705 4.700758 -0.179941
v -1.262705 3.233159 -0.180417
vt 0.9576 0.3954
vt 0.9897 0.4053
vt 0.9814 0.4292
vt 0.9485 0.4164
vt 0.5812 0.3483
vt 0.5747 0.3646
vt 0.5554 0.3527
vt 0.5603 0.3417
vt 0.6059 0.1038
vt 0.5761 0.1458
vt 0.5581 0.1567
vt 0.5481 0.1472
vt 0.5417 0.3435
vt 0.5451 0.3620
vt 0.6033 0.4078
vt 0.6280 0.3800
vt 0.6375 0.4030
vt 0.8815 0.3711
vt 0.9047 0.3706
vt 0.8974 0.3858
vt 0.8839 0.3948
vt 0.8840 0.1426
vt 0.9066 0.1436
vt 0.5444 0.1653
vt 0.5617 0.1677
vt 0.5820 0.1616
vt 0.9635 0.1213
vt 0.9970 0.1129
vt 0.9551 0.0995
vt 0.9903 0.0874
vt 0.8864 0.1192
vt 0.8996 0.1285
vt 0.6298 0.1316
vt 0.6399 0.1088
vt 0.6544 0.1391
vt 0.6306 0.1489
vt 0.3733 0.1167
vt 0.3880 0.1381
vt 0.3908 0.3728
vt 0.3973 0.3648
vt 0.5362 0.3385
vt 0.6525 0.3732
vt 0.6299 0.3626
vt 0.8974 0.4166
vt 0.6383 0.4259
vt 0.3770 0.3940
vt 0.3908 0.0703
vt 0.5353 0.1237
vt 0.9009 0.0971
vt 0.9809 0.0621
vt 0.3530 0.3758
vt 0.3618 0.3891
vt 0.3492 0.1358
vt 0.3579 0.1220
vt 0.0088 0.9916
vt 0.0088 0.5067
vt 0.6013 0.5067
vt 0.6013 0.9916
vt 0.3950 0.1460
vt 0.5388 0.1705
vt 0.9715 0.4527
vt 0.6408 0.0859
vt 0.9450 0.5071
vt 0.9120 0.4911
vt 0.4010 0.0480
vt 0.5446 0.1134
vt 0.3862 0.4277
vt 0.5325 0.3860
vt 0.5413 0.3963
vt 0.3948 0.4507
vt 0.4258 0.0033
vt 0.9197 0.0189
vt 0.9553 0.0033
vt 0.4168 0.4969
vn -0.4314 -0.9022 -0.0000
vn -0.4314 0.9022 0.0000
vn 0.8254 0.5522 0.1174
vn -0.0000 0.0000 1.0000
vn -0.7119 0.6918 -0.1207
vn -0.0000 0.0000 -1.0000
vn 0.0000 1.0000 0.0000
vn 0.0000 -1.0000 0.0000
vn 0.4333 -0.9013 0.0000
vn 0.4333 0.9013 0.0000
vn 0.5239 0.0000 0.8518
vn -0.8490 0.0005 -0.5284
vn 0.8090 -0.5765 0.1148
vn -0.6906 -0.7138 -0.1162
vn 0.0000 0.0015 -1.0000
vn -0.0000 0.5617 0.8274
vn -0.0000 -0.5617 0.8274
vn -0.5239 -0.0000 0.8518
vn -0.8090 -0.5765 0.1148
vn 0.6906 -0.7138 -0.1162
vn 0.8490 0.0005 -0.5284
vn -0.8254 0.5522 0.1174
vn 0.7119 0.6918 -0.1207
vn 1.0000 0.0000 0.0000
vn -1.0000 -0.0000 -0.0000
vn 0.7234 0.0002 -0.6904
vn -0.7234 0.0002 -0.6904
usemtl Material.002
s off
f 130/191/36 98/192/36 91/193/36 126/194/36
f 129/195/37 128/196/37 95/197/37 100/198/37
f 134/199/38 127/200/38 94/201/38 106/202/38
f 110/203/39 100/198/39 95/197/39 107/204/39
f 133/205/40 128/196/40 96/206/40 108/207/40
f 119/208/41 97/209/41 92/210/41 118/211/41
f 120/212/41 101/213/41 97/209/41 119/208/41
f 111/214/39 104/215/39 100/198/39 110/203/39
f 132/216/42 129/195/42 100/198/42 104/215/42
f 131/217/43 102/218/43 98/192/43 130/191/43
f 125/219/44 90/220/44 102/218/44 131/217/44
f 127/200/45 132/216/45 104/215/45 94/201/45
f 106/202/39 94/201/39 104/215/39 111/214/39
f 115/221/41 89/222/41 101/213/41 120/212/41
f 93/223/41 105/224/41 112/225/41 103/226/41
f 116/227/39 106/202/39 111/214/39 114/228/39
f 110/203/46 113/229/46 123/230/46 122/231/46
f 103/226/41 112/225/41 109/232/41 99/233/41
f 99/233/41 109/232/41 108/207/41 96/206/41
f 136/234/47 133/235/47 108/207/47 118/211/47
f 113/229/39 110/203/39 107/204/39 117/236/39
f 106/202/39 116/227/39 137/237/39 138/238/39
f 125/219/48 135/239/48 116/240/48 90/220/48
f 98/241/39 113/229/39 117/236/39 91/242/39
f 126/194/49 136/234/49 118/211/49 92/210/49
f 102/243/39 114/228/39 113/229/39 98/241/39
f 90/244/39 116/227/39 114/228/39 102/243/39
f 105/224/50 115/221/50 120/212/50 112/225/50
f 112/225/50 120/212/50 119/208/50 109/232/50
f 109/232/50 119/208/50 118/211/50 108/207/50
f 124/245/39 121/246/39 122/247/39 123/248/39
f 113/229/51 114/228/51 124/249/51 123/230/51
f 111/214/52 110/203/52 122/231/52 121/250/52
f 114/228/53 111/214/53 121/250/53 124/249/53
f 91/193/54 117/251/54 136/234/54 126/194/54
f 89/222/55 115/221/55 135/239/55 125/219/55
f 115/221/56 105/224/56 134/252/56 135/239/56
f 136/234/43 117/251/43 139/253/43 144/254/43
f 93/223/45 103/226/45 132/216/45 127/200/45
f 89/222/44 125/219/44 131/217/44 101/213/44
f 101/213/43 131/217/43 130/191/43 97/209/43
f 103/226/42 99/233/42 129/195/42 132/216/42
f 107/204/57 95/197/57 128/196/57 133/205/57
f 105/224/58 93/223/58 127/200/58 134/199/58
f 99/233/37 96/206/37 128/196/37 129/195/37
f 97/209/36 130/191/36 126/194/36 92/210/36
f 142/255/59 141/256/59 138/238/59 137/237/59
f 139/257/60 140/258/60 143/259/60 144/260/60
f 135/261/61 134/199/61 141/256/61 142/255/61
f 107/204/42 133/205/42 143/259/42 140/258/42
f 134/199/42 106/202/42 138/238/42 141/256/42
f 117/236/39 107/204/39 140/258/39 139/257/39
f 116/240/43 135/239/43 142/262/43 137/263/43
f 133/205/62 136/264/62 144/260/62 143/259/62
