# Blender v2.78 (sub 0) OBJ File: 'mesh_computerstand2.blend'
# www.blender.org
mtllib mesh_computerstand.mtl
o Cube.001
v 1.115724 2.875340 -0.813565
v 1.115724 2.790492 -0.813565
v 1.115724 2.875340 0.687266
v 1.115724 2.790492 0.687266
v -0.005275 2.875340 -0.813565
v -0.005275 2.790492 -0.813565
v -0.005275 2.875340 0.687266
v -0.005275 2.790492 0.687266
v 0.157387 4.196417 -0.779915
v 0.157387 3.167379 -0.779915
v 0.157387 4.196417 0.721598
v 0.157387 3.167379 0.721598
v 0.098502 4.196417 -0.779915
v 0.098502 3.167379 -0.779915
v 0.098502 4.196417 0.721598
v 0.098502 3.167379 0.721598
v 0.157387 4.164712 0.673657
v 0.157387 4.164712 -0.728080
v 0.157387 3.216145 0.673657
v 0.157387 3.216145 -0.728080
v 0.141048 3.216145 0.673657
v 0.141048 4.164712 0.673657
v 0.141048 3.216145 -0.728080
v 0.141048 4.164712 -0.728080
v 0.092154 0.221560 -0.090048
v 0.092154 0.221560 0.070895
v -0.068788 0.221560 0.070895
v -0.068788 0.221560 -0.090048
v 0.092154 3.640501 -0.090048
v 0.092154 3.640501 0.070895
v -0.068788 3.640501 0.070895
v -0.068788 3.640501 -0.090048
v 0.749211 0.000193 0.064345
v 0.749211 0.169129 0.064345
v 0.749211 0.000193 -0.057472
v 0.749211 0.169129 -0.057472
v 0.918147 0.000193 0.064345
v 0.918147 0.169129 0.064345
v 0.918147 0.000193 -0.057472
v 0.918147 0.169129 -0.057472
v -0.891915 -0.005227 0.052074
v -0.891915 0.163709 0.052074
v -0.891915 -0.005227 -0.069743
v -0.891915 0.163709 -0.069743
v -0.722979 -0.005227 0.052074
v -0.722979 0.163709 0.052074
v -0.722979 -0.005227 -0.069743
v -0.722979 0.163709 -0.069743
v -0.927787 0.164208 0.096198
v -0.927787 0.226670 -0.085173
v -0.927787 0.226670 0.096198
v -0.927787 0.164208 -0.085173
v 0.963895 0.226670 0.096198
v 0.963895 0.170619 -0.085173
v 0.963895 0.170619 0.096198
v 0.963895 0.226670 -0.085173
v 0.079069 0.000193 -0.734411
v 0.079069 0.169129 -0.734411
v -0.042748 0.000193 -0.734411
v -0.042748 0.169129 -0.734411
v 0.079069 0.000193 -0.903347
v 0.079069 0.169129 -0.903347
v -0.042748 0.000193 -0.903347
v -0.042748 0.169129 -0.903347
v 0.066798 -0.005227 0.906716
v 0.066798 0.163709 0.906716
v -0.055019 -0.005227 0.906716
v -0.055019 0.163709 0.906716
v 0.066798 -0.005227 0.737779
v 0.066798 0.163709 0.737779
v -0.055019 -0.005227 0.737779
v -0.055019 0.163709 0.737779
v 0.110923 0.164208 0.942588
v -0.070449 0.226670 0.942588
v 0.110923 0.226670 0.942588
v -0.070449 0.164208 0.942588
v 0.110922 0.226670 -0.949095
v -0.070449 0.170619 -0.949095
v 0.110922 0.170619 -0.949095
v -0.070449 0.226670 -0.949095
vn -1.0000 0.0000 0.0000
vn 0.0000 0.0000 -1.0000
vn 1.0000 0.0000 0.0000
vn 0.0000 0.0000 1.0000
vn 0.0000 -1.0000 0.0000
vn 0.0000 1.0000 0.0000
vn -0.0034 1.0000 0.0000
vn 0.0000 1.0000 0.0034
vn -0.5773 -0.5773 0.5773
vn -0.5773 0.5773 0.5773
vn -0.5773 0.5773 -0.5773
vn -0.5773 -0.5773 -0.5773
vn 0.5773 0.5773 -0.5773
vn 0.5773 -0.5773 -0.5773
vn 0.5773 0.5773 0.5773
vn 0.5773 -0.5773 0.5773
usemtl Material
s off
f 1//1 2//1 4//1 3//1
f 3//2 4//2 8//2 7//2
f 7//3 8//3 6//3 5//3
f 5//4 6//4 2//4 1//4
f 3//5 7//5 5//5 1//5
f 8//6 4//6 2//6 6//6
f 20//1 18//1 9//1 10//1
f 12//1 19//1 20//1 10//1
f 17//6 18//6 24//6 22//6
f 24//1 23//1 21//1 22//1
f 18//2 20//2 23//2 24//2
f 20//5 19//5 21//5 23//5
f 19//4 17//4 22//4 21//4
f 16//3 14//3 13//3 15//3
f 12//6 10//6 14//6 16//6
f 9//4 13//4 14//4 10//4
f 15//5 13//5 9//5 11//5
f 11//1 9//1 18//1 17//1
f 19//1 12//1 11//1 17//1
f 15//2 11//2 12//2 16//2
f 25//5 26//5 27//5 28//5
f 29//6 32//6 31//6 30//6
f 25//3 29//3 30//3 26//3
f 26//4 30//4 31//4 27//4
f 27//1 31//1 32//1 28//1
f 29//2 25//2 28//2 32//2
f 50//3 51//3 49//3 52//3
f 53//5 51//5 50//5 56//5
f 54//7 52//7 49//7 55//7
f 53//1 56//1 54//1 55//1
f 54//4 56//4 50//4 52//4
f 53//2 55//2 49//2 51//2
f 74//2 75//2 73//2 76//2
f 77//5 75//5 74//5 80//5
f 78//8 76//8 73//8 79//8
f 77//4 80//4 78//4 79//4
f 78//3 80//3 74//3 76//3
f 77//1 79//1 73//1 75//1
s 1
f 33//9 34//10 36//11 35//12
f 35//12 36//11 40//13 39//14
f 39//14 40//13 38//15 37//16
f 37//16 38//15 34//10 33//9
f 35//12 39//14 37//16 33//9
f 40//13 36//11 34//10 38//15
f 41//9 42//10 44//11 43//12
f 43//12 44//11 48//13 47//14
f 47//14 48//13 46//15 45//16
f 45//16 46//15 42//10 41//9
f 43//12 47//14 45//16 41//9
f 48//13 44//11 42//10 46//15
f 57//11 59//13 60//14 58//12
f 59//13 63//15 64//16 60//14
f 63//15 61//10 62//9 64//16
f 61//10 57//11 58//12 62//9
f 59//13 57//11 61//10 63//15
f 64//16 62//9 58//12 60//14
f 65//11 67//13 68//14 66//12
f 67//13 71//15 72//16 68//14
f 71//15 69//10 70//9 72//16
f 69//10 65//11 66//12 70//9
f 67//13 65//11 69//10 71//15
f 72//16 70//9 66//12 68//14
