# Blender v2.78 (sub 0) OBJ File: 'tv.blend'
# www.blender.org
mtllib new_tv.mtl
o Cube_Cube.001
v 2.061923 4.718946 0.961763
v 2.061940 4.795349 2.672650
v 2.015999 4.780503 2.641970
v 2.015982 4.711523 0.946422
v 2.061924 7.385886 0.958818
v 2.022373 7.379278 0.946421
v 2.028779 7.379279 2.641967
v 2.061942 7.392495 2.666762
v 2.107865 7.323388 0.940626
v 2.101476 7.379278 0.940529
v 2.095104 7.379278 2.630184
v 2.107882 7.323389 2.630378
v 2.061942 7.323389 2.693021
v 2.016001 7.323389 2.642163
v 2.015949 7.323387 -2.388770
v 2.015949 7.379277 -2.388582
v 2.015948 7.369614 -2.445759
v 2.015948 7.323387 -2.452453
v 2.061887 4.844884 -2.503312
v 2.061887 4.798284 -2.477927
v 2.015947 4.796290 -2.446523
v 2.015947 4.844884 -2.452483
v 2.061888 7.323387 -2.503312
v 2.061887 6.079888 -2.503312
v 2.015947 6.079888 -2.456779
v 2.107830 7.323387 -2.452453
v 2.107829 6.079888 -2.456779
v 2.107828 4.844884 -2.452483
v 2.107829 4.796290 -2.446522
v 2.015947 4.844884 -2.388800
v 2.015948 6.079888 -2.392988
v 2.015982 4.844885 0.946534
v 2.015983 6.079890 0.948682
v 2.015965 6.079890 -0.740727
v 2.015964 4.844885 -0.740727
v 2.015983 7.323388 0.946518
v 2.015966 7.379277 -0.740727
v 2.015966 7.323388 -0.740727
v 2.061941 4.844886 2.693021
v 2.061942 6.079891 2.693021
v 2.016000 6.079891 2.646489
v 2.015999 4.844886 2.642193
v 2.107881 4.844886 2.630407
v 2.107882 6.079891 2.634704
v 2.068908 6.079891 2.634704
v 2.068909 7.323389 2.630378
v 2.107829 6.079888 -2.392988
v 2.107831 7.323387 -2.388770
v 2.068857 7.323387 -2.388770
v 2.068856 6.079888 -2.392988
v 2.107831 7.379277 -2.388581
v 2.107847 7.379277 -0.740726
v 2.107847 7.323388 -0.740726
v 2.061889 7.379277 -2.438358
v 2.061907 7.379277 -0.740727
v 2.061888 4.780501 -2.438358
v 2.061905 4.711523 -0.740727
v 2.015964 4.711523 -0.740727
v 2.015947 4.780501 -2.388582
v 2.107829 4.780501 -2.388581
v 2.107846 4.711522 -0.740727
v 2.107863 4.711523 0.940529
v 2.107881 4.780503 2.630183
v 2.061889 7.379277 -2.489298
v 2.107830 7.367681 -2.444745
v 2.107829 4.844884 -2.388800
v 2.068907 4.844886 2.630407
v 2.107863 4.844885 0.940641
v 2.107846 4.844885 -0.740727
v 2.068871 4.844885 -0.740727
v 2.068890 4.844885 0.940641
v 2.068891 6.079890 0.942789
v 2.068854 4.844884 -2.388800
v 2.068873 6.079890 -0.740727
v 2.068874 7.323388 -0.740726
v 2.068891 7.323388 0.940626
vt 0.4029 0.4569
vt 0.3527 0.6346
vt 0.3500 0.6291
vt 0.3970 0.4541
vt 0.0172 0.4391
vt 0.0222 0.4371
vt 0.0678 0.6249
vt 0.0648 0.6272
vt 0.0046 0.4379
vt 0.0119 0.4372
vt 0.0602 0.6271
vt 0.0556 0.6372
vt 0.0687 0.6331
vt 0.0735 0.6261
vt 0.1184 0.0542
vt 0.1132 0.0530
vt 0.1149 0.0490
vt 0.1183 0.0485
vt 0.3279 0.0482
vt 0.3309 0.0504
vt 0.3298 0.0542
vt 0.3264 0.0532
vt 0.1170 0.0436
vt 0.2243 0.0174
vt 0.2241 0.0242
vt 0.1123 0.0395
vt 0.2246 0.0104
vt 0.3332 0.0443
vt 0.3351 0.0491
vt 0.3256 0.0588
vt 0.2240 0.0300
vt 0.3789 0.4521
vt 0.2071 0.4405
vt 0.2141 0.2366
vt 0.3818 0.2361
vt 0.0294 0.4365
vt 0.0348 0.2234
vt 0.0416 0.2250
vt 0.3483 0.6394
vt 0.2031 0.6832
vt 0.2033 0.6742
vt 0.3437 0.6315
vt 0.3622 0.6456
vt 0.2028 0.6940
vt 0.2025 0.6990
vt 0.0515 0.6409
vt 0.2247 0.0039
vt 0.1013 0.0364
vt 0.0981 0.0328
vt 0.2249 0.0001
vt 0.1051 0.0471
vt 0.0235 0.2208
vt 0.0165 0.2191
vt 0.1116 0.0473
vt 0.0291 0.2221
vt 0.3335 0.0527
vt 0.4047 0.2330
vt 0.3989 0.2339
vt 0.3315 0.0583
vt 0.3399 0.0532
vt 0.4105 0.2320
vt 0.4095 0.4550
vt 0.3584 0.6329
vt 0.1142 0.0454
vt 0.1103 0.0437
vt 0.3444 0.0414
vt 0.3659 0.6497
vt 0.4277 0.4578
vt 0.4281 0.2288
vt 0.4327 0.2280
vt 0.4327 0.4586
vt 0.2057 0.6992
vt 0.2054 0.8490
vt 0.0001 0.8490
vt 0.0006 0.6992
vt 0.6096 0.6992
vt 0.6102 0.8490
vt 0.4097 0.8490
vt 0.4097 0.6992
vt 0.6096 0.9999
vt 0.4097 0.9999
vt 0.2057 0.9999
vt 0.0006 0.9999
vt 0.0116 0.2179
vt 0.3477 0.0379
vt 0.0001 0.4382
vt 0.9067 0.0294
vt 0.9816 0.0294
vt 0.9816 0.9729
vt 0.9067 0.9729
vn 0.2156 -0.9756 0.0416
vn -0.2624 0.9650 -0.0014
vn 0.9856 0.1690 0.0019
vn -0.6934 0.2163 0.6873
vn -1.0000 0.0000 0.0000
vn -0.6447 -0.2391 -0.7261
vn -0.7274 0.0012 -0.6862
vn -0.7273 0.0000 -0.6863
vn 0.7274 0.0012 -0.6862
vn 0.7273 -0.0000 -0.6863
vn 0.6447 -0.2391 -0.7261
vn -0.9984 0.0571 0.0019
vn -0.7273 -0.0012 0.6864
vn -0.7273 0.0000 0.6863
vn 0.7962 -0.0011 0.6050
vn 0.7963 -0.0000 0.6049
vn 0.7784 0.2051 0.5933
vn -0.0000 -0.0035 -1.0000
vn -0.0000 0.0000 -1.0000
vn 0.0000 -0.0000 1.0000
vn 0.0000 -0.0034 1.0000
vn 1.0000 0.0000 -0.0000
vn 0.2621 0.9650 -0.0014
vn 0.0000 1.0000 0.0000
vn -0.0223 -0.9989 -0.0412
vn 0.0223 -0.9989 -0.0412
vn -0.2079 -0.9773 0.0418
vn 0.2581 -0.9135 -0.3145
vn -0.2581 -0.9135 -0.3145
vn -0.1915 0.9776 -0.0874
vn 0.2297 0.9676 -0.1048
vn -0.0000 0.0035 -1.0000
vn 0.7963 0.0011 0.6049
vn 0.7214 0.1468 -0.6768
vn -0.7167 0.1386 -0.6834
vn -0.7274 0.0012 0.6862
vn 0.7389 -0.1199 0.6630
vn -0.6451 -0.1359 0.7519
vn 0.7273 -0.0012 -0.6863
vn -0.7273 -0.0012 -0.6863
vn 0.0000 -1.0000 0.0000
vn 0.0000 0.0034 1.0000
vn -0.0800 -0.9968 0.0022
vn 0.0767 0.9971 -0.0018
vn -0.9856 0.1690 0.0019
vn 0.9984 0.0571 0.0019
vn -0.0768 0.9970 -0.0018
vn 0.0802 -0.9968 0.0022
usemtl Material.003
s 1
f 1/1/1 2/2/1 3/3/1 4/4/1
f 5/5/2 6/6/2 7/7/2 8/8/2
f 9/9/3 10/10/3 11/11/3 12/12/3
f 13/13/4 8/8/4 7/7/4 14/14/4
f 15/15/5 16/16/5 17/17/5 18/18/5
f 19/19/6 20/20/6 21/21/6 22/22/6
f 23/23/7 24/24/8 25/25/8 18/18/7
f 26/26/9 27/27/10 24/24/10 23/23/9
f 28/28/11 29/29/11 20/20/11 19/19/11
f 30/30/5 31/31/5 25/25/5 22/22/5
f 32/32/5 33/33/5 34/34/5 35/35/5
f 36/36/12 6/6/12 37/37/12 38/38/12
f 39/39/13 40/40/14 41/41/14 42/42/13
f 43/43/15 44/44/16 40/40/16 39/39/15
f 12/12/17 11/11/17 8/8/17 13/13/17
f 12/12/18 44/44/19 45/45/19 46/46/18
f 47/47/20 48/48/21 49/49/21 50/50/20
f 48/48/22 51/51/22 52/52/22 53/53/22
f 10/10/23 5/5/23 8/8/23 11/11/23
f 51/51/24 54/54/24 55/55/24 52/52/24
f 54/54/24 16/16/24 37/37/24 55/55/24
f 56/56/25 57/57/25 58/58/25 59/59/25
f 60/60/26 61/61/26 57/57/26 56/56/26
f 62/62/27 63/63/27 2/2/27 1/1/27
f 29/29/28 60/60/28 56/56/28 20/20/28
f 20/20/29 56/56/29 59/59/29 21/21/29
f 64/64/30 17/17/30 16/16/30 54/54/30
f 65/65/31 64/64/31 54/54/31 51/51/31
f 26/26/22 65/65/22 51/51/22 48/48/22
f 28/28/22 27/27/22 47/47/22 66/66/22
f 35/35/5 34/34/5 31/31/5 30/30/5
f 38/38/5 37/37/5 16/16/5 15/15/5
f 34/34/5 38/38/5 15/15/5 31/31/5
f 27/27/22 26/26/22 48/48/22 47/47/22
f 44/44/19 43/43/32 67/67/32 45/45/19
f 44/44/16 12/12/33 13/13/33 40/40/16
f 33/33/5 36/36/5 38/38/5 34/34/5
f 65/65/34 26/26/34 23/23/34 64/64/34
f 64/64/35 23/23/35 18/18/35 17/17/35
f 31/31/5 15/15/5 18/18/5 25/25/5
f 40/40/14 13/13/36 14/14/36 41/41/14
f 68/68/24 69/69/24 70/70/24 71/71/24
f 58/58/5 35/35/5 30/30/5 59/59/5
f 29/29/22 28/28/22 66/66/22 60/60/22
f 60/60/22 66/66/22 69/69/22 61/61/22
f 62/62/22 68/68/22 43/43/22 63/63/22
f 63/63/37 43/43/37 39/39/37 2/2/37
f 2/2/38 39/39/38 42/42/38 3/3/38
f 4/4/5 32/32/5 35/35/5 58/58/5
f 59/59/5 30/30/5 22/22/5 21/21/5
f 27/27/10 28/28/39 19/19/39 24/24/10
f 24/24/8 19/19/40 22/22/40 25/25/8
f 71/72/22 72/73/22 45/74/22 67/75/22
f 73/76/22 50/77/22 74/78/22 70/79/22
f 50/77/22 49/80/22 75/81/22 74/78/22
f 72/73/22 76/82/22 46/83/22 45/74/22
f 48/48/41 53/53/41 75/84/41 49/49/41
f 69/69/24 66/66/24 73/85/24 70/70/24
f 9/9/41 12/12/41 46/46/41 76/86/41
f 66/66/42 47/47/20 50/50/20 73/85/42
f 53/53/41 9/9/41 76/86/41 75/84/41
f 74/78/22 75/81/22 76/82/22 72/73/22
f 70/79/22 74/78/22 72/73/22 71/72/22
f 3/3/5 42/42/5 32/32/5 4/4/5
f 61/87/22 69/88/22 68/89/22 62/90/22
f 43/43/24 68/68/24 71/71/24 67/67/24
f 41/41/5 14/14/5 36/36/5 33/33/5
f 61/61/43 62/62/43 1/1/43 57/57/43
f 52/52/44 55/55/44 5/5/44 10/10/44
f 14/14/45 7/7/45 6/6/45 36/36/45
f 42/42/5 41/41/5 33/33/5 32/32/5
f 53/53/46 52/52/46 10/10/46 9/9/46
f 55/55/47 37/37/47 6/6/47 5/5/47
f 57/57/48 1/1/48 4/4/48 58/58/48
