<?xml version="1.0" encoding="utf-8"?>
<!-- Generator: Adobe Illustrator 18.1.1, SVG Export Plug-In . SVG Version: 6.00 Build 0)  -->
<svg version="1.1" xmlns="http://www.w3.org/2000/svg" xmlns:xlink="http://www.w3.org/1999/xlink" x="0px" y="0px"
	 viewBox="0 0 125 125" enable-background="new 0 0 125 125" xml:space="preserve">
<g id="delete" display="none">
	<polygon display="inline" fill="#DC7627" stroke="#000000" stroke-width="3" stroke-miterlimit="10" points="98,7.4 62.5,42.8 
		27,7.4 7.4,27 42.8,62.5 7.4,98 27,117.6 62.5,82.2 98,117.6 117.6,98 82.2,62.5 117.6,27 	"/>
</g>
<g id="Layer_2" display="none">
	<path display="inline" fill="#DC7627" stroke="#000000" stroke-width="3" stroke-miterlimit="10" d="M69.8,10.4v21.3
		c16.8,0.4,30.3,14.1,30.3,31c0,17.1-13.9,31-31,31c-16.6,0-30.2-13.1-31-29.6h13.1L27.5,32.9L3.8,64.2h13.2
		c0.9,28,23.8,50.4,52,50.4c28.8,0,52.1-23.3,52.1-52.1C121.2,34,98.2,10.8,69.8,10.4z"/>
</g>
<g id="Layer_3">
	<polygon fill="#DC7627" stroke="#000000" stroke-width="3" stroke-miterlimit="10" points="107.6,62.5 71.2,26.1 71.2,46.8 
		17.4,46.8 17.4,78.2 71.2,78.2 71.2,98.9 	"/>
</g>
</svg>
