<?xml version="1.0" encoding="utf-8"?>
<!-- Generator: Adobe Illustrator 18.1.1, SVG Export Plug-In . SVG Version: 6.00 Build 0)  -->
<svg version="1.1" xmlns="http://www.w3.org/2000/svg" xmlns:xlink="http://www.w3.org/1999/xlink" x="0px" y="0px"
	 viewBox="0 0 125 125" enable-background="new 0 0 125 125" xml:space="preserve">
<g id="delete" display="none">
	<polygon display="inline" fill="#DC7627" stroke="#000000" stroke-width="3" stroke-miterlimit="10" points="98,7.4 62.5,42.8 
		27,7.4 7.4,27 42.8,62.5 7.4,98 27,117.6 62.5,82.2 98,117.6 117.6,98 82.2,62.5 117.6,27 	"/>
</g>
<g id="Layer_2" display="none">
	<path display="inline" fill="#DC7627" stroke="#000000" stroke-width="3" stroke-miterlimit="10" d="M69.8,10.4v21.3
		c16.8,0.4,30.3,14.1,30.3,31c0,17.1-13.9,31-31,31c-16.6,0-30.2-13.1-31-29.6h13.1L27.5,32.9L3.8,64.2h13.2
		c0.9,28,23.8,50.4,52,50.4c28.8,0,52.1-23.3,52.1-52.1C121.2,34,98.2,10.8,69.8,10.4z"/>
</g>
<g id="Layer_3" display="none">
	<polygon display="inline" fill="#DC7627" stroke="#000000" stroke-width="3" stroke-miterlimit="10" points="107.6,62.5 71.2,26.1 
		71.2,46.8 17.4,46.8 17.4,78.2 71.2,78.2 71.2,98.9 	"/>
</g>
<g id="Layer_4" display="none">
	<polygon display="inline" fill="#434345" stroke="#000000" stroke-width="3" stroke-miterlimit="10" points="13.5,37 28.2,22.2 
		47.2,22.2 61.4,36.4 	"/>
	
		<rect x="10.2" y="33.2" display="inline" fill="#545456" stroke="#000000" stroke-width="3" stroke-miterlimit="10" width="104.6" height="56"/>
	<circle display="inline" fill="#C0C2C4" stroke="#000000" stroke-width="3" stroke-miterlimit="10" cx="62.5" cy="63.4" r="26.1"/>
	<path display="inline" fill="#FFFFFF" d="M56.8,39.7l29.7,26c0,0,0.7,6.8-6.8,15L41.8,50.2C41.8,50.2,47.5,41.8,56.8,39.7z"/>
	
		<rect x="90.5" y="37" display="inline" fill="#FFFFFF" stroke="#000000" stroke-width="3" stroke-miterlimit="10" width="19.8" height="11.7"/>
</g>
<g id="Layer_5" display="none">
	<path display="inline" fill="none" stroke="#000000" stroke-width="3" stroke-miterlimit="10" d="M82.5,18.8H42.5c-2.8,0-5-2.3-5-5
		V8c0-2.8,2.3-5,5-5h39.9c2.8,0,5,2.3,5,5v5.8C87.5,16.6,85.2,18.8,82.5,18.8z"/>
	<path display="inline" fill="#DC7627" stroke="#000000" stroke-width="3" stroke-miterlimit="10" d="M96.5,120H28.5
		c-4.2,0-7.6-3.4-7.6-7.6V19c0-4.2,3.4-7.6,7.6-7.6h68.1c4.2,0,7.6,3.4,7.6,7.6v93.4C104.2,116.6,100.7,120,96.5,120z"/>
	
		<rect x="12.2" y="9.3" display="inline" fill="#DC7627" stroke="#000000" stroke-width="3" stroke-miterlimit="10" width="100.6" height="19"/>
	
		<rect x="33.5" y="35" display="inline" fill="none" stroke="#000000" stroke-width="3" stroke-miterlimit="10" width="9.7" height="77"/>
	
		<rect x="57.7" y="35" display="inline" fill="none" stroke="#000000" stroke-width="3" stroke-miterlimit="10" width="9.7" height="77"/>
	
		<rect x="81.8" y="35" display="inline" fill="none" stroke="#000000" stroke-width="3" stroke-miterlimit="10" width="9.7" height="77"/>
</g>
<g id="Layer_6" display="none">
	<polygon display="inline" fill="#DC7627" stroke="#000000" stroke-width="3" stroke-miterlimit="10" points="102.5,51.2 73.8,51.2 
		73.8,22.5 51.2,22.5 51.2,51.2 22.5,51.2 22.5,73.8 51.2,73.8 51.2,102.5 73.8,102.5 73.8,73.8 102.5,73.8 	"/>
</g>
<g id="Layer_7">
	<rect x="22.5" y="51.2" fill="#DC7627" stroke="#000000" stroke-width="3" stroke-miterlimit="10" width="80" height="22.7"/>
</g>
</svg>
