# Blender v2.78 (sub 0) OBJ File: 'mesh_soap_wall.blend'
# www.blender.org
mtllib mesh_soap_wall.mtl
o Cube.002
v 1.000000 0.000992 -1.025705
v 1.000000 0.000991 0.974295
v -1.000000 0.000991 0.974294
v -1.000000 0.000992 -1.025706
v 1.000000 6.000992 -1.025705
v 0.999999 6.000992 0.974295
v -1.000000 6.000992 0.974294
v -1.000000 6.000992 -1.025706
v 0.307013 3.007212 1.417073
v -0.301356 3.007212 1.417043
v -0.331215 3.007212 0.967843
v 0.336915 3.007212 0.967875
v 0.307012 3.759315 1.417073
v -0.301356 3.759315 1.417043
v -0.331215 3.867744 0.967843
v 0.336915 3.867744 0.967875
v -0.152089 2.878643 1.463300
v -0.152065 2.878643 0.967852
v -0.152090 3.817077 1.463300
v -0.152065 3.949507 0.967851
v 0.139207 2.878643 0.967866
v 0.139207 3.949507 0.967866
v 0.139183 2.878643 1.463314
v 0.139183 3.817077 1.463314
v 0.336897 3.007212 1.173080
v -0.331233 3.007212 1.173047
v 0.336897 3.839064 1.173080
v -0.331233 3.806314 1.173047
v -0.152086 3.896827 1.213927
v -0.152081 2.878643 1.122958
v 0.139191 2.878643 1.122973
v 0.139187 3.896827 1.213941
v 0.139184 2.780533 1.440980
v -0.152088 2.780533 1.440965
v -0.152086 2.780533 1.387178
v 0.139187 2.780533 1.387192
v -0.014424 2.878643 1.463306
v -0.014424 3.817077 1.463306
v -0.014399 2.878643 0.967858
v -0.014400 3.949507 0.967858
v -0.014416 2.878643 1.122965
v -0.014420 3.896827 1.213934
v -0.014423 2.756330 1.440972
v -0.014420 2.756330 1.387185
vt 0.1485 0.5574
vt 0.1485 0.4200
vt 0.2859 0.4200
vt 0.2859 0.5574
vt 0.0108 0.5574
vt 0.0108 0.4200
vt 0.1482 0.4200
vt 0.1482 0.5574
vt 0.1482 0.0075
vt 0.1482 0.4197
vt 0.0108 0.4197
vt 0.0108 0.0075
vt 0.5613 0.0075
vt 0.5613 0.4197
vt 0.4239 0.4197
vt 0.4239 0.0075
vt 0.4236 0.0075
vt 0.4236 0.4197
vt 0.2862 0.4197
vt 0.2862 0.0075
vt 0.1485 0.4197
vt 0.1485 0.0075
vt 0.2859 0.0075
vt 0.2859 0.4197
vt 0.7246 0.3890
vt 0.6632 0.3030
vt 0.7452 0.2562
vt 0.7723 0.2797
vt 0.7495 0.0524
vt 0.7768 0.1564
vt 0.7568 0.1657
vt 0.6973 0.1026
vt 0.6809 0.4285
vt 0.6809 0.9758
vt 0.5897 0.9421
vt 0.5897 0.5035
vt 0.8890 0.1060
vt 0.9367 0.3011
vt 0.8492 0.2619
vt 0.8457 0.1672
vt 0.7611 0.4285
vt 0.7611 0.9758
vt 0.7960 0.0458
vt 0.7979 0.1545
vt 0.7923 0.4011
vt 0.7954 0.2810
vt 0.8709 0.3853
vt 0.8226 0.2807
vt 0.8211 0.1530
vt 0.8470 0.0583
vt 0.9522 0.5035
vt 0.9522 0.9421
vt 0.8507 0.9758
vt 0.8507 0.4285
vt 0.9115 0.0915
vt 0.8627 0.0310
vt 0.9635 0.3121
vt 0.9460 0.4155
vt 0.3097 0.6423
vt 0.3097 0.5058
vt 0.3601 0.5791
vt 0.3658 0.6038
vt 0.7983 0.0118
vt 0.7354 0.0193
vt 0.6355 0.3138
vt 0.6772 0.0785
vt 0.6446 0.4155
vt 0.4272 0.6059
vt 0.4273 0.5771
vt 0.4263 0.4623
vt 0.5550 0.5090
vt 0.5024 0.5812
vt 0.4227 0.7091
vt 0.5529 0.6475
vt 0.4968 0.6075
vn 0.0000 -1.0000 -0.0000
vn 0.0000 1.0000 0.0000
vn 1.0000 0.0000 0.0000
vn -0.0000 -0.0000 1.0000
vn -1.0000 -0.0000 -0.0000
vn 0.0000 0.0000 -1.0000
vn -0.5831 -0.8124 -0.0001
vn -0.4430 0.8692 0.2197
vn -0.2960 0.0000 0.9552
vn -1.0000 -0.0000 -0.0001
vn 1.0000 0.0000 0.0001
vn -0.0000 0.9778 0.2093
vn 0.5452 -0.8383 0.0001
vn 0.3434 0.9243 0.1667
vn 0.2656 -0.0000 0.9641
vn 0.3525 0.8840 0.3071
vn 0.5749 -0.8177 0.0294
vn -0.0000 0.9525 0.3046
vn 0.9926 0.0000 0.1216
vn -0.9926 -0.0000 0.1215
vn -0.4525 0.8567 0.2475
vn -0.6159 -0.7872 0.0315
vn -0.1732 -0.9849 -0.0000
vn 0.0725 -0.9205 -0.3840
vn -0.0175 -0.1986 0.9799
vn 0.0156 -0.1986 0.9800
vn -0.0808 -0.9199 -0.3837
vn 0.1556 -0.9878 0.0000
usemtl Material.002
s off
f 1/1/1 2/2/1 3/3/1 4/4/1
f 5/5/2 8/6/2 7/7/2 6/8/2
f 1/9/3 5/10/3 6/11/3 2/12/3
f 2/13/4 6/14/4 7/15/4 3/16/4
f 3/17/5 7/18/5 8/19/5 4/20/5
f 5/21/6 1/22/6 4/23/6 8/24/6
f 30/25/7 26/26/7 11/27/7 18/28/7
f 29/29/8 20/30/8 15/31/8 28/32/8
f 17/33/9 19/34/9 14/35/9 10/36/9
f 26/26/10 28/32/10 15/31/10 11/27/10
f 27/37/11 25/38/11 12/39/11 16/40/11
f 37/41/4 38/42/4 19/34/4 17/33/4
f 42/43/12 40/44/12 20/30/12 29/29/12
f 41/45/1 30/25/1 18/28/1 39/46/1
f 25/38/13 31/47/13 21/48/13 12/39/13
f 27/37/14 16/40/14 22/49/14 32/50/14
f 9/51/15 13/52/15 24/53/15 23/54/15
f 13/55/16 27/37/16 32/50/16 24/56/16
f 9/57/17 23/58/17 31/47/17 25/38/17
f 17/59/5 30/60/5 35/61/5 34/62/5
f 38/63/18 42/43/18 29/29/18 19/64/18
f 13/55/19 9/57/19 25/38/19 27/37/19
f 10/65/20 14/66/20 28/32/20 26/26/20
f 19/64/21 29/29/21 28/32/21 14/66/21
f 17/67/22 10/65/22 26/26/22 30/25/22
f 43/68/23 34/62/23 35/61/23 44/69/23
f 41/70/24 31/71/24 36/72/24 44/69/24
f 37/73/25 17/59/25 34/62/25 43/68/25
f 31/71/3 23/74/3 33/75/3 36/72/3
f 23/74/26 37/73/26 43/68/26 33/75/26
f 30/60/27 41/70/27 44/69/27 35/61/27
f 33/75/28 43/68/28 44/69/28 36/72/28
f 24/56/18 32/50/18 42/43/18 38/63/18
f 31/47/1 41/45/1 39/46/1 21/48/1
f 32/50/12 22/49/12 40/44/12 42/43/12
f 23/54/4 24/53/4 38/42/4 37/41/4
