# Blender v2.78 (sub 0) OBJ File: 'mesh_chair2.blend'
# www.blender.org
mtllib mesh_chair.mtl
o Cube.002_Cube.008
v -0.997169 0.003265 -0.758136
v -0.997169 2.640681 -0.758136
v -0.997169 0.003265 -0.953632
v -0.997169 2.640681 -0.953632
v -0.810457 0.003265 -0.758136
v -0.810457 2.640681 -0.758136
v -0.810457 0.003265 -0.953632
v -0.810457 2.640681 -0.953632
v -0.999604 0.002382 0.991242
v -0.999604 0.983169 0.991242
v -0.999604 0.002382 0.795746
v -0.999604 0.983169 0.795746
v -0.812892 0.002382 0.991242
v -0.812892 0.983169 0.991242
v -0.812892 0.002382 0.795746
v -0.812892 0.983169 0.795746
v 0.815313 2.640608 -0.953539
v 0.815313 1.731859 -0.953539
v -0.814670 1.731859 -0.953539
v -0.814670 2.640609 -0.953539
v 0.815314 2.640608 -0.761569
v 0.815313 1.731858 -0.761569
v -0.814671 1.731859 -0.761569
v -0.814670 2.640609 -0.761569
v -0.348664 2.813478 -0.953539
v -0.348664 1.731859 -0.953539
v -0.348664 2.813478 -0.761569
v -0.348664 1.731859 -0.761569
v 0.336054 2.813478 -0.953539
v 0.336054 1.731859 -0.953539
v 0.336054 2.813478 -0.761569
v 0.336053 1.731858 -0.761569
v 1.000000 0.983574 -0.754341
v 1.000000 0.983574 1.000000
v -1.000000 0.983574 1.000000
v -1.000000 0.983574 -0.754341
v 1.000000 1.186210 -0.754341
v 0.999999 1.186210 1.000000
v -1.000000 1.186210 1.000000
v -1.000000 1.186210 -0.754341
v 0.812708 0.002382 0.996580
v 0.812708 0.983169 0.996580
v 0.812708 0.002382 0.801084
v 0.812708 0.983169 0.801084
v 0.999421 0.002382 0.996580
v 0.999421 0.983169 0.996580
v 0.999421 0.002382 0.801084
v 0.999421 0.983169 0.801084
v 0.813087 0.003265 -0.760971
v 0.813087 2.640681 -0.760971
v 0.813087 0.003265 -0.956467
v 0.813087 2.640681 -0.956467
v 0.999799 0.003265 -0.760971
v 0.999799 2.640681 -0.760971
v 0.999799 0.003265 -0.956467
v 0.999799 2.640681 -0.956467
vt 0.0000 0.0000
vt 1.0000 0.0000
vt 1.0000 1.0000
vt 0.0000 1.0000
vt 0.0000 0.0000
vt 1.0000 0.0000
vt 1.0000 1.0000
vt 0.0000 1.0000
vt 0.0000 0.0000
vt 1.0000 0.0000
vt 1.0000 1.0000
vt 0.0000 1.0000
vt 0.0000 0.0000
vt 1.0000 0.0000
vt 1.0000 1.0000
vt 0.0000 1.0000
vt 1.0000 0.0000
vt 1.0000 1.0000
vt 0.0000 0.0000
vt 0.0000 1.0000
vt 0.1189 0.4677
vt 0.1621 0.3913
vt 0.1621 0.4808
vt 0.0848 0.4300
vt 0.0811 0.4795
vt 0.1243 0.4030
vt 0.0811 0.3899
vt 0.1584 0.4408
vt 0.4740 0.1994
vt 0.3134 0.1210
vt 0.1391 0.0304
vt 0.3886 0.1595
vt 0.4668 0.2234
vt 0.3649 0.1909
vt 0.0001 0.0001
vt 0.2984 0.0974
vt 0.6776 0.3046
vt 0.6395 0.2832
vt 0.4932 0.1903
vt 0.5229 0.1534
vt 0.7263 0.3898
vt 0.5124 0.2005
vt 0.9999 0.3898
vt 0.6109 0.0992
vt -0.0020 0.5009
vt 0.2475 0.4990
vt 0.2470 0.2470
vt 0.0000 0.2475
vt 0.0000 0.0000
vt 0.2520 0.0000
vt 0.2475 0.2470
vt 0.0039 0.2500
vt 0.3150 0.0000
vt 0.3761 0.0000
vt 0.3750 0.2482
vt 0.3125 0.2495
vt 0.2522 0.0012
vt 0.3148 0.0000
vt 0.3105 0.2500
vt 0.2511 0.2497
vt 0.0000 0.0000
vt 1.0000 0.0000
vt 1.0000 1.0000
vt 0.0000 1.0000
vt 1.0000 0.0000
vt 1.0000 1.0000
vt 0.0000 1.0000
vt 0.0378 0.4677
vt 0.0810 0.3913
vt 0.0810 0.4808
vt 0.0037 0.4300
vt 0.0001 0.4795
vt 0.0432 0.4030
vt 0.0631 0.7180
vt 0.0013 0.7207
vt 0.0009 0.5034
vt 0.0628 0.5001
vt 0.0774 0.4408
vt 0.0001 0.3899
vt 0.0000 0.0000
vt 1.0000 0.0000
vt 1.0000 1.0000
vt 0.0000 1.0000
vt 0.0000 0.0000
vt 1.0000 0.0000
vt 1.0000 1.0000
vt 0.0000 1.0000
vt 0.0000 0.0000
vt 1.0000 0.0000
vt 1.0000 1.0000
vt 0.0000 1.0000
vt 0.0000 0.0000
vt 1.0000 0.0000
vt 1.0000 1.0000
vt 0.0000 1.0000
vt 1.0000 0.0000
vt 1.0000 1.0000
vt 0.0000 0.0000
vt 0.0000 1.0000
vn -1.0000 0.0000 0.0000
vn -0.0000 0.0000 -1.0000
vn 1.0000 0.0000 0.0000
vn 0.0000 0.0000 1.0000
vn 0.0000 -1.0000 0.0000
vn 0.0000 1.0000 0.0000
vn -0.3478 0.9376 0.0000
vn 0.3393 0.9407 0.0000
usemtl Material
s off
f 1/1/1 2/2/1 4/3/1 3/4/1
f 3/5/2 4/6/2 8/7/2 7/8/2
f 7/9/3 8/10/3 6/11/3 5/12/3
f 5/13/4 6/14/4 2/15/4 1/16/4
f 3/5/5 7/17/5 5/18/5 1/16/5
f 8/19/6 4/6/6 2/15/6 6/20/6
f 9/21/1 10/22/1 12/23/1 11/24/1
f 11/24/2 12/23/2 16/25/2 15/26/2
f 15/26/3 16/25/3 14/27/3 13/28/3
f 13/28/4 14/27/4 10/22/4 9/21/4
f 11/24/5 15/26/5 13/28/5 9/21/5
f 25/29/2 26/30/2 19/31/2 20/32/2
f 27/33/4 24/34/4 23/35/4 28/36/4
f 26/30/5 28/36/5 23/35/5 19/31/5
f 27/33/7 25/29/7 20/32/7 24/34/7
f 31/37/6 29/38/6 25/29/6 27/33/6
f 30/39/5 32/40/5 28/36/5 26/30/5
f 31/37/4 27/33/4 28/36/4 32/40/4
f 29/38/2 30/39/2 26/30/2 25/29/2
f 17/41/2 18/42/2 30/39/2 29/38/2
f 21/43/4 31/37/4 32/40/4 22/44/4
f 18/42/5 22/44/5 32/40/5 30/39/5
f 21/43/8 17/41/8 29/38/8 31/37/8
f 33/45/5 34/46/5 35/47/5 36/48/5
f 37/49/6 40/50/6 39/51/6 38/52/6
f 33/53/3 37/54/3 38/55/3 34/56/3
f 34/57/4 38/58/4 39/59/4 35/60/4
f 35/61/1 39/62/1 40/63/1 36/64/1
f 37/49/2 33/65/2 36/66/2 40/67/2
f 41/68/1 42/69/1 44/70/1 43/71/1
f 43/71/2 44/70/2 48/72/2 47/73/2
f 47/74/3 48/75/3 46/76/3 45/77/3
f 45/78/4 46/79/4 42/69/4 41/68/4
f 43/71/5 47/73/5 45/78/5 41/68/5
f 49/80/1 50/81/1 52/82/1 51/83/1
f 51/84/2 52/85/2 56/86/2 55/87/2
f 55/88/3 56/89/3 54/90/3 53/91/3
f 53/92/4 54/93/4 50/94/4 49/95/4
f 51/84/5 55/96/5 53/97/5 49/95/5
f 56/98/6 52/85/6 50/94/6 54/99/6
