# Blender v2.78 (sub 0) OBJ File: 'mesh_chairv3.blend'
# www.blender.org
mtllib mesh_chair.mtl
o Cube.001
v -0.253407 0.003004 -0.927814
v -0.253407 2.144295 -0.927814
v -0.442158 0.003004 -0.927823
v -0.253398 0.003004 -1.116835
v -0.253398 2.144295 -1.116835
v -0.442149 0.003004 -1.116844
v -0.442158 1.958603 -0.927823
v -0.442149 1.958603 -1.116844
v -0.442158 0.423455 -0.927823
v -0.442149 0.423455 -1.116844
v -0.253398 0.423455 -1.116835
v -0.253407 0.423455 -0.927814
v -0.442158 0.236043 -0.927823
v -0.442149 0.236043 -1.116844
v -0.253398 0.236043 -1.116835
v -0.253407 0.236043 -0.927814
v -1.981860 2.144295 -0.927898
v -1.981851 2.144295 -1.116919
v -1.981860 1.958603 -0.927898
v -1.981851 1.958603 -1.116919
v -1.793855 1.958603 -0.927889
v -1.793846 1.958603 -1.116910
v -1.793846 2.144295 -1.116910
v -1.793855 2.144295 -0.927889
v -1.981860 3.100049 -0.927898
v -1.981851 3.100049 -1.116919
v -1.793846 3.100049 -1.116910
v -1.793855 3.100049 -0.927889
v -1.981860 0.005123 -0.927898
v -1.981851 0.005123 -1.116919
v -1.793855 0.005123 -0.927889
v -1.793846 0.005123 -1.116910
v -1.793855 0.421588 -0.927889
v -1.793846 0.421588 -1.116910
v -1.793855 0.236755 -0.927889
v -1.793846 0.236755 -1.116910
v -1.981851 0.421588 -1.116919
v -1.981860 0.421588 -0.927898
v -1.981851 0.236755 -1.116919
v -1.981860 0.236755 -0.927898
v -0.253511 0.003004 1.203649
v -0.253511 2.144295 1.203649
v -0.442262 0.003004 1.203640
v -0.253502 0.003004 1.014628
v -0.253502 2.144295 1.014628
v -0.442253 0.003004 1.014619
v -0.442262 1.958603 1.203640
v -0.442253 1.958603 1.014619
v -0.442262 0.423455 1.203640
v -0.442253 0.423455 1.014619
v -0.253502 0.423455 1.014628
v -0.253511 0.423455 1.203649
v -0.442262 0.236043 1.203640
v -0.442253 0.236043 1.014619
v -0.253502 0.236043 1.014628
v -0.253511 0.236043 1.203649
v -1.981964 2.144295 1.203565
v -1.981955 2.144295 1.014544
v -1.981964 1.958603 1.203565
v -1.981955 1.958603 1.014544
v -1.793959 1.958603 1.203574
v -1.793950 1.958603 1.014553
v -1.793950 2.144295 1.014553
v -1.793959 2.144295 1.203574
v -1.981964 3.100049 1.203565
v -1.981955 3.100049 1.014544
v -1.793950 3.100049 1.014553
v -1.793959 3.100049 1.203574
v -1.981964 0.005123 1.203565
v -1.981955 0.005123 1.014544
v -1.793959 0.005123 1.203574
v -1.793950 0.005123 1.014553
v -1.793959 0.421588 1.203574
v -1.793950 0.421588 1.014553
v -1.793959 0.236755 1.203574
v -1.793950 0.236755 1.014553
v -1.981955 0.421588 1.014544
v -1.981964 0.421588 1.203565
v -1.981955 0.236755 1.014544
v -1.981964 0.236755 1.203565
v -1.958009 3.002974 -0.946828
v -1.958009 1.693028 -0.946828
v -1.958104 1.693028 1.001461
v -1.958104 3.002974 1.001460
v -1.829732 3.002973 -0.946823
v -1.829732 1.693027 -0.946821
v -1.829827 1.693028 1.001468
v -1.829827 3.002974 1.001467
v -1.958078 3.203378 0.477489
v -1.958078 1.693028 0.477489
v -1.829802 3.203378 0.477495
v -1.829802 1.693028 0.477496
v -1.958033 3.203378 -0.442924
v -1.958033 1.693028 -0.442924
v -1.829757 3.203377 -0.442918
v -1.829757 1.693027 -0.442917
v -1.935198 2.310340 -0.943890
v -1.935292 2.310340 0.998524
v -1.796746 2.310340 -0.943883
v -1.796840 2.310340 0.998532
v -1.796815 2.404781 0.477497
v -1.935267 2.404781 0.477490
v -1.935222 2.404781 -0.442923
v -1.796770 2.404781 -0.442916
v -1.984951 1.299512 -0.933933
v -0.281161 1.299512 -0.933850
v -0.281255 1.299512 0.998355
v -1.985046 1.299512 0.998271
v -1.984951 1.487050 -0.933934
v -0.316428 1.408675 -0.933851
v -0.316523 1.408675 0.998353
v -1.985045 1.487050 0.998271
v -0.407954 1.299512 -0.933856
v -0.408048 1.299512 0.998349
v -0.407953 1.487050 -0.933856
v -0.408048 1.487050 0.998349
v -0.904315 1.299512 0.998324
v -0.904315 1.518743 0.998324
v -0.904221 1.299512 -0.933881
v -0.904220 1.518743 -0.933880
v -1.629053 1.299512 0.998289
v -1.629052 1.518743 0.998289
v -1.628958 1.299512 -0.933916
v -1.628958 1.518743 -0.933916
vt 0.9008 0.0391
vt 0.8694 0.0391
vt 0.8694 0.0004
vt 0.9008 0.0004
vt 0.7400 0.9167
vt 0.7400 0.6296
vt 0.7715 0.6296
vt 0.7715 0.9167
vt 0.7391 0.6296
vt 0.7391 0.9167
vt 0.7076 0.8857
vt 0.7076 0.6296
vt 0.0004 0.7194
vt 0.0004 0.6879
vt 0.2574 0.6879
vt 0.2574 0.7194
vt 0.2583 0.7512
vt 0.2898 0.7203
vt 0.5153 0.7203
vt 0.5153 0.7512
vt 0.9654 0.7431
vt 0.9654 0.9993
vt 0.9338 0.9993
vt 0.9338 0.7431
vt 0.5153 0.7521
vt 0.5153 0.7831
vt 0.2898 0.7831
vt 0.2583 0.7521
vt 0.7391 0.5983
vt 0.7076 0.5983
vt 0.9338 0.5176
vt 0.9654 0.5176
vt 0.6745 0.5983
vt 0.6745 0.6296
vt 0.6430 0.6296
vt 0.6430 0.5983
vt 0.7715 0.5983
vt 0.7400 0.5983
vt 0.7715 0.5594
vt 0.7400 0.5594
vt 0.6745 0.5594
vt 0.6430 0.5594
vt 0.0004 0.6555
vt 0.0393 0.6555
vt 0.0393 0.6871
vt 0.0004 0.6871
vt 0.7391 0.5594
vt 0.7076 0.5594
vt 0.8362 0.3263
vt 0.8362 0.3573
vt 0.8047 0.3573
vt 0.8047 0.3263
vt 0.8362 0.5168
vt 0.8047 0.5168
vt 0.8694 0.3573
vt 0.8694 0.3263
vt 0.9008 0.3263
vt 0.9008 0.3573
vt 0.9652 0.3263
vt 0.9652 0.3573
vt 0.9338 0.3573
vt 0.9338 0.3263
vt 0.6745 0.8857
vt 0.6430 0.9167
vt 0.0004 0.6547
vt 0.0004 0.6232
vt 0.2259 0.6232
vt 0.2259 0.6547
vt 0.4618 0.5594
vt 0.4933 0.5594
vt 0.4933 0.5908
vt 0.4618 0.5908
vt 0.9652 0.5168
vt 0.9338 0.5168
vt 0.5485 0.6879
vt 0.5800 0.6879
vt 0.5800 0.8474
vt 0.5485 0.8474
vt 0.9008 0.5168
vt 0.8694 0.5168
vt 0.8362 0.0391
vt 0.8047 0.0391
vt 0.8047 0.0004
vt 0.8362 0.0004
vt 0.9652 0.0391
vt 0.9338 0.0391
vt 0.9338 0.0004
vt 0.9652 0.0004
vt 0.2648 0.6871
vt 0.2648 0.6555
vt 0.3035 0.6555
vt 0.3035 0.6871
vt 0.2268 0.8473
vt 0.2268 0.8160
vt 0.4523 0.8163
vt 0.4523 0.8471
vt 0.2268 0.8152
vt 0.2268 0.7839
vt 0.4523 0.7840
vt 0.4523 0.8148
vt 0.4824 0.6232
vt 0.4824 0.6547
vt 0.9338 0.0699
vt 0.9652 0.0699
vt 0.8047 0.0699
vt 0.8362 0.0699
vt 0.8694 0.0699
vt 0.9008 0.0699
vt 0.9974 0.0391
vt 0.9660 0.0391
vt 0.9660 0.0004
vt 0.9974 0.0004
vt 0.7723 0.9167
vt 0.7723 0.6296
vt 0.8039 0.6296
vt 0.8039 0.9167
vt 0.7068 0.6296
vt 0.7068 0.9167
vt 0.6753 0.8857
vt 0.6753 0.6296
vt 0.2583 0.7194
vt 0.2583 0.6879
vt 0.5153 0.6879
vt 0.5153 0.7194
vt 0.0004 0.7512
vt 0.0319 0.7203
vt 0.2574 0.7203
vt 0.2574 0.7512
vt 0.8686 0.7431
vt 0.8686 0.9993
vt 0.8371 0.9993
vt 0.8371 0.7431
vt 0.2574 0.7521
vt 0.2574 0.7831
vt 0.0319 0.7831
vt 0.0004 0.7521
vt 0.7068 0.5983
vt 0.6753 0.5983
vt 0.8371 0.5176
vt 0.8686 0.5176
vt 0.6422 0.5983
vt 0.6422 0.6296
vt 0.6107 0.6296
vt 0.6107 0.5983
vt 0.8039 0.5983
vt 0.7723 0.5983
vt 0.8039 0.5594
vt 0.7723 0.5594
vt 0.6422 0.5594
vt 0.6107 0.5594
vt 0.3043 0.6555
vt 0.3432 0.6555
vt 0.3432 0.6871
vt 0.3043 0.6871
vt 0.7068 0.5594
vt 0.6753 0.5594
vt 0.8686 0.3263
vt 0.8686 0.3573
vt 0.8371 0.3573
vt 0.8371 0.3263
vt 0.8686 0.5168
vt 0.8371 0.5168
vt 0.9660 0.3573
vt 0.9660 0.3263
vt 0.9974 0.3263
vt 0.9974 0.3573
vt 0.9330 0.3263
vt 0.9330 0.3573
vt 0.9016 0.3573
vt 0.9016 0.3263
vt 0.6422 0.8857
vt 0.6107 0.9167
vt 0.8362 0.9996
vt 0.8047 0.9996
vt 0.8047 0.7741
vt 0.8362 0.7741
vt 0.4294 0.5594
vt 0.4610 0.5594
vt 0.4610 0.5908
vt 0.4294 0.5908
vt 0.9330 0.5168
vt 0.9016 0.5168
vt 0.5161 0.6879
vt 0.5476 0.6879
vt 0.5476 0.8474
vt 0.5161 0.8474
vt 0.9974 0.5168
vt 0.9660 0.5168
vt 0.8686 0.0391
vt 0.8371 0.0391
vt 0.8371 0.0004
vt 0.8686 0.0004
vt 0.9330 0.0391
vt 0.9016 0.0391
vt 0.9016 0.0004
vt 0.9330 0.0004
vt 0.5687 0.6871
vt 0.5687 0.6555
vt 0.6073 0.6555
vt 0.6073 0.6871
vt 0.0004 0.8473
vt 0.0004 0.8160
vt 0.2259 0.8163
vt 0.2259 0.8471
vt 0.0004 0.8152
vt 0.0004 0.7839
vt 0.2259 0.7840
vt 0.2259 0.8148
vt 0.8047 0.5176
vt 0.8362 0.5176
vt 0.9016 0.0699
vt 0.9330 0.0699
vt 0.8371 0.0699
vt 0.8686 0.0699
vt 0.9660 0.0699
vt 0.9974 0.0699
vt 0.5397 0.4119
vt 0.5300 0.5277
vt 0.4587 0.5075
vt 0.4513 0.4193
vt 0.5369 0.1253
vt 0.4456 0.1088
vt 0.4451 0.0004
vt 0.5369 0.0004
vt 0.7807 0.4230
vt 0.8039 0.4217
vt 0.7901 0.5321
vt 0.7703 0.5147
vt 0.5248 0.5525
vt 0.4403 0.5202
vt 0.4294 0.4177
vt 0.4577 0.3116
vt 0.4744 0.3234
vt 0.5369 0.2653
vt 0.5433 0.2887
vt 0.6982 0.2653
vt 0.6915 0.2877
vt 0.6948 0.5350
vt 0.6978 0.5586
vt 0.6982 0.1253
vt 0.6982 0.0004
vt 0.6913 0.4133
vt 0.7859 0.1087
vt 0.7864 0.0004
vt 0.7748 0.3108
vt 0.7576 0.3226
vt 0.7865 0.2302
vt 0.4451 0.2302
vt 0.3898 0.5988
vt 0.3897 0.6223
vt 0.0344 0.6142
vt 0.0353 0.5908
vt 0.3640 0.0374
vt 0.0602 0.0411
vt 0.0600 0.0222
vt 0.3638 0.0185
vt 0.4251 0.5984
vt 0.4103 0.6158
vt 0.3635 0.0004
vt 0.0597 0.0041
vt 0.0622 0.3732
vt 0.0227 0.3587
vt 0.0632 0.2894
vt 0.0876 0.3235
vt 0.3670 0.2857
vt 0.3415 0.3139
vt 0.0143 0.6069
vt 0.0004 0.5891
vt 0.3871 0.5070
vt 0.4286 0.5036
vt 0.3649 0.1156
vt 0.0611 0.1193
vt 0.0411 0.5001
vt 0.3674 0.3761
vt 0.3663 0.2295
vt 0.0625 0.2332
vt 0.4103 0.3608
vt 0.0004 0.4956
vn 0.0000 0.0000 -1.0000
vn 1.0000 0.0000 0.0000
vn -0.0000 0.0000 1.0000
vn 0.0000 1.0000 -0.0000
vn -1.0000 0.0000 -0.0000
vn -0.0014 1.0000 0.0000
vn 0.0000 -1.0000 -0.0000
vn -0.0005 -1.0000 -0.0000
vn -1.0000 -0.0000 -0.0017
vn -0.7187 -0.6953 0.0011
vn -0.5875 -0.5667 0.5776
vn -0.7009 0.0041 0.7132
vn 1.0000 0.0001 0.0025
vn 0.7180 -0.0056 0.6960
vn 0.5617 -0.5892 0.5808
vn 0.6899 -0.7238 -0.0015
vn -0.7008 0.0042 -0.7133
vn 0.7180 -0.0057 -0.6959
vn 0.5618 -0.5893 -0.5806
vn -0.5875 -0.5667 -0.5777
vn 0.5826 0.4667 0.6654
vn -0.6097 0.4426 0.6575
vn 0.6540 0.7441 0.1359
vn -0.6782 0.7224 0.1346
vn 0.6528 0.7443 -0.1409
vn -0.6768 0.7227 -0.1397
vn -0.7187 -0.6953 -0.0012
vn 0.6899 -0.7238 0.0016
vn 1.0000 0.0002 -0.0025
vn -1.0000 -0.0001 0.0017
vn 0.5834 0.4621 -0.6679
vn -0.6106 0.4378 -0.6600
vn 0.0000 -0.7071 -0.7071
vn 0.6684 -0.4865 -0.5626
vn 0.6684 -0.4865 0.5627
vn -0.0000 -0.7071 0.7071
vn 0.2886 0.7100 -0.6423
vn 0.2885 0.7100 0.6423
vn 0.6319 0.4209 0.6508
vn 0.6319 0.4209 -0.6507
vn -0.0318 0.7161 0.6972
vn -0.5999 0.5488 0.5821
vn -0.5773 -0.5773 0.5773
vn -0.5998 0.5488 -0.5822
vn -0.5773 -0.5773 -0.5773
vn 0.0228 0.7138 -0.7000
vn 0.0227 0.7138 0.7000
vn -0.0318 0.7161 -0.6972
usemtl Material.026
s off
f 39/1/1 36/2/1 32/3/1 30/4/1
f 2/5/2 12/6/2 11/7/2 5/8/2
f 12/9/3 2/10/3 7/11/3 9/12/3
f 2/13/4 5/14/4 23/15/4 24/16/4
f 5/17/1 8/18/1 22/19/1 23/20/1
f 9/21/5 7/22/5 8/23/5 10/24/5
f 24/25/3 21/26/3 7/27/3 2/28/3
f 16/29/3 12/9/3 9/12/3 13/30/3
f 9/21/6 10/24/6 34/31/6 33/32/6
f 14/33/1 10/34/1 11/35/1 15/36/1
f 15/37/2 11/7/2 12/6/2 16/38/2
f 4/39/2 15/37/2 16/38/2 1/40/2
f 6/41/1 14/33/1 15/36/1 4/42/1
f 3/43/5 13/44/5 14/45/5 6/46/5
f 1/47/3 16/29/3 13/30/3 3/48/3
f 19/49/5 17/50/5 18/51/5 20/52/5
f 18/51/5 17/50/5 25/53/5 26/54/5
f 23/55/1 22/56/1 20/57/1 18/58/1
f 21/59/3 24/60/3 17/61/3 19/62/3
f 11/35/1 10/34/1 8/63/1 5/64/1
f 8/65/7 7/66/7 21/67/7 22/68/7
f 28/69/4 27/70/4 26/71/4 25/72/4
f 17/61/3 24/60/3 28/73/3 25/74/3
f 24/75/2 23/76/2 27/77/2 28/78/2
f 23/55/1 18/58/1 26/79/1 27/80/1
f 40/81/5 39/82/5 30/83/5 29/84/5
f 35/85/3 40/86/3 29/87/3 31/88/3
f 36/89/2 35/90/2 31/91/2 32/92/2
f 14/45/8 13/44/8 35/90/8 36/89/8
f 13/93/3 9/94/3 33/95/3 35/96/3
f 10/97/1 14/98/1 36/99/1 34/100/1
f 22/68/2 21/67/2 33/101/2 34/102/2
f 21/59/3 19/62/3 38/103/3 33/104/3
f 19/49/5 20/52/5 37/105/5 38/106/5
f 20/57/1 22/56/1 34/107/1 37/108/1
f 33/104/3 38/103/3 40/86/3 35/85/3
f 38/106/5 37/105/5 39/82/5 40/81/5
f 37/108/1 34/107/1 36/2/1 39/1/1
f 79/109/1 76/110/1 72/111/1 70/112/1
f 42/113/2 52/114/2 51/115/2 45/116/2
f 52/117/3 42/118/3 47/119/3 49/120/3
f 42/121/4 45/122/4 63/123/4 64/124/4
f 45/125/1 48/126/1 62/127/1 63/128/1
f 49/129/5 47/130/5 48/131/5 50/132/5
f 64/133/3 61/134/3 47/135/3 42/136/3
f 56/137/3 52/117/3 49/120/3 53/138/3
f 49/129/6 50/132/6 74/139/6 73/140/6
f 54/141/1 50/142/1 51/143/1 55/144/1
f 55/145/2 51/115/2 52/114/2 56/146/2
f 44/147/2 55/145/2 56/146/2 41/148/2
f 46/149/1 54/141/1 55/144/1 44/150/1
f 43/151/5 53/152/5 54/153/5 46/154/5
f 41/155/3 56/137/3 53/138/3 43/156/3
f 59/157/5 57/158/5 58/159/5 60/160/5
f 58/159/5 57/158/5 65/161/5 66/162/5
f 63/163/1 62/164/1 60/165/1 58/166/1
f 61/167/3 64/168/3 57/169/3 59/170/3
f 51/143/1 50/142/1 48/171/1 45/172/1
f 48/173/7 47/174/7 61/175/7 62/176/7
f 68/177/4 67/178/4 66/179/4 65/180/4
f 57/169/3 64/168/3 68/181/3 65/182/3
f 64/183/2 63/184/2 67/185/2 68/186/2
f 63/163/1 58/166/1 66/187/1 67/188/1
f 80/189/5 79/190/5 70/191/5 69/192/5
f 75/193/3 80/194/3 69/195/3 71/196/3
f 76/197/2 75/198/2 71/199/2 72/200/2
f 54/153/8 53/152/8 75/198/8 76/197/8
f 53/201/3 49/202/3 73/203/3 75/204/3
f 50/205/1 54/206/1 76/207/1 74/208/1
f 62/176/2 61/175/2 73/209/2 74/210/2
f 61/167/3 59/170/3 78/211/3 73/212/3
f 59/157/5 60/160/5 77/213/5 78/214/5
f 60/165/1 62/164/1 74/215/1 77/216/1
f 73/212/3 78/211/3 80/194/3 75/193/3
f 78/214/5 77/213/5 79/190/5 80/189/5
f 77/216/1 74/215/1 76/110/1 79/109/1
s 1
f 102/217/9 90/218/10 83/219/11 98/220/12
f 101/221/13 100/222/14 87/223/15 92/224/16
f 97/225/17 99/226/18 86/227/19 82/228/20
f 90/218/10 92/229/16 87/230/15 83/219/11
f 98/220/12 100/231/14 88/232/21 84/233/22
f 91/234/23 89/235/24 84/233/22 88/232/21
f 95/236/25 93/237/26 89/235/24 91/234/23
f 94/238/27 96/239/28 92/229/16 90/218/10
f 104/240/29 101/221/13 92/224/16 96/241/28
f 103/242/30 94/238/27 90/218/10 102/217/9
f 97/225/17 82/228/20 94/238/27 103/242/30
f 99/243/18 104/240/29 96/241/28 86/244/19
f 82/228/20 86/227/19 96/239/28 94/238/27
f 85/245/31 81/246/32 93/237/26 95/236/25
f 85/247/31 95/236/25 104/240/29 99/243/18
f 81/246/32 97/225/17 103/242/30 93/237/26
f 93/237/26 103/242/30 102/217/9 89/235/24
f 95/236/25 91/234/23 101/221/13 104/240/29
f 83/219/11 87/230/15 100/231/14 98/220/12
f 81/246/32 85/245/31 99/226/18 97/225/17
f 91/234/23 88/248/21 100/222/14 101/221/13
f 89/235/24 102/217/9 98/220/12 84/233/22
f 113/249/33 106/250/34 107/251/35 114/252/36
f 115/253/37 116/254/38 111/255/39 110/256/40
f 113/249/33 115/257/37 110/258/40 106/250/34
f 106/259/34 110/256/40 111/255/39 107/260/35
f 121/261/36 122/262/41 112/263/42 108/264/43
f 109/265/44 105/266/45 108/264/43 112/263/42
f 107/251/35 111/267/39 116/268/38 114/252/36
f 119/269/33 120/270/46 115/257/37 113/249/33
f 120/271/46 118/272/47 116/254/38 115/253/37
f 119/269/33 113/249/33 114/252/36 117/273/36
f 123/274/33 119/269/33 117/273/36 121/261/36
f 124/275/48 122/276/41 118/272/47 120/271/46
f 123/274/33 124/277/48 120/270/46 119/269/33
f 114/252/36 116/268/38 118/278/47 117/273/36
f 105/266/45 109/265/44 124/277/48 123/274/33
f 109/265/44 112/263/42 122/276/41 124/275/48
f 105/266/45 123/274/33 121/261/36 108/264/43
f 117/273/36 118/278/47 122/262/41 121/261/36
