# Blender v2.78 (sub 0) OBJ File: 'mesh_window_right.blend'
# www.blender.org
mtllib mesh_window_right.mtl
o Cube
v 1.999999 0.000000 -1.999999
v 1.999999 0.000000 1.999999
v -1.999999 0.000000 1.999999
v -1.999998 0.000000 -2.000000
v 2.000000 12.304197 -1.999998
v 1.999998 12.304197 2.000000
v -2.000000 12.304197 1.999998
v -1.999999 12.304197 -1.999999
v 2.000000 8.294726 -1.999998
v 1.999998 8.294726 2.000000
v -2.000000 8.294726 1.999998
v -1.999999 8.294726 -1.999999
v 2.000000 4.062833 -1.999999
v 1.999999 4.062833 2.000000
v -2.000000 4.062833 1.999999
v -1.999999 4.062833 -2.000000
v 1.999999 0.000000 0.000000
v -1.999999 0.000000 -0.000001
v 1.999999 12.304197 0.000001
v -1.999999 12.304197 -0.000000
v -1.999999 8.294726 -0.000000
v 1.999999 8.294726 0.000001
v 1.999999 4.062833 0.000000
v -1.999999 4.062833 -0.000000
vt 0.2498 0.8040
vt 0.0002 0.8040
vt 0.0002 0.6792
vt 0.2498 0.6792
vt 0.1250 0.3395
vt 0.1250 0.6788
vt 0.0002 0.6788
vt 0.0002 0.3395
vt 0.4998 0.3395
vt 0.4998 0.6788
vt 0.2502 0.6788
vt 0.2502 0.3395
vt 0.8750 0.3395
vt 0.8750 0.6788
vt 0.7502 0.6788
vt 0.7502 0.3395
vt 0.5002 0.1698
vt 0.5002 0.0002
vt 0.7498 0.0002
vt 0.7498 0.1698
vt 0.5002 0.6788
vt 0.5002 0.3395
vt 0.7498 0.3395
vt 0.7498 0.6788
vt 0.9998 0.3395
vt 0.2498 0.3395
vt 0.1250 0.1698
vt 0.2498 0.1698
vt 0.1250 0.0002
vt 0.0002 0.1698
vt 0.0002 0.0002
vt 0.4998 0.0002
vt 0.4998 0.1698
vt 0.2502 0.1698
vt 0.2502 0.0002
vt 0.8750 0.0002
vt 0.8750 0.1698
vt 0.7502 0.1698
vt 0.7502 0.0002
vt 0.9998 0.0002
vt 0.9998 0.1698
vt 0.2498 0.0002
vt 0.9998 0.6788
vt 0.2498 0.6788
vt 0.2498 0.9288
vt 0.0002 0.9288
vn 0.0000 1.0000 0.0000
vn 1.0000 0.0000 0.0000
vn -0.0000 -0.0000 1.0000
vn -1.0000 -0.0000 -0.0000
vn 0.0000 0.0000 -1.0000
vn 0.0000 -1.0000 0.0000
usemtl Material.001
s off
f 19/1/1 20/2/1 7/3/1 6/4/1
f 22/5/2 19/6/2 6/7/2 10/8/2
f 10/9/3 6/10/3 7/11/3 11/12/3
f 21/13/4 20/14/4 8/15/4 12/16/4
f 13/17/5 1/18/5 4/19/5 16/20/5
f 5/21/5 9/22/5 12/23/5 8/24/5
f 21/13/6 22/5/6 10/9/6 11/25/6
f 16/20/5 12/23/5 9/26/5 13/17/5
f 23/27/2 13/28/2 9/26/2 22/5/2
f 17/29/2 23/27/2 14/30/2 2/31/2
f 2/32/3 14/33/3 15/34/3 3/35/3
f 18/36/4 24/37/4 16/38/4 4/39/4
f 21/13/3 24/37/3 23/27/3 22/5/3
f 3/40/4 15/41/4 24/37/4 18/36/4
f 1/42/2 13/28/2 23/27/2 17/29/2
f 16/38/4 24/37/4 21/13/4 12/16/4
f 23/27/1 24/37/1 15/41/1 14/33/1
f 11/25/4 7/43/4 20/14/4 21/13/4
f 9/26/2 5/44/2 19/6/2 22/5/2
f 5/45/1 8/46/1 20/2/1 19/1/1
