# Blender v2.78 (sub 0) OBJ File: 'mesh_window_mid.blend'
# www.blender.org
mtllib mesh_window_mid.mtl
o Cube.001
v 2.000000 0.000000 1.999998
v -1.999998 0.000000 2.000000
v -2.000000 0.000000 -1.999998
v 1.999999 0.000000 -1.999999
v 1.999999 12.304197 1.999999
v -1.999999 12.304197 1.999999
v -1.999999 12.304197 -1.999999
v 1.999998 12.304197 -2.000000
v 1.999999 8.294726 1.999999
v -1.999999 8.294726 1.999999
v -1.999999 8.294726 -1.999999
v 1.999998 8.294726 -2.000000
v 2.000000 2.930462 1.999999
v -1.999999 2.930462 2.000000
v -2.000000 2.930462 -1.999999
v 1.999999 2.930462 -2.000000
vt 0.4998 0.1698
vt 0.4998 0.0002
vt 0.5002 0.0002
vt 0.5002 0.1698
vt 0.7498 0.1698
vt 0.7498 0.0002
vt 0.2502 0.0002
vt 0.2502 0.1698
vt 0.4998 0.3395
vt 0.4998 0.6788
vt 0.2502 0.6788
vt 0.2502 0.3395
vt 0.5002 0.6788
vt 0.5002 0.3395
vt 0.7498 0.3395
vt 0.7498 0.6788
vn 0.0000 0.0000 1.0000
vn -0.0000 -0.0000 -1.0000
vn -1.0000 -0.0000 0.0000
vn 1.0000 0.0000 -0.0000
vn 0.0000 1.0000 -0.0000
vn 0.0000 -1.0000 0.0000
usemtl Material.003
s off
f 14/1/1 2/2/1 1/3/1 13/4/1
f 16/5/2 4/6/2 3/7/2 15/8/2
f 10/9/3 6/10/3 7/11/3 11/12/3
f 5/13/1 6/10/1 10/9/1 9/14/1
f 13/4/4 1/3/4 4/6/4 16/5/4
f 5/13/4 9/14/4 12/15/4 8/16/4
f 2/2/3 14/1/3 15/8/3 3/7/3
f 15/8/5 14/1/5 13/4/5 16/5/5
f 12/15/6 9/14/6 10/9/6 11/12/6
f 8/16/5 7/11/5 6/10/5 5/13/5
f 7/11/2 8/16/2 12/15/2 11/12/2
o Cube.002
v 0.818383 2.881103 1.999999
v 0.818383 8.337828 1.999999
v 0.296262 2.881103 2.000000
v 0.296262 8.337828 2.000000
v 0.818379 2.881103 -2.000001
v 0.818379 8.337828 -2.000001
v 0.296258 2.881103 -2.000000
v 0.296258 8.337828 -2.000000
vn 0.0000 0.0000 1.0000
vn -1.0000 0.0000 0.0000
vn -0.0000 0.0000 -1.0000
vn 1.0000 0.0000 -0.0000
vn 0.0000 -1.0000 -0.0000
vn 0.0000 1.0000 0.0000
usemtl Material.001
s off
f 17//7 18//7 20//7 19//7
f 19//8 20//8 24//8 23//8
f 23//9 24//9 22//9 21//9
f 21//10 22//10 18//10 17//10
f 19//11 23//11 21//11 17//11
f 24//12 20//12 18//12 22//12
