# Blender v2.78 (sub 0) OBJ File: 'mesh_window_right.blend'
# www.blender.org
mtllib mesh_window_middle.mtl
o Cube
v 1.999999 0.000000 -1.999999
v 1.999999 0.000000 1.999999
v -1.999999 0.000000 1.999999
v -1.999998 0.000000 -2.000000
v 2.000000 12.304197 -1.999998
v 1.999998 12.304197 2.000000
v -2.000000 12.304197 1.999998
v -1.999999 12.304197 -1.999999
v 2.000000 8.294726 -1.999998
v 1.999998 8.294726 2.000000
v -2.000000 8.294726 1.999998
v -1.999999 8.294726 -1.999999
v 2.000000 4.062833 -1.999999
v 1.999999 4.062833 2.000000
v -2.000000 4.062833 1.999999
v -1.999999 4.062833 -2.000000
vt 0.2502 0.1698
vt 0.7498 0.1698
vt 0.7498 0.0002
vt 0.2502 0.0002
vt 0.7498 0.3395
vt 0.5002 0.3395
vt 0.4998 0.3395
vt 0.2502 0.3395
vt 0.4998 0.6788
vt 0.2502 0.6788
vt 0.7498 0.6788
vt 0.5002 0.1698
vt 0.5002 0.0002
vt 0.5002 0.6788
vt 0.4998 0.0002
vt 0.4998 0.1698
vn -1.0000 -0.0000 -0.0000
vn 0.0000 -1.0000 0.0000
vn -0.0000 -0.0000 1.0000
vn 0.0000 0.0000 -1.0000
vn 1.0000 0.0000 0.0000
vn 0.0000 1.0000 0.0000
usemtl Material.001
s off
f 15/1/1 16/2/1 4/3/1 3/4/1
f 12/5/2 9/6/2 10/7/2 11/8/2
f 10/7/3 6/9/3 7/10/3 11/8/3
f 7/10/1 8/11/1 12/5/1 11/8/1
f 13/12/4 1/13/4 4/3/4 16/2/4
f 5/14/4 9/6/4 12/5/4 8/11/4
f 2/15/3 14/16/3 15/1/3 3/4/3
f 13/12/5 14/16/5 2/15/5 1/13/5
f 8/11/6 7/10/6 6/9/6 5/14/6
f 5/14/5 6/9/5 10/7/5 9/6/5
f 15/1/6 14/16/6 13/12/6 16/2/6
