# Blender v2.78 (sub 0) OBJ File: 'peep2.blend'
# www.blender.org
mtllib mesh_peep.mtl
o Cylinder.000_Cylinder.001
v -0.269850 4.738323 0.015626
v 0.281914 4.738323 0.015626
v -0.269850 5.452570 0.425016
v 0.281914 5.452570 0.425016
v -0.269850 5.549515 0.156040
v 0.281914 5.549515 0.156040
v -0.269850 5.548618 -0.129872
v 0.281914 5.548618 -0.129872
v -0.269850 5.449988 -0.398235
v 0.281914 5.449988 -0.398235
v -0.269850 5.265521 -0.616680
v 0.281914 5.265521 -0.616680
v -0.269850 5.017466 -0.758859
v 0.281914 5.017466 -0.758859
v -0.269850 4.735742 -0.807624
v 0.281914 4.735742 -0.807625
v -0.269850 4.454329 -0.757094
v 0.281914 4.454329 -0.757094
v -0.269850 4.207170 -0.613361
v 0.281914 4.207170 -0.613361
v -0.269850 4.024077 -0.393764
v 0.281914 4.024077 -0.393764
v -0.269850 3.927132 -0.124788
v 0.281914 3.927132 -0.124788
v -0.269850 3.928028 0.161124
v 0.281914 3.928028 0.161124
v -0.269850 4.026658 0.429486
v 0.281914 4.026658 0.429486
v -0.269850 4.211125 0.647931
v 0.281914 4.211125 0.647931
v -0.269850 4.459180 0.790111
v 0.281914 4.459181 0.790111
v -0.269850 4.740904 0.838876
v 0.281914 4.740904 0.838876
v -0.269850 5.022317 0.788346
v 0.281914 5.022317 0.788346
v -0.269850 5.269475 0.644613
v 0.281914 5.269475 0.644613
vt 0.1953 0.8016
vt 0.2970 0.9727
vt 0.2323 0.9972
vt 0.5947 0.7969
vt 0.5603 0.9929
vt 0.4954 0.9694
vt 0.4959 0.0699
vt 0.3947 0.1858
vt 0.3487 0.1605
vt 0.4034 0.0173
vt 0.1632 0.9981
vt 0.6295 0.9928
vt 0.2970 0.1530
vt 0.2986 0.0001
vt 0.0979 0.9752
vt 0.6944 0.9691
vt 0.2462 0.1641
vt 0.1948 0.0204
vt 0.0444 0.9314
vt 0.7473 0.9246
vt 0.2023 0.1928
vt 0.1046 0.0750
vt 0.0091 0.8720
vt 0.7818 0.8647
vt 0.1712 0.2360
vt 0.0386 0.1565
vt -0.0037 0.8041
vt 0.7937 0.7966
vt 0.1513 0.2861
vt 0.0023 0.2544
vt 0.0074 0.7358
vt 0.7816 0.7285
vt 0.1505 0.3385
vt 0.0001 0.3591
vt 0.0413 0.6756
vt 0.7470 0.6687
vt 0.1685 0.3872
vt 0.0340 0.4588
vt 0.0937 0.6305
vt 0.6940 0.6243
vt 0.2025 0.4267
vt 0.1007 0.5410
vt 0.1583 0.6060
vt 0.6290 0.6008
vt 0.2485 0.4520
vt 0.1922 0.5952
vt 0.2275 0.6052
vt 0.5598 0.6009
vt 0.3007 0.4598
vt 0.2973 0.6143
vt 0.2927 0.6280
vt 0.4949 0.6246
vt 0.3528 0.4492
vt 0.4028 0.5959
vt 0.3462 0.6718
vt 0.4420 0.6691
vt 0.3984 0.4213
vt 0.4958 0.5423
vt 0.3815 0.7312
vt 0.4075 0.7290
vt 0.4319 0.3795
vt 0.5648 0.4601
vt 0.3944 0.7991
vt 0.3956 0.7971
vt 0.4492 0.3288
vt 0.6015 0.3592
vt 0.3832 0.8674
vt 0.4077 0.8652
vt 0.4483 0.2753
vt 0.6015 0.2520
vt 0.3494 0.9277
vt 0.4423 0.9250
vt 0.4293 0.2257
vt 0.5648 0.1515
vn -1.0000 -0.0000 -0.0000
vn 1.0000 0.0000 0.0000
vn 0.0000 0.9408 0.3391
vn 0.0000 1.0000 -0.0031
vn 0.0000 0.9386 -0.3450
vn 0.0000 0.7640 -0.6452
vn 0.0000 0.4973 -0.8676
vn -0.0000 0.1706 -0.9853
vn -0.0000 -0.1767 -0.9843
vn 0.0000 -0.5027 -0.8645
vn -0.0000 -0.7681 -0.6404
vn -0.0000 -0.9408 -0.3391
vn 0.0000 -1.0000 0.0031
vn 0.0000 -0.9386 0.3450
vn 0.0000 -0.7640 0.6452
vn 0.0000 -0.4973 0.8676
vn 0.0000 -0.1706 0.9853
vn 0.0000 0.1767 0.9843
vn 0.0000 0.5027 0.8645
vn 0.0000 0.7681 0.6404
usemtl Material.004
s off
f 1/1/1 3/2/1 5/3/1
f 2/4/2 6/5/2 4/6/2
f 3/7/3 4/8/3 6/9/3 5/10/3
f 1/1/1 5/3/1 7/11/1
f 2/4/2 8/12/2 6/5/2
f 5/10/4 6/9/4 8/13/4 7/14/4
f 1/1/1 7/11/1 9/15/1
f 2/4/2 10/16/2 8/12/2
f 7/14/5 8/13/5 10/17/5 9/18/5
f 1/1/1 9/15/1 11/19/1
f 2/4/2 12/20/2 10/16/2
f 9/18/6 10/17/6 12/21/6 11/22/6
f 1/1/1 11/19/1 13/23/1
f 2/4/2 14/24/2 12/20/2
f 11/22/7 12/21/7 14/25/7 13/26/7
f 1/1/1 13/23/1 15/27/1
f 2/4/2 16/28/2 14/24/2
f 13/26/8 14/25/8 16/29/8 15/30/8
f 1/1/1 15/27/1 17/31/1
f 2/4/2 18/32/2 16/28/2
f 15/30/9 16/29/9 18/33/9 17/34/9
f 1/1/1 17/31/1 19/35/1
f 2/4/2 20/36/2 18/32/2
f 17/34/10 18/33/10 20/37/10 19/38/10
f 1/1/1 19/35/1 21/39/1
f 2/4/2 22/40/2 20/36/2
f 19/38/11 20/37/11 22/41/11 21/42/11
f 1/1/1 21/39/1 23/43/1
f 2/4/2 24/44/2 22/40/2
f 21/42/12 22/41/12 24/45/12 23/46/12
f 1/1/1 23/43/1 25/47/1
f 2/4/2 26/48/2 24/44/2
f 23/46/13 24/45/13 26/49/13 25/50/13
f 1/1/1 25/47/1 27/51/1
f 2/4/2 28/52/2 26/48/2
f 25/50/14 26/49/14 28/53/14 27/54/14
f 1/1/1 27/51/1 29/55/1
f 2/4/2 30/56/2 28/52/2
f 27/54/15 28/53/15 30/57/15 29/58/15
f 1/1/1 29/55/1 31/59/1
f 2/4/2 32/60/2 30/56/2
f 29/58/16 30/57/16 32/61/16 31/62/16
f 1/1/1 31/59/1 33/63/1
f 2/4/2 34/64/2 32/60/2
f 31/62/17 32/61/17 34/65/17 33/66/17
f 1/1/1 33/63/1 35/67/1
f 2/4/2 36/68/2 34/64/2
f 33/66/18 34/65/18 36/69/18 35/70/18
f 1/1/1 35/67/1 37/71/1
f 2/4/2 38/72/2 36/68/2
f 35/70/19 36/69/19 38/73/19 37/74/19
f 1/1/1 37/71/1 3/2/1
f 2/4/2 4/6/2 38/72/2
f 37/74/20 38/73/20 4/8/20 3/7/20
o Cube.002_Cube.000
v 0.271176 1.832604 -0.723729
v 0.271176 1.832604 0.728567
v -0.264629 1.832604 0.728567
v -0.264628 1.841938 -0.723729
v 0.271177 3.764629 -0.729387
v 0.271176 3.764629 0.732887
v -0.264629 3.764629 0.732886
v -0.264629 3.764629 -0.729387
v 0.271177 3.214597 -0.723728
v 0.271176 3.214597 0.728567
v -0.264629 3.214597 0.728567
v -0.264629 3.214597 -0.723729
v 0.271176 1.832604 0.206406
v -0.264629 1.832604 0.206406
v 0.271176 3.764629 0.317508
v -0.264629 3.764629 0.317507
v -0.264629 3.222307 0.277601
v 0.271176 3.222307 0.277602
v -0.264629 1.832604 -0.229232
v -0.264629 3.764629 -0.340069
v -0.264629 3.222307 -0.300427
v 0.271176 1.832604 -0.229232
v 0.271177 3.764629 -0.340069
v 0.271176 3.222307 -0.300426
v 0.271176 0.025596 0.206406
v 0.271176 0.025596 0.728567
v 0.271176 0.025596 -0.723729
v -0.264628 0.025596 -0.723729
v -0.264629 0.025596 0.728567
v -0.264629 0.025596 -0.229232
v -0.264629 0.025596 0.206406
v 0.271176 0.025596 -0.229232
v 0.271177 3.214597 -0.816531
v 0.271177 3.764629 -0.822820
v 0.271176 3.214597 0.821470
v 0.271176 3.764629 0.826272
v -0.264629 3.214597 0.821470
v -0.264629 3.764629 0.826271
v -0.264629 3.214597 -0.816531
v -0.264629 3.764629 -0.822820
v 0.271177 3.214597 -1.181510
v 0.271177 3.589398 -1.054062
v 0.271176 3.214597 1.186743
v 0.271176 3.589398 1.057221
v -0.264629 3.214597 1.186743
v -0.264629 3.589398 1.057220
v -0.264629 3.214597 -1.181511
v -0.264629 3.589398 -1.054062
v 0.271177 1.855029 -0.816531
v -0.264629 1.855029 -0.816531
v 0.271176 1.855029 0.821470
v -0.264629 1.855029 0.821470
v 0.271177 1.855029 -1.181510
v -0.264629 1.855029 -1.181511
v 0.271176 1.855029 1.186743
v -0.264629 1.855029 1.186743
vt 0.4123 0.2997
vt 0.3368 0.3011
vt 0.3368 0.0237
vt 0.4123 0.0237
vt 0.0957 0.6529
vt 0.0882 0.7550
vt 0.0100 0.7550
vt 0.0108 0.6515
vt 0.3864 0.6534
vt 0.3789 0.7555
vt 0.3056 0.7555
vt 0.3067 0.6519
vt 0.3998 0.3917
vt 0.3067 0.3934
vt 0.1091 0.3912
vt 0.0108 0.3912
vt 0.1912 0.3912
vt 0.2046 0.6529
vt 0.5802 0.3917
vt 0.5802 0.6519
vt 0.4952 0.6534
vt 0.4819 0.3917
vt 0.5810 0.7555
vt 0.5028 0.7555
vt 0.2120 0.7550
vt 0.0928 0.3115
vt 0.0928 0.3780
vt 0.0110 0.3780
vt 0.0110 0.3115
vt 0.6602 0.2999
vt 0.5783 0.2999
vt 0.5783 0.0238
vt 0.6602 0.0238
vt 0.2843 0.6515
vt 0.2854 0.7550
vt 0.2843 0.3912
vt 0.3339 0.2997
vt 0.2521 0.2997
vt 0.2521 0.0237
vt 0.3339 0.0237
vt 0.4936 0.2997
vt 0.4139 0.2997
vt 0.4139 0.0237
vt 0.4936 0.0237
vt 0.0892 0.2998
vt 0.0136 0.2998
vt 0.0136 0.0237
vt 0.0892 0.0237
vt 0.5767 0.2998
vt 0.4948 0.2998
vt 0.4948 0.0238
vt 0.5767 0.0238
vt 0.1690 0.2997
vt 0.0893 0.2997
vt 0.0893 0.0237
vt 0.1690 0.0237
vt 0.2511 0.0237
vt 0.2511 0.3012
vt 0.1693 0.2998
vt 0.1693 0.0237
vt 0.3164 0.9892
vt 0.3164 0.8926
vt 0.5656 0.8926
vt 0.5656 0.9892
vt 0.8860 0.4542
vt 0.8860 0.5371
vt 0.8715 0.5371
vt 0.8715 0.4542
vt 0.8915 0.5388
vt 0.8906 0.4536
vt 0.9050 0.4536
vt 0.9059 0.5388
vt 0.2722 0.7787
vt 0.2722 0.8753
vt 0.2020 0.8753
vt 0.2020 0.7787
vt 0.0834 0.8753
vt 0.0834 0.7787
vt 0.0085 0.8753
vt 0.0085 0.7787
vt 0.9305 0.4466
vt 0.8476 0.4466
vt 0.8476 0.4017
vt 0.9305 0.4017
vt 0.7836 0.3410
vt 0.7006 0.3410
vt 0.7006 0.1305
vt 0.7836 0.1305
vt 0.9256 0.4528
vt 0.9247 0.5380
vt 0.9103 0.5380
vt 0.9113 0.4528
vt 0.8656 0.4532
vt 0.8656 0.5362
vt 0.8512 0.5362
vt 0.8512 0.4532
vt 0.8630 0.8992
vt 0.8630 0.9821
vt 0.8486 0.9821
vt 0.8486 0.8992
vt 0.8934 0.9846
vt 0.8927 0.8994
vt 0.9071 0.8994
vt 0.9078 0.9846
vt 0.8419 0.9002
vt 0.8419 0.9832
vt 0.8275 0.9832
vt 0.8275 0.9002
vt 0.8856 0.9004
vt 0.8849 0.9855
vt 0.8705 0.9855
vt 0.8712 0.9004
vt 0.8476 0.3404
vt 0.9305 0.3404
vt 0.9109 0.8446
vt 0.8280 0.8446
vt 0.8280 0.7832
vt 0.9109 0.7832
vt 0.9146 0.8683
vt 0.9139 0.7832
vt 0.9704 0.7832
vt 0.9504 0.8412
vt 0.9342 0.4256
vt 0.9333 0.3404
vt 0.9898 0.3404
vt 0.9700 0.3984
vt 0.9139 0.5728
vt 0.9704 0.5728
vt 0.9109 0.8895
vt 0.8280 0.8895
vt 0.8451 0.3404
vt 0.8441 0.4255
vt 0.8083 0.3984
vt 0.7886 0.3404
vt 0.8233 0.7831
vt 0.8225 0.8682
vt 0.7868 0.8411
vt 0.7667 0.7831
vt 0.7819 0.4057
vt 0.6989 0.4057
vt 0.6989 0.3492
vt 0.7819 0.3492
vt 0.7648 0.8539
vt 0.6819 0.8539
vt 0.6819 0.7973
vt 0.7648 0.7973
vt 0.7886 0.1300
vt 0.8451 0.1300
vt 0.8476 0.1300
vt 0.9305 0.1300
vt 0.7659 0.7831
vt 0.6829 0.7831
vt 0.6829 0.5727
vt 0.7659 0.5727
vt 0.9333 0.1300
vt 0.9898 0.1300
vt 0.8280 0.5728
vt 0.9109 0.5728
vt 0.7667 0.5727
vt 0.8233 0.5727
vt 0.5632 0.8717
vt 0.3140 0.8717
vt 0.3156 0.7751
vt 0.5632 0.7751
vn -1.0000 0.0000 -0.0000
vn 1.0000 0.0000 0.0000
vn 0.0000 -1.0000 -0.0000
vn -0.0000 0.0000 1.0000
vn 0.0000 0.0000 -1.0000
vn 0.0000 1.0000 0.0000
vn 0.0000 0.7970 -0.6040
vn 0.0000 0.3219 -0.9468
vn -0.0000 0.3266 0.9452
vn -0.0000 0.7966 0.6044
usemtl Material
s off
f 57/75/21 42/76/21 66/77/21 68/78/21
f 56/79/22 53/80/22 44/81/22 48/82/22
f 59/83/21 58/84/21 46/85/21 50/86/21
f 57/87/21 59/83/21 50/86/21 42/88/21
f 51/89/22 56/79/22 48/82/22 40/90/22
f 60/91/22 62/92/22 56/79/22 51/89/22
f 41/93/21 49/94/21 55/95/21 52/96/21
f 49/94/21 45/97/21 54/98/21 55/95/21
f 62/92/22 61/99/22 53/80/22 56/79/22
f 60/100/23 51/101/23 52/102/23 57/103/23
f 60/104/24 57/105/24 68/106/24 70/107/24
f 47/108/22 43/109/22 61/99/22 62/92/22
f 39/110/22 47/108/22 62/92/22 60/91/22
f 52/96/21 55/95/21 59/83/21 57/87/21
f 55/95/21 54/98/21 58/84/21 59/83/21
f 40/111/24 41/112/24 67/113/24 64/114/24
f 41/115/21 52/116/21 69/117/21 67/118/21
f 39/119/22 60/120/22 70/121/22 65/122/22
f 52/123/25 51/124/25 63/125/25 69/126/25
f 51/127/22 40/128/22 64/129/22 63/130/22
f 66/131/25 42/132/25 39/133/25 65/134/25
f 41/135/24 40/136/24 48/137/24 49/138/24
f 46/139/26 43/140/26 72/141/26 78/142/26
f 43/143/22 47/144/22 71/145/22 72/146/22
f 43/147/26 46/148/26 58/149/26 61/150/26
f 61/150/26 58/149/26 54/151/26 53/152/26
f 53/152/26 54/151/26 45/153/26 44/154/26
f 78/155/27 72/156/27 80/157/27 86/158/27
f 71/159/24 77/160/24 88/161/24 87/162/24
f 50/163/21 46/164/21 78/165/21 77/166/21
f 47/167/23 50/168/23 77/169/23 71/170/23
f 44/171/26 45/172/26 76/173/26 74/174/26
f 45/175/21 49/176/21 75/177/21 76/178/21
f 49/179/23 48/180/23 73/181/23 75/182/23
f 48/183/22 44/184/22 74/185/22 73/186/22
f 80/157/28 79/187/28 85/188/28 86/158/28
f 82/189/29 84/190/29 83/191/29 81/192/29
f 76/193/21 75/194/21 83/195/21 84/196/21
f 72/197/22 71/198/22 79/199/22 80/200/22
f 83/195/21 75/194/21 90/201/21 94/202/21
f 74/203/30 76/204/30 84/190/30 82/189/30
f 77/205/21 78/206/21 86/207/21 85/208/21
f 73/209/22 74/210/22 82/211/22 81/212/22
f 87/213/23 88/214/23 92/215/23 91/216/23
f 90/217/23 89/218/23 93/219/23 94/220/23
f 77/205/21 85/208/21 92/221/21 88/222/21
f 85/188/25 79/187/25 91/223/25 92/224/25
f 75/225/25 73/226/25 89/227/25 90/228/25
f 79/199/22 71/198/22 87/229/22 91/230/22
f 81/192/24 83/191/24 94/231/24 93/232/24
f 73/209/22 81/212/22 93/233/22 89/234/22
f 47/235/25 39/236/25 42/237/25 50/238/25
