# Blender v2.78 (sub 0) OBJ File: 'mesh_desk.blend'
# www.blender.org
mtllib mesh_desk.mtl
o Cube
v 1.447533 2.827434 -3.250485
v 1.436500 2.939260 -3.250485
v 1.447533 2.827434 -4.882752
v 1.436500 2.939260 -4.882752
v 2.180998 2.827434 -3.250485
v 2.156004 2.939260 -3.250485
v 2.180998 2.827434 -4.882752
v 2.156004 2.939260 -4.882752
v 1.409091 2.920686 -3.250485
v 1.409091 2.920686 -4.882752
v 2.180998 2.908875 -4.882752
v 2.180998 2.908875 -3.250485
v 0.225188 2.843740 -4.210017
v 0.296116 2.937263 -4.176378
v 0.296116 2.937263 -4.503218
v 0.225188 2.843740 -4.608809
v 0.438257 2.843740 -4.608808
v 0.438257 2.998216 -4.503218
v 0.631959 2.998216 -4.503218
v 0.631959 2.843740 -4.608808
v 0.631959 2.998216 -4.176378
v 0.631959 2.998216 -3.850060
v 0.766605 2.960518 -3.850060
v 0.766605 2.960518 -4.176378
v 0.438257 2.843740 -3.438334
v 0.438257 2.998216 -3.543924
v 0.296116 2.937263 -3.543924
v 0.225188 2.843740 -3.438334
v 0.438257 2.843740 -3.811863
v 0.631959 2.843740 -3.811863
v 0.631959 2.843740 -3.438334
v 0.438257 2.998216 -3.850060
v 0.296116 2.937263 -3.850060
v 0.438257 2.998216 -4.176378
v 0.631959 2.843740 -4.210017
v 0.438257 2.843740 -4.210017
v 0.864353 2.843739 -3.811863
v 0.864353 2.843739 -3.438334
v 0.225188 2.843740 -3.811863
v 0.864353 2.843739 -4.210017
v 0.438257 3.226831 -4.176378
v 0.631959 3.226831 -4.176378
v 0.631959 2.998216 -3.543924
v 0.438257 3.226831 -3.850060
v 0.484905 3.405913 -3.850060
v 0.484905 3.405913 -4.176378
v 0.631959 3.226831 -3.850060
v 0.678607 3.405913 -3.850060
v 0.711108 3.498188 -3.850060
v 0.595733 3.586267 -3.850060
v 0.678607 3.405913 -4.176378
v 0.711108 3.498188 -4.176378
v 0.595733 3.586267 -4.176378
v 0.712716 3.750950 -4.176378
v 0.711108 3.574028 -4.176378
v 0.712716 3.750950 -3.850060
v 0.711108 3.574028 -3.850060
v 0.766605 2.960517 -3.543924
v 0.864353 2.843739 -4.608808
v 0.766605 2.960518 -4.503218
vt 0.0180 0.4150
vt 0.0180 0.4047
vt 0.5241 0.4047
vt 0.5241 0.4150
vt 0.0119 0.3328
vt 0.0287 0.3214
vt 0.4693 0.3214
vt 0.4846 0.3400
vt 0.5241 0.4717
vt 0.5241 0.4839
vt 0.0180 0.4839
vt 0.0180 0.4717
vt 0.4846 0.3025
vt 0.4693 0.3211
vt 0.0287 0.3211
vt 0.0119 0.3097
vt 0.8948 0.5084
vt 0.8948 0.8884
vt 0.0326 0.8884
vt 0.0326 0.5084
vt 0.4846 0.2526
vt 0.0354 0.2526
vt 0.5241 0.4464
vt 0.0180 0.4464
vt 0.0354 0.3899
vt 0.4846 0.3899
vt 0.0180 0.4463
vt 0.5241 0.4463
vt 0.7461 0.2953
vt 0.7177 0.3040
vt 0.7140 0.2280
vt 0.7392 0.1992
vt 0.6862 0.1880
vt 0.6797 0.2312
vt 0.6384 0.2302
vt 0.6361 0.1850
vt 0.6353 0.3037
vt 0.6344 0.3803
vt 0.6014 0.3808
vt 0.6020 0.3025
vt 0.6803 0.4921
vt 0.6770 0.4481
vt 0.7104 0.4534
vt 0.7343 0.4836
vt 0.7962 0.4046
vt 0.8416 0.4046
vt 0.8416 0.4921
vt 0.7962 0.4921
vt 0.6797 0.3807
vt 0.7167 0.3821
vt 0.6812 0.3042
vt 0.7962 0.2182
vt 0.8416 0.2182
vt 0.8416 0.3115
vt 0.7962 0.3115
vt 0.8959 0.4046
vt 0.8959 0.4921
vt 0.7447 0.3929
vt 0.8959 0.3115
vt 0.7464 0.3115
vt 0.7464 0.4046
vt 0.8407 0.1612
vt 0.8409 0.1610
vt 0.8427 0.1600
vt 0.8434 0.1638
vt 0.7464 0.2182
vt 0.6356 0.4480
vt 0.7464 0.4921
vt 0.6317 0.4910
vt 0.8393 0.1591
vt 0.8343 0.1529
vt 0.8494 0.1556
vt 0.8405 0.1608
vt 0.8403 0.1610
vt 0.8375 0.1621
vt 0.8195 0.1711
vt 0.7736 0.1886
vt 0.7881 0.1081
vt 0.8593 0.1778
vt 0.9077 0.2042
vt 0.9080 0.1140
vt 0.9754 0.0101
vt 0.9576 0.1650
vt 0.7149 0.0626
vt 0.7149 0.1449
vt 0.5635 0.1449
vt 0.5635 0.0626
vt 0.7373 0.0159
vt 0.5635 0.0274
vt 0.7149 0.0274
vt 0.7373 0.1464
vt 0.5647 0.3915
vt 0.6055 0.4503
vt 0.5747 0.4810
vt 0.5760 0.1946
vt 0.6074 0.2273
vt 0.5647 0.2927
vt 0.8959 0.2182
vn -0.5610 0.8278 0.0000
vn 0.0000 0.0000 -1.0000
vn 0.7723 0.6353 0.0000
vn 0.0000 0.0000 1.0000
vn 0.0000 1.0000 0.0000
vn 1.0000 0.0000 0.0000
vn -0.9245 -0.3811 0.0000
vn -0.8956 -0.4448 0.0000
vn -0.6159 0.7878 0.0000
vn -0.5033 0.8057 -0.3122
vn -0.6686 -0.2797 -0.6890
vn -0.0650 -0.4417 -0.8948
vn -0.1442 0.8959 -0.4201
vn 0.0949 0.8952 -0.4354
vn 0.0359 -0.4502 -0.8921
vn 0.4456 0.8471 -0.2895
vn 0.4456 0.8471 0.2895
vn 0.5425 0.8400 0.0000
vn -0.0650 -0.4417 0.8948
vn -0.1442 0.8959 0.4201
vn -0.5033 0.8057 0.3122
vn -0.6686 -0.2797 0.6890
vn 0.0000 -1.0000 0.0000
vn 0.0359 -0.4502 0.8921
vn -0.5108 0.8108 0.2857
vn -0.5108 0.8108 -0.2857
vn 0.9060 -0.4231 0.0000
vn 0.6883 -0.2691 0.6736
vn 0.9060 -0.4232 0.0000
vn -0.7276 0.0932 -0.6796
vn 0.6706 -0.0859 -0.7368
vn 0.0949 0.8952 0.4354
vn -0.7276 0.0932 0.6796
vn -0.6784 0.2892 0.6753
vn -0.6784 0.2892 -0.6753
vn 0.6706 -0.0859 0.7368
vn 0.6669 -0.2039 0.7166
vn 0.7308 -0.1249 0.6710
vn -0.5959 0.3941 0.6997
vn 0.6669 -0.2039 -0.7166
vn 0.7308 -0.1249 -0.6710
vn -0.5959 0.3941 -0.6997
vn 0.2589 0.7989 -0.5429
vn 0.7081 -0.0032 -0.7061
vn 0.2589 0.7989 0.5429
vn 0.7081 -0.0032 0.7061
vn 0.4292 0.8351 0.3440
vn 0.6883 -0.2691 -0.6736
vn 0.4292 0.8351 -0.3440
usemtl Material.003
s off
f 9/1/1 2/2/1 4/3/1 10/4/1
f 10/5/2 4/6/2 8/7/2 11/8/2
f 11/9/3 8/10/3 6/11/3 12/12/3
f 12/13/4 6/14/4 2/15/4 9/16/4
f 8/17/5 4/18/5 2/19/5 6/20/5
f 5/21/4 12/13/4 9/16/4 1/22/4
f 7/23/6 11/9/6 12/12/6 5/24/6
f 3/25/2 10/5/2 11/8/2 7/26/2
f 1/27/7 9/1/7 10/4/7 3/28/7
s 1
f 13/29/8 14/30/9 15/31/10 16/32/11
f 17/33/12 18/34/13 19/35/14 20/36/15
f 21/37/16 22/38/17 23/39/18 24/40/18
f 25/41/19 26/42/20 27/43/21 28/44/22
f 29/45/23 30/46/23 31/47/24 25/48/19
f 32/49/25 33/50/9 27/43/21 26/42/20
f 18/34/13 15/31/10 14/30/9 34/51/26
f 17/52/12 20/53/15 35/54/23 36/55/23
f 31/47/24 30/46/23 37/56/27 38/57/28
f 39/58/8 33/50/9 14/30/9 13/29/8
f 28/44/22 27/43/21 33/50/9 39/58/8
f 34/51/26 14/30/9 33/50/9 32/49/25
f 36/55/23 35/54/23 30/46/23 29/45/23
f 30/46/23 35/54/23 40/59/29 37/56/27
f 13/60/8 36/55/23 29/45/23 39/61/8
f 21/62/16 34/63/26 41/64/30 42/65/31
f 16/66/11 17/52/12 36/55/23 13/60/8
f 19/35/14 18/34/13 34/51/26 21/37/16
f 22/38/17 32/49/25 26/42/20 43/67/32
f 39/61/8 29/45/23 25/48/19 28/68/22
f 31/69/24 43/67/32 26/42/20 25/41/19
f 16/32/11 15/31/10 18/34/13 17/33/12
f 41/64/30 44/70/33 45/71/34 46/72/35
f 32/73/25 22/74/17 47/75/36 44/70/33
f 22/74/17 21/62/16 42/65/31 47/75/36
f 34/63/26 32/73/25 44/70/33 41/64/30
f 45/71/34 48/76/37 49/77/38 50/78/39
f 47/75/36 42/65/31 51/79/40 48/76/37
f 44/70/33 47/75/36 48/76/37 45/71/34
f 42/65/31 41/64/30 46/72/35 51/79/40
f 52/80/41 53/81/42 54/82/43 55/83/44
f 51/79/40 46/72/35 53/81/42 52/80/41
f 46/72/35 45/71/34 50/78/39 53/81/42
f 48/76/37 51/79/40 52/80/41 49/77/38
f 55/84/44 54/85/43 56/86/45 57/87/46
f 53/81/42 50/78/39 56/88/45 54/82/43
f 49/89/38 52/90/41 55/84/44 57/87/46
f 50/78/39 49/77/38 57/91/46 56/88/45
f 37/92/27 23/39/18 58/93/47 38/94/28
f 59/95/48 60/96/49 24/40/18 40/97/29
f 40/97/29 24/40/18 23/39/18 37/92/27
f 22/38/17 43/67/32 58/93/47 23/39/18
f 20/36/15 19/35/14 60/96/49 59/95/48
f 19/35/14 21/37/16 24/40/18 60/96/49
f 43/67/32 31/69/24 38/94/28 58/93/47
f 35/54/23 20/53/15 59/98/48 40/59/29
o Cube.034_Cube.007
v 0.013519 -0.005104 -0.155829
v 0.013519 -0.005104 -0.021608
v 0.013519 2.848009 -0.021608
v 0.013519 2.684401 -0.155828
v 0.013520 2.684402 -7.861826
v 0.013519 2.848010 -8.021605
v 2.857997 2.848009 -0.021605
v 2.857998 2.684401 -0.155828
v 2.857998 2.684402 -7.861825
v 2.857999 2.848010 -8.021603
v 2.857998 -0.005104 -0.155828
v 2.857998 -0.005104 -0.021607
v 2.857998 -0.005103 -8.021605
v 2.857998 -0.005103 -7.861826
v 0.013520 -0.005103 -7.861827
v 0.013520 -0.005103 -8.021606
v 0.819817 3.338706 -3.200601
v 0.819817 3.338706 -3.076262
v 0.823480 3.226477 -3.076262
v 0.823480 3.226477 -3.200601
v 0.708460 3.335072 -3.076262
v 0.712123 3.222842 -3.076262
v 0.708460 3.335072 -4.872962
v 0.708460 3.335072 -4.983174
v 0.712123 3.222843 -4.983174
v 0.712123 3.222843 -4.872962
v 0.819817 3.338706 -4.983174
v 0.823480 3.226478 -4.983174
v 0.776474 4.666798 -4.872962
v 0.776474 4.666798 -4.983174
v 0.665117 4.663163 -4.983174
v 0.665117 4.663163 -4.872962
v 0.823480 3.226478 -4.872962
v 0.712123 3.222842 -3.200601
v 0.776474 4.666798 -3.076262
v 0.776474 4.666798 -3.200600
v 0.665117 4.663163 -3.200600
v 0.665117 4.663163 -3.076262
v 0.708460 3.335072 -3.200601
v 0.819817 3.338706 -4.872962
v 0.668353 4.563992 -4.872962
v 0.668353 4.563992 -3.200600
v 0.779711 4.567626 -4.872962
v 0.779711 4.567626 -4.983174
v 0.779711 4.567626 -3.200600
v 0.668353 4.563992 -3.076262
v 0.668353 4.563992 -4.983174
v 0.779711 4.567626 -3.076262
v 0.792741 3.337823 -4.872962
v 0.792741 3.337822 -3.200601
v 0.752635 4.566742 -4.872962
v 0.752635 4.566741 -3.200600
vt 0.9138 0.1322
vt 0.9292 0.1322
vt 0.9292 0.4626
vt 0.9138 0.4436
vt 0.8950 0.1705
vt 0.0074 0.1705
vt -0.0081 0.1515
vt 0.9134 0.1515
vt -0.0081 0.1511
vt 0.0074 0.1322
vt 0.8950 0.1322
vt 0.9134 0.1511
vt 0.9451 0.1322
vt 0.9451 0.4436
vt 0.9296 0.4626
vt 0.9296 0.1322
vt 0.8917 0.1138
vt 0.5899 0.1138
vt 0.5899 0.0059
vt 0.8917 0.0059
vt 0.0839 0.0059
vt 0.3746 0.0059
vt 0.3746 0.1138
vt 0.0839 0.1138
vt 0.0079 0.0253
vt 0.0870 0.0001
vt 0.0122 0.0288
vt 0.0043 0.0888
vt 0.4766 0.0059
vt 0.4766 0.1138
vt 0.0001 0.0921
vt 0.0873 0.1203
vt 0.4817 0.1138
vt 0.4817 0.0059
vt 0.9999 0.0059
vt 0.9999 0.1138
vt 0.0475 0.5645
vt 0.0724 0.5077
vt 0.0920 0.5148
vt 0.1000 0.5380
vt 0.0926 0.4941
vt 0.0991 0.5079
vt 0.4396 0.5038
vt 0.4586 0.5038
vt 0.4554 0.5195
vt 0.4403 0.5231
vt 0.4822 0.5135
vt 0.4627 0.5265
vt 0.4366 0.2271
vt 0.4437 0.2494
vt 0.4360 0.2569
vt 0.4213 0.2500
vt 0.4510 0.5460
vt 0.1147 0.5155
vt 0.0647 0.2493
vt 0.0758 0.2247
vt 0.0897 0.2488
vt 0.0727 0.2552
vt 0.1163 0.4929
vt 0.5111 0.5710
vt 0.4200 0.2706
vt 0.0920 0.2665
vt 0.4855 0.2026
vt 0.4624 0.2557
vt 0.0196 0.2018
vt 0.0717 0.2686
vt 0.4418 0.2698
vt 0.0499 0.2617
vt 0.5195 0.5782
vt 0.0410 0.5722
vt 0.5384 0.9814
vt 0.0179 0.9814
vt 0.0180 0.5967
vt 0.5384 0.5967
vt 0.0113 0.1948
vt 0.4921 0.1948
vn -1.0000 0.0000 0.0000
vn 1.0000 0.0000 0.0000
vn -0.0000 1.0000 0.0000
vn 0.0000 -1.0000 -0.0000
vn -0.0000 -0.0000 1.0000
vn 0.0000 0.0000 -1.0000
vn 0.9995 0.0326 0.0000
vn -0.9995 -0.0326 -0.0000
vn -0.0326 0.9995 0.0000
vn 0.0326 -0.9995 -0.0000
usemtl Material
s 1
f 61/99/50 62/100/50 63/101/50 64/102/50
f 65/103/50 64/104/50 63/105/50 66/106/50
f 67/107/51 68/108/51 69/109/51 70/110/51
f 71/111/51 68/112/51 67/113/51 72/114/51
f 66/115/52 63/116/52 67/117/52 70/118/52
f 69/119/53 68/120/53 64/121/53 65/122/53
f 73/123/51 70/124/51 69/119/51 74/125/51
f 69/119/54 65/122/54 75/126/54 74/125/54
f 64/121/55 68/120/55 71/127/55 61/128/55
f 76/129/50 75/126/50 65/122/50 66/130/50
f 63/116/54 62/131/54 72/132/54 67/117/54
f 66/115/55 70/118/55 73/133/55 76/134/55
f 77/135/56 78/136/56 79/137/56 80/138/56
f 78/136/54 81/139/54 82/140/54 79/137/54
f 83/141/57 84/142/57 85/143/57 86/144/57
f 84/142/55 87/145/55 88/146/55 85/143/55
f 89/147/58 90/148/58 91/149/58 92/150/58
f 86/144/59 85/143/59 88/146/59 93/151/59
f 82/140/59 94/152/59 80/138/59 79/137/59
f 95/153/58 96/154/58 97/155/58 98/156/58
f 81/139/57 99/157/57 94/152/57 82/140/57
f 100/158/56 77/135/56 80/138/56 93/151/56
f 87/145/56 100/158/56 93/151/56 88/146/56
f 94/152/59 86/144/59 93/151/59 80/138/59
f 96/154/58 89/147/58 92/150/58 97/155/58
f 99/157/57 83/141/57 86/144/57 94/152/57
f 97/155/57 92/150/57 101/159/57 102/160/57
f 90/148/56 89/147/56 103/161/56 104/162/56
f 89/147/56 96/154/56 105/163/56 103/161/56
f 98/156/57 97/155/57 102/160/57 106/164/57
f 91/149/55 90/148/55 104/162/55 107/165/55
f 92/150/57 91/149/57 107/165/57 101/159/57
f 95/153/54 98/156/54 106/164/54 108/166/54
f 96/154/56 95/153/56 108/166/56 105/163/56
f 102/160/57 101/159/57 83/141/57 99/157/57
f 104/162/56 103/161/56 100/158/56 87/145/56
f 100/158/58 109/167/58 110/168/58 77/135/58
f 106/164/57 102/160/57 99/157/57 81/139/57
f 107/165/55 104/162/55 87/145/55 84/142/55
f 101/159/57 107/165/57 84/142/57 83/141/57
f 108/166/54 106/164/54 81/139/54 78/136/54
f 105/163/56 108/166/56 78/136/56 77/135/56
f 111/169/56 112/170/56 110/171/56 109/172/56
f 77/135/55 110/168/55 112/173/55 105/163/55
f 105/163/59 112/173/59 111/174/59 103/161/59
f 103/161/54 111/174/54 109/167/54 100/158/54
f 76/129/53 73/123/53 74/125/53 75/126/53
f 71/127/53 72/132/53 62/131/53 61/128/53
