# Blender v2.78 (sub 0) OBJ File: 'mesh_iv.blend'
# www.blender.org
mtllib mesh_iv.mtl
o Cube.009
v 0.041428 0.214489 -0.045827
v 0.041428 0.214489 0.053563
v -0.057962 0.214489 0.053563
v -0.057962 0.214489 -0.045827
v 0.041428 4.556655 -0.045827
v 0.041428 4.556655 0.053563
v -0.057962 4.556655 0.053563
v -0.057962 4.556655 -0.045827
v 0.060049 4.615549 -0.064448
v 0.060049 4.615549 0.072185
v -0.076583 4.615549 -0.064448
v -0.076583 4.615549 0.072184
v 0.060049 4.691132 -0.064448
v 0.060049 4.691132 0.072185
v -0.076583 4.691132 -0.064448
v -0.076583 4.691132 0.072184
v 0.736401 -0.010628 0.055925
v 0.736401 0.163191 0.055925
v 0.736401 -0.010628 -0.069413
v 0.736401 0.163191 -0.069413
v 0.910220 -0.010628 0.055925
v 0.910220 0.163191 0.055925
v 0.910220 -0.010628 -0.069413
v 0.910220 0.163191 -0.069413
v -0.952164 -0.016204 0.043299
v -0.952164 0.157615 0.043299
v -0.952164 -0.016204 -0.082039
v -0.952164 0.157615 -0.082039
v -0.778344 -0.016204 0.043299
v -0.778344 0.157615 0.043299
v -0.778344 -0.016204 -0.082039
v -0.778344 0.157615 -0.082039
v -0.989073 0.158128 0.088699
v -0.989073 0.222396 -0.097914
v -0.989073 0.222396 0.088699
v -0.989073 0.158128 -0.097914
v 0.957290 0.222396 0.088700
v 0.957290 0.164724 -0.097914
v 0.957290 0.164724 0.088700
v 0.957290 0.222396 -0.097914
v 0.046887 -0.010628 -0.765919
v 0.046887 0.163191 -0.765919
v -0.078451 -0.010628 -0.765919
v -0.078451 0.163191 -0.765919
v 0.046887 -0.010628 -0.939738
v 0.046887 0.163191 -0.939738
v -0.078451 -0.010628 -0.939738
v -0.078451 0.163191 -0.939738
v 0.034262 -0.016204 0.922645
v 0.034262 0.157615 0.922645
v -0.091076 -0.016204 0.922645
v -0.091076 0.157615 0.922645
v 0.034262 -0.016204 0.748826
v 0.034262 0.157615 0.748826
v -0.091076 -0.016204 0.748826
v -0.091076 0.157615 0.748826
v 0.079662 0.158128 0.959554
v -0.106952 0.222396 0.959554
v 0.079662 0.222396 0.959554
v -0.106952 0.158128 0.959554
v 0.079662 0.222396 -0.986809
v -0.106952 0.164724 -0.986809
v 0.079662 0.164724 -0.986809
v -0.106952 0.222396 -0.986809
v 0.651926 3.922270 0.343133
v 0.651926 4.609953 0.343133
v 0.589739 3.922270 0.343133
v 0.589739 4.609953 0.343133
v 0.651926 3.922270 -0.256686
v 0.651926 4.609953 -0.267972
v 0.589739 3.922270 -0.256686
v 0.589739 4.609953 -0.267972
v 0.589739 3.963401 -0.008113
v 0.589739 4.663339 -0.008113
v 0.651926 3.963401 -0.008113
v 0.651926 4.663339 -0.008113
v 0.651926 4.513179 0.343133
v 0.589739 4.513179 0.343133
v 0.589739 4.513179 -0.266761
v 0.651926 4.513179 -0.266761
v 0.651926 4.565250 -0.008113
v 0.589739 4.565250 -0.008113
v 0.589739 4.648788 -0.078940
v 0.651926 3.952191 -0.075864
v 0.589739 3.952191 -0.075864
v 0.651926 4.648788 -0.078940
v 0.651926 4.551058 -0.078610
v 0.589739 4.551058 -0.078610
v 0.589739 3.951743 0.091450
v 0.651926 4.648206 0.091450
v 0.589739 4.648206 0.091450
v 0.651926 3.951743 0.091450
v 0.589739 4.550490 0.091450
v 0.651926 4.550490 0.091450
v 0.651926 4.580787 0.343133
v 0.589739 4.580787 0.343133
v 0.589739 4.580787 -0.267607
v 0.651926 4.580787 -0.267607
v 0.651926 4.633777 -0.008113
v 0.589739 4.633777 -0.008113
v 0.651926 4.619334 -0.078840
v 0.589739 4.619334 -0.078840
v 0.589739 4.618756 0.091450
v 0.651926 4.618756 0.091450
v 0.696204 4.731452 -0.071344
v 0.696204 4.731452 0.082449
v -0.703021 4.731452 -0.071344
v -0.703021 4.731452 0.082449
v -0.665797 4.687284 0.082449
v -0.665797 4.687284 -0.071344
v -0.701578 4.576891 0.082449
v -0.701578 4.576891 -0.071344
v -0.665797 4.614505 -0.071344
v -0.665797 4.614505 0.082449
v -0.576514 4.576891 0.082449
v -0.576514 4.576891 -0.071344
v -0.576514 4.614505 0.082449
v -0.576514 4.614505 -0.071344
v 0.655024 4.687284 -0.071344
v 0.655024 4.687284 0.082449
v 0.696204 4.589300 -0.071344
v 0.696204 4.589300 0.082449
v 0.655024 4.622441 0.082449
v 0.655024 4.622441 -0.071344
v 0.579809 4.589300 0.082449
v 0.579809 4.589300 -0.071344
v 0.579809 4.622441 0.082449
v 0.579809 4.622441 -0.071344
vt 0.0000 0.0000
vt 0.0000 0.0000
vt 0.0000 0.0000
vt 0.0000 0.0000
vt 0.0000 0.0000
vt 0.0000 0.0000
vt 0.0000 0.0000
vt 0.0000 0.0000
vt 0.0000 0.0000
vt 0.0000 0.0000
vt 0.0000 0.0000
vt 0.0000 0.0000
vt 0.0000 0.0000
vt 0.0000 0.0000
vt 0.0000 0.0000
vt 0.0000 0.0000
vt 0.0000 0.0000
vt 0.0000 0.0000
vt 0.0000 0.0000
vt 0.0000 0.0000
vt 0.0000 0.0000
vt 0.0000 0.0000
vt 0.0000 0.0000
vt 0.0000 0.0000
vt 0.0000 0.0000
vt 0.0000 0.0000
vt 0.0000 0.0000
vt 0.0000 0.0000
vt 0.0000 0.0000
vt 0.0000 0.0000
vt 0.0000 0.0000
vt 0.0000 0.0000
vt 0.0000 0.0000
vt 0.0000 0.0000
vt 0.0000 0.0000
vt 0.0000 0.0000
vt 0.0000 0.0000
vt 0.0000 0.0000
vt 0.0000 0.0000
vt 0.0000 0.0000
vt 0.0000 0.0000
vt 0.0000 0.0000
vt 0.0000 0.0000
vt 0.0000 0.0000
vt 0.0000 0.0000
vt 0.0000 0.0000
vt 0.0000 0.0000
vt 0.0000 0.0000
vt 0.0000 0.0000
vt 0.0000 0.0000
vt 0.0000 0.0000
vt 0.0000 0.0000
vt 0.0000 0.0000
vt 0.0000 0.0000
vt 0.0000 0.0000
vt 0.0000 0.0000
vt 0.0000 0.0000
vt 0.0000 0.0000
vt 0.0000 0.0000
vt 0.0000 0.0000
vt 0.0000 0.0000
vt 0.0000 0.0000
vt 0.0000 0.0000
vt 0.0000 0.0000
vt 0.0000 0.0000
vt 0.0000 0.0000
vt 0.0000 0.0000
vt 0.0000 0.0000
vt 0.0000 0.0000
vt 0.0000 0.0000
vt 0.0000 0.0000
vt 0.0000 0.0000
vt 0.0000 0.0000
vt 0.0000 0.0000
vt 0.0000 0.0000
vt 0.0000 0.0000
vt 0.0000 0.0000
vt 0.0000 0.0000
vt 0.0000 0.0000
vt 0.0000 0.0000
vt 0.0000 0.0000
vt 0.0000 0.0000
vt 0.0000 0.0000
vt 0.0000 0.0000
vt 0.0000 0.0000
vt 0.0000 0.0000
vt 0.0000 0.0000
vt 0.0000 0.0000
vt 0.6739 0.4869
vt 0.6486 0.4869
vt 0.6486 0.4988
vt 0.6739 0.4988
vt 0.3927 0.7274
vt 0.2498 0.7247
vt 0.2539 0.7456
vt 0.3934 0.7463
vt 0.6993 0.4870
vt 0.6740 0.4870
vt 0.6740 0.4988
vt 0.6993 0.4988
vt 0.4450 0.7075
vt 0.4299 0.7064
vt 0.4287 0.7095
vt 0.4434 0.7061
vt 0.3680 0.7556
vt 0.3680 0.7809
vt 0.4425 0.7809
vt 0.4425 0.7556
vt 0.6486 0.6023
vt 0.6739 0.6023
vt 0.6486 0.6727
vt 0.6739 0.6727
vt 0.6739 0.6433
vt 0.6486 0.6433
vt 0.2993 0.7556
vt 0.2993 0.7809
vt 0.3401 0.7809
vt 0.3401 0.7556
vt 0.4102 0.7113
vt 0.4257 0.7181
vt 0.4251 0.7110
vt 0.4145 0.7091
vt 0.4627 0.7179
vt 0.4275 0.7390
vt 0.4308 0.7555
vt 0.4654 0.7338
vt 0.4642 0.2388
vt 0.3911 0.2458
vt 0.4158 0.6809
vt 0.4625 0.6777
vt 0.4242 0.6981
vt 0.4256 0.6985
vt 0.4218 0.6951
vt 0.4101 0.6999
vt 0.4275 0.6987
vt 0.4298 0.6999
vt 0.4306 0.7042
vt 0.4396 0.6968
vt 0.6993 0.2191
vt 0.6740 0.2191
vt 0.6740 0.4595
vt 0.6993 0.4595
vt 0.3388 0.2345
vt 0.1962 0.2191
vt 0.2410 0.6743
vt 0.3850 0.6860
vt 0.6739 0.2191
vt 0.6486 0.2191
vt 0.6486 0.4594
vt 0.6739 0.4594
vt 0.4230 0.6986
vt 0.4162 0.7046
vt 0.4167 0.7056
vt 0.4171 0.7070
vt 0.6486 0.7512
vt 0.6739 0.7512
vt 0.6484 0.2191
vt 0.6441 0.6511
vt 0.6412 0.6992
vt 0.6397 0.7194
vt 0.1962 0.7556
vt 0.1962 0.7809
vn 1.0000 0.0000 0.0000
vn 0.0000 -1.0000 0.0000
vn -0.0034 1.0000 0.0000
vn -1.0000 0.0000 0.0000
vn -0.0000 0.0000 1.0000
vn 0.0000 0.0000 -1.0000
vn 0.0000 1.0000 0.0034
vn 0.0000 1.0000 0.0000
vn 1.0000 0.0093 0.0000
vn -0.5773 0.5773 0.5773
vn 0.5773 0.5773 0.5773
vn 0.5773 0.5773 -0.5773
vn -0.5773 0.5773 -0.5773
vn -0.6880 0.2309 -0.6880
vn -0.6940 0.1917 -0.6940
vn -0.6940 0.1917 0.6940
vn -0.6880 0.2309 0.6880
vn 0.6880 0.2309 -0.6880
vn 0.6880 0.2309 0.6880
vn 0.6940 0.1917 0.6940
vn 0.7071 0.0000 0.7071
vn 0.7071 0.0000 -0.7071
vn 0.6940 0.1917 -0.6940
vn -0.7071 0.0000 0.7071
vn -0.7071 0.0000 -0.7071
vn 0.5773 -0.5773 0.5773
vn 0.5773 -0.5773 -0.5773
vn -0.5773 -0.5773 0.5773
vn -0.5773 -0.5773 -0.5773
vn 0.5857 -0.5283 -0.6147
vn -0.5857 -0.5283 -0.6147
vn 0.8805 0.2991 -0.3677
vn 0.7071 0.0088 0.7070
vn 0.5880 -0.5072 0.6300
vn 0.7071 -0.6926 0.1423
vn -0.7071 0.0088 0.7070
vn -0.5880 -0.5072 0.6300
vn -0.8865 0.3018 0.3507
vn -0.7071 -0.6991 -0.1062
vn 0.7071 0.6976 -0.1154
vn -0.7071 0.6976 -0.1154
vn -0.5700 0.6311 0.5261
vn 0.5700 0.6311 0.5261
vn 0.7071 -0.6991 -0.1062
vn -0.7071 -0.6926 0.1423
vn -0.6696 -0.7425 0.0192
vn 0.6696 -0.7425 0.0192
vn 0.7071 0.7023 0.0822
vn -0.7071 0.7023 0.0822
vn -0.7400 0.6724 -0.0159
vn 0.7400 0.6724 -0.0159
vn -0.8805 0.2991 -0.3677
vn -0.7486 0.6628 -0.0171
vn 0.8865 0.3018 0.3507
vn 0.7486 0.6628 -0.0171
vn 0.6703 -0.7418 0.0191
vn 0.9212 -0.2945 0.2541
vn -0.6703 -0.7418 0.0191
vn -0.9264 -0.2917 -0.2380
vn -0.5715 0.6131 -0.5455
vn -0.9212 -0.2945 0.2541
vn -0.7066 0.0104 0.7075
vn 0.7066 0.0104 0.7075
vn 0.9264 -0.2917 -0.2380
vn 0.5715 0.6131 -0.5455
usemtl Material.006
s off
f 34/1/1 35/2/1 33/3/1 36/4/1
f 37/5/2 35/2/2 34/1/2 40/6/2
f 38/7/3 36/4/3 33/3/3 39/8/3
f 37/5/4 40/6/4 38/7/4 39/8/4
f 38/7/5 40/6/5 34/1/5 36/4/5
f 37/5/6 39/8/6 33/3/6 35/2/6
f 58/9/6 59/10/6 57/11/6 60/12/6
f 61/13/2 59/10/2 58/9/2 64/14/2
f 62/15/7 60/12/7 57/11/7 63/16/7
f 61/13/5 64/14/5 62/15/5 63/16/5
f 62/15/1 64/14/1 58/9/1 60/12/1
f 61/13/4 63/16/4 57/11/4 59/10/4
f 106/17/4 105/18/4 121/19/4 122/20/4
f 121/19/8 126/21/8 125/22/8 122/20/8
f 115/23/6 111/24/6 114/25/6 117/26/6
f 111/24/9 112/27/9 107/28/9 108/29/9
f 111/24/6 108/29/6 109/30/6 114/25/6
f 113/31/5 110/32/5 107/28/5 112/27/5
f 109/30/4 110/32/4 113/31/4 114/25/4
f 115/23/8 116/33/8 112/27/8 111/24/8
f 117/26/4 118/34/4 116/33/4 115/23/4
f 112/27/5 116/33/5 118/34/5 113/31/5
f 114/25/2 113/31/2 118/34/2 117/26/2
f 109/30/8 120/35/8 119/36/8 110/32/8
f 120/35/6 106/17/6 122/20/6 123/37/6
f 124/38/5 128/39/5 126/21/5 121/19/5
f 106/17/2 108/29/2 107/28/2 105/18/2
f 119/36/5 124/38/5 121/19/5 105/18/5
f 119/36/1 120/35/1 123/37/1 124/38/1
f 128/39/1 127/40/1 125/22/1 126/21/1
f 122/20/6 125/22/6 127/40/6 123/37/6
f 124/38/2 123/37/2 127/40/2 128/39/2
f 108/29/6 106/17/6 120/35/6 109/30/6
f 105/18/5 107/28/5 110/32/5 119/36/5
s 1
f 1/41/10 4/42/11 3/43/12 2/44/13
f 6/45/14 10/46/15 9/47/16 5/48/17
f 1/41/10 2/44/13 6/45/14 5/48/17
f 2/44/13 3/43/12 7/49/18 6/45/14
f 3/43/12 4/42/11 8/50/19 7/49/18
f 5/48/17 8/50/19 4/42/11 1/41/10
f 11/51/20 15/52/21 16/53/22 12/54/23
f 8/50/19 11/51/20 12/54/23 7/49/18
f 5/48/17 9/47/16 11/51/20 8/50/19
f 7/49/18 12/54/23 10/46/15 6/45/14
f 9/47/16 13/55/24 15/52/21 11/51/20
f 12/54/23 16/53/22 14/56/25 10/46/15
f 10/46/15 14/56/25 13/55/24 9/47/16
f 17/57/12 19/58/11 20/59/26 18/60/27
f 19/58/11 23/61/10 24/62/28 20/59/26
f 23/61/10 21/63/13 22/64/29 24/62/28
f 21/63/13 17/57/12 18/60/27 22/64/29
f 19/58/11 17/57/12 21/63/13 23/61/10
f 24/62/28 22/64/29 18/60/27 20/59/26
f 25/65/12 27/66/11 28/67/26 26/68/27
f 27/66/11 31/69/10 32/70/28 28/67/26
f 31/69/10 29/71/13 30/72/29 32/70/28
f 29/71/13 25/65/12 26/68/27 30/72/29
f 27/66/11 25/65/12 29/71/13 31/69/10
f 32/70/28 30/72/29 26/68/27 28/67/26
f 41/73/13 43/74/12 44/75/27 42/76/29
f 43/74/12 47/77/11 48/78/26 44/75/27
f 47/77/11 45/79/10 46/80/28 48/78/26
f 45/79/10 41/73/13 42/76/29 46/80/28
f 43/74/12 41/73/13 45/79/10 47/77/11
f 48/78/26 46/80/28 42/76/29 44/75/27
f 49/81/13 51/82/12 52/83/27 50/84/29
f 51/82/12 55/85/11 56/86/26 52/83/27
f 55/85/11 53/87/10 54/88/28 56/86/26
f 53/87/10 49/81/13 50/84/29 54/88/28
f 51/82/12 49/81/13 53/87/10 55/85/11
f 56/86/26 54/88/28 50/84/29 52/83/27
f 95/89/25 96/90/22 68/91/30 66/92/31
f 102/93/32 97/94/33 72/95/34 83/96/35
f 97/97/33 98/98/36 70/99/37 72/100/34
f 104/101/38 95/102/25 66/103/31 90/104/39
f 85/105/40 84/106/41 69/107/42 71/108/43
f 91/109/44 90/110/39 66/92/31 68/91/30
f 83/111/35 86/112/45 76/113/46 74/114/47
f 89/115/48 92/116/49 75/117/50 73/118/51
f 101/119/52 99/120/53 76/121/46 86/122/45
f 103/123/54 100/124/55 74/125/47 91/126/44
f 89/127/48 73/128/51 82/129/56 93/130/57
f 84/131/41 75/132/50 81/133/58 87/134/59
f 92/135/49 65/136/60 77/137/25 94/138/61
f 71/139/43 69/140/42 80/141/62 79/142/63
f 85/143/40 71/144/43 79/145/63 88/146/64
f 65/147/60 67/148/65 78/149/22 77/150/25
f 73/128/51 85/143/40 88/146/64 82/129/56
f 69/151/42 84/131/41 87/134/59 80/152/62
f 98/153/36 101/119/52 86/122/45 70/154/37
f 72/155/34 70/156/37 86/112/45 83/111/35
f 73/118/51 75/117/50 84/106/41 85/105/40
f 100/124/55 102/93/32 83/96/35 74/125/47
f 75/132/50 92/135/49 94/138/61 81/133/58
f 67/157/65 89/127/48 93/130/57 78/158/22
f 96/159/22 103/123/54 91/126/44 68/160/30
f 67/161/65 65/162/60 92/116/49 89/115/48
f 74/114/47 76/113/46 90/110/39 91/109/44
f 99/120/53 104/101/38 90/104/39 76/121/46
f 100/124/55 103/123/54 104/101/38 99/120/53
f 78/158/22 93/130/57 103/123/54 96/159/22
f 87/134/59 81/133/58 82/129/56 88/146/64
f 80/152/62 87/134/59 101/119/52 98/153/36
f 102/93/32 101/119/52 87/134/59 88/146/64
f 99/120/53 101/119/52 102/93/32 100/124/55
f 94/138/61 77/137/25 95/102/25 104/101/38
f 79/142/63 80/141/62 98/98/36 97/97/33
f 88/146/64 79/145/63 97/94/33 102/93/32
f 77/150/25 78/149/22 96/90/22 95/89/25
f 93/130/57 94/138/61 104/101/38 103/123/54
f 93/130/57 82/129/56 81/133/58 94/138/61
