# Blender v2.78 (sub 0) OBJ File: 'mesh_crashcart2.blend'
# www.blender.org
mtllib mesh_crashcart.mtl
o Cube.001
v 0.770559 -0.027292 1.015016
v 0.770559 0.277542 1.015016
v 0.770559 -0.027292 0.719015
v 0.770559 0.277542 0.719015
v 1.012515 -0.027292 1.015016
v 1.012515 0.277542 1.015016
v 1.012515 -0.027292 0.719015
v 1.012515 0.277542 0.719015
v -1.010154 -0.027292 1.015016
v -1.010154 0.277542 1.015016
v -1.010154 -0.027292 0.719015
v -1.010154 0.277542 0.719015
v -0.768198 -0.027292 1.015016
v -0.768198 0.277542 1.015016
v -0.768198 -0.027292 0.719015
v -0.768198 0.277542 0.719015
v -1.015983 -0.027292 -0.718518
v -1.015983 0.277542 -0.718518
v -1.015983 -0.027292 -1.014520
v -1.015983 0.277542 -1.014520
v -0.774026 -0.027292 -0.718518
v -0.774026 0.277542 -0.718518
v -0.774026 -0.027292 -1.014520
v -0.774026 0.277542 -1.014520
v 0.771805 -0.027292 -0.718518
v 0.771805 0.277542 -0.718518
v 0.771805 -0.027292 -1.014520
v 0.771805 0.277542 -1.014520
v 1.013762 -0.027292 -0.718518
v 1.013762 0.277542 -0.718518
v 1.013762 -0.027292 -1.014520
v 1.013762 0.277542 -1.014520
v -0.189536 1.667727 -1.173573
v -0.189536 1.729948 -1.173573
v 0.238172 1.667727 -1.173573
v 0.238172 1.729948 -1.173573
v -0.134512 1.667727 -1.112336
v -0.134512 1.729948 -1.112336
v 0.179630 1.667727 -1.112336
v 0.179630 1.729948 -1.112336
v -0.134512 1.729948 -1.112336
v -0.134512 1.667727 -1.112336
v 0.238172 1.667727 -1.011486
v 0.238172 1.729948 -1.011486
v 0.179630 1.729948 -1.011486
v 0.179630 1.667727 -1.011486
v -0.134512 1.667727 -1.011486
v -0.134512 1.729948 -1.011486
v -0.189536 1.729948 -1.011486
v -0.189536 1.667727 -1.011486
v -0.189536 1.960989 -1.173573
v -0.189536 2.023210 -1.173573
v 0.238172 1.960989 -1.173573
v 0.238172 2.023210 -1.173573
v -0.134512 1.960989 -1.112336
v -0.134512 2.023210 -1.112336
v 0.179630 1.960989 -1.112336
v 0.179630 2.023210 -1.112336
v -0.134512 2.023210 -1.112336
v -0.134512 1.960989 -1.112336
v 0.238172 1.960989 -1.011486
v 0.238172 2.023210 -1.011486
v 0.179630 2.023210 -1.011486
v 0.179630 1.960989 -1.011486
v -0.134512 1.960989 -1.011486
v -0.134512 2.023210 -1.011486
v -0.189536 2.023210 -1.011486
v -0.189536 1.960989 -1.011486
v -0.189536 2.220675 -1.173573
v -0.189536 2.282896 -1.173573
v 0.238172 2.220675 -1.173573
v 0.238172 2.282896 -1.173573
v -0.134512 2.220675 -1.112336
v -0.134512 2.282896 -1.112336
v 0.179630 2.220675 -1.112336
v 0.179630 2.282896 -1.112336
v -0.134512 2.282896 -1.112336
v -0.134512 2.220675 -1.112336
v 0.238172 2.220675 -1.011486
v 0.238172 2.282896 -1.011486
v 0.179630 2.282896 -1.011486
v 0.179630 2.220675 -1.011486
v -0.134512 2.220675 -1.011486
v -0.134512 2.282896 -1.011486
v -0.189536 2.282896 -1.011486
v -0.189536 2.220675 -1.011486
v 1.015112 0.271506 -1.015112
v 1.015112 0.271506 1.015112
v -1.015112 0.271506 1.015112
v -1.015111 0.271506 -1.015112
v 1.015112 2.623817 -1.015111
v 1.015111 2.623817 1.015113
v -1.015112 2.623817 1.015112
v -1.015112 2.623817 -1.015112
vn 0.0000 -1.0000 0.0000
vn -1.0000 0.0000 0.0000
vn 0.0000 1.0000 0.0000
vn 0.0000 0.0000 1.0000
vn 1.0000 0.0000 0.0000
vn 0.0000 0.0000 -1.0000
vn -0.5773 -0.5773 0.5773
vn -0.7071 0.0000 0.7071
vn -0.7071 0.0000 -0.7071
vn -0.5773 -0.5773 -0.5773
vn 0.7071 0.0000 -0.7071
vn 0.5773 -0.5773 -0.5773
vn 0.7071 0.0000 0.7071
vn 0.5773 -0.5773 0.5773
usemtl Material
s off
f 35//1 39//1 42//1 33//1
f 46//1 39//1 35//1 43//1
f 49//2 34//2 33//2 50//2
f 49//3 48//3 41//3 34//3
f 39//4 40//4 38//4 37//4
f 44//3 36//3 40//3 45//3
f 35//5 36//5 44//5 43//5
f 36//3 34//3 41//3 40//3
f 37//4 38//4 41//4 42//4
f 39//2 46//2 45//2 40//2
f 41//5 48//5 47//5 42//5
f 36//6 35//6 33//6 34//6
f 47//1 50//1 33//1 42//1
f 53//1 57//1 60//1 51//1
f 64//1 57//1 53//1 61//1
f 67//2 52//2 51//2 68//2
f 67//3 66//3 59//3 52//3
f 57//4 58//4 56//4 55//4
f 62//3 54//3 58//3 63//3
f 53//5 54//5 62//5 61//5
f 54//3 52//3 59//3 58//3
f 55//4 56//4 59//4 60//4
f 57//2 64//2 63//2 58//2
f 59//5 66//5 65//5 60//5
f 54//6 53//6 51//6 52//6
f 65//1 68//1 51//1 60//1
f 71//1 75//1 78//1 69//1
f 82//1 75//1 71//1 79//1
f 85//2 70//2 69//2 86//2
f 85//3 84//3 77//3 70//3
f 75//4 76//4 74//4 73//4
f 80//3 72//3 76//3 81//3
f 71//5 72//5 80//5 79//5
f 72//3 70//3 77//3 76//3
f 73//4 74//4 77//4 78//4
f 75//2 82//2 81//2 76//2
f 77//5 84//5 83//5 78//5
f 72//6 71//6 69//6 70//6
f 83//1 86//1 69//1 78//1
f 87//1 88//1 89//1 90//1
f 91//3 94//3 93//3 92//3
f 87//5 91//5 92//5 88//5
f 88//4 92//4 93//4 89//4
f 89//2 93//2 94//2 90//2
f 91//6 87//6 90//6 94//6
s 1
f 1//7 2//8 4//9 3//10
f 3//10 4//9 8//11 7//12
f 7//12 8//11 6//13 5//14
f 5//14 6//13 2//8 1//7
f 3//10 7//12 5//14 1//7
f 9//7 10//8 12//9 11//10
f 11//10 12//9 16//11 15//12
f 15//12 16//11 14//13 13//14
f 13//14 14//13 10//8 9//7
f 11//10 15//12 13//14 9//7
f 17//7 18//8 20//9 19//10
f 19//10 20//9 24//11 23//12
f 23//12 24//11 22//13 21//14
f 21//14 22//13 18//8 17//7
f 19//10 23//12 21//14 17//7
f 25//7 26//8 28//9 27//10
f 27//10 28//9 32//11 31//12
f 31//12 32//11 30//13 29//14
f 29//14 30//13 26//8 25//7
f 27//10 31//12 29//14 25//7
