# Blender v2.78 (sub 0) OBJ File: ''
# www.blender.org
mtllib wall_thickv2.mtl
o Cube.025_Cube.026
v 0.148751 0.000292 -1.988573
v 0.148750 6.000292 -1.988571
v 2.148750 6.000292 -1.988572
v 2.148751 0.000293 -1.988574
v 2.148750 6.000291 0.011428
v 2.148751 0.000292 0.011426
v 0.148750 6.000291 0.011429
v 0.148751 0.000292 0.011427
vt 0.0002 0.5002
vt 0.7489 0.5002
vt 0.7489 0.7498
vt 0.0002 0.7498
vt 0.0002 0.0002
vt 0.7489 0.0002
vt 0.7489 0.2498
vt 0.0002 0.2498
vt 0.0002 0.2502
vt 0.7489 0.2502
vt 0.7489 0.4998
vt 0.0002 0.4998
vt 0.0002 0.7502
vt 0.7489 0.7502
vt 0.7489 0.9998
vt 0.0002 0.9998
vt 0.7493 0.0002
vt 0.9989 0.0002
vt 0.9989 0.2498
vt 0.7493 0.2498
vt 0.9989 0.2502
vt 0.9989 0.4998
vt 0.7493 0.4998
vt 0.7493 0.2502
vn -0.0000 0.0000 -1.0000
vn 1.0000 0.0000 -0.0000
vn 0.0000 -0.0000 1.0000
vn -1.0000 -0.0000 0.0000
vn 0.0000 -1.0000 -0.0000
vn 0.0000 1.0000 0.0000
usemtl Material.001
s 1
f 1/1/1 2/2/1 3/3/1 4/4/1
f 4/5/2 3/6/2 5/7/2 6/8/2
f 6/9/3 5/10/3 7/11/3 8/12/3
f 8/13/4 7/14/4 2/15/4 1/16/4
f 4/17/5 6/18/5 8/19/5 1/20/5
f 5/21/6 3/22/6 2/23/6 7/24/6
