# Blender v2.78 (sub 0) OBJ File: 'mesh_bigwall.blend'
# www.blender.org
mtllib mesh_wall.mtl
o Cube
v 1.999999 0.000000 -1.999999
v 1.999999 0.000000 1.999999
v -1.999999 0.000000 1.999999
v -1.999998 0.000000 -2.000000
v 2.000000 12.304197 -1.999998
v 1.999998 12.304197 2.000000
v -2.000000 12.304197 1.999998
v -1.999999 12.304197 -1.999999
vt 0.2498 0.9288
vt 0.0002 0.9288
vt 0.0002 0.6792
vt 0.2498 0.6792
vt 0.2498 0.0002
vt 0.2498 0.6788
vt 0.0002 0.6788
vt 0.0002 0.0002
vt 0.4998 0.0002
vt 0.4998 0.6788
vt 0.2502 0.6788
vt 0.2502 0.0002
vt 0.9998 0.0002
vt 0.9998 0.6788
vt 0.7502 0.6788
vt 0.7502 0.0002
vt 0.5002 0.6788
vt 0.5002 0.0002
vt 0.7498 0.0002
vt 0.7498 0.6788
vn 0.0000 1.0000 0.0000
vn 1.0000 0.0000 0.0000
vn -0.0000 -0.0000 1.0000
vn -1.0000 -0.0000 -0.0000
vn 0.0000 0.0000 -1.0000
usemtl Material.001
s off
f 5/1/1 8/2/1 7/3/1 6/4/1
f 1/5/2 5/6/2 6/7/2 2/8/2
f 2/9/3 6/10/3 7/11/3 3/12/3
f 3/13/4 7/14/4 8/15/4 4/16/4
f 5/17/5 1/18/5 4/19/5 8/20/5
