# Blender v2.78 (sub 0) OBJ File: 'mesh_trashcan.blend'
# www.blender.org
mtllib mesh_trashcan.mtl
o Cube.010_Cube.003
v 0.798993 -0.017672 -0.488829
v 0.798993 -0.017672 0.577267
v -0.774265 -0.017672 0.577267
v -0.774265 -0.017672 -0.488830
v 0.798993 1.749794 -0.648804
v 0.798992 1.749794 0.726631
v -0.774266 1.749794 0.726631
v -0.774265 1.749794 -0.648804
v 0.675826 1.749794 -0.521259
v -0.641358 1.749794 -0.521259
v 0.675826 1.749794 0.590651
v -0.641359 1.749794 0.590651
v -0.641358 0.255308 -0.456846
v 0.675826 0.255308 -0.456846
v 0.675826 0.255308 0.546261
v -0.641359 0.255308 0.546261
vn 0.0000 1.0000 -0.0000
vn -0.0000 -0.0842 0.9964
vn -1.0000 -0.0000 -0.0000
vn 0.0000 -1.0000 0.0000
vn 1.0000 0.0000 0.0000
vn -0.0000 0.0431 0.9991
vn 0.0000 -0.0901 -0.9959
vn 0.0000 0.0297 -0.9996
usemtl Material.007
s off
f 6//1 5//1 9//1 11//1
f 7//1 12//1 10//1 8//1
f 6//2 7//2 3//2 2//2
f 7//3 8//3 4//3 3//3
f 1//4 2//4 3//4 4//4
f 6//1 11//1 12//1 7//1
f 2//5 1//5 5//5 6//5
f 9//6 10//6 13//6 14//6
f 5//7 1//7 4//7 8//7
f 10//1 9//1 5//1 8//1
f 14//1 13//1 16//1 15//1
f 11//3 9//3 14//3 15//3
f 10//5 12//5 16//5 13//5
f 12//8 11//8 15//8 16//8
