# Blender v2.78 (sub 0) OBJ File: 'mesh_monitor_screen.blend'
# www.blender.org
mtllib mesh_monitor_screen.mtl
o Plane
v -0.830544 3.378265 -0.103499
v 0.747988 3.378265 -0.103499
v -0.830544 4.687346 -0.103499
v 0.747988 4.687346 -0.103499
vt 0.0001 0.0001
vt 0.9999 0.0001
vt 0.9999 0.8292
vt 0.0001 0.8292
vn 0.0000 -0.0000 1.0000
usemtl None
s off
f 1/1/1 2/2/1 4/3/1 3/4/1
o Cylinder.003
v 1.134139 0.516553 -0.803245
v 1.265177 0.516553 -0.803245
v 1.134139 0.516918 -1.035968
v 1.265177 0.516918 -1.035968
v 1.134139 0.325945 -1.149147
v 1.265177 0.325945 -1.149147
v 1.134139 0.131645 -1.058811
v 1.265177 0.131645 -1.058811
v 1.134139 0.131166 -0.803159
v 1.265177 0.131166 -0.803159
v 1.134139 0.329179 -0.697930
v 1.265177 0.329179 -0.697930
vt 0.5680 0.6162
vt 0.4949 0.4615
vt 0.5824 0.3110
vt 0.7591 0.3381
vt 0.2312 0.6018
vt 0.3069 0.4624
vt 0.0408 0.3103
vt 0.2248 0.3073
vt 0.2255 0.0055
vt 0.3107 0.1569
vt 0.6229 0.0061
vt 0.5052 0.1503
vt 0.9347 0.7989
vt 0.8408 0.9998
vt 0.8179 0.6010
vt 0.4676 0.7947
vt 0.5769 0.6009
vt 0.5761 0.9998
vt 0.1088 0.6009
vt 0.1095 0.9998
vt 0.0002 0.8060
vt 0.4673 0.8020
vt 0.3504 0.9998
vt 0.3734 0.6010
vn -0.6107 0.6883 -0.3915
vn 0.6107 0.6883 -0.3915
vn 0.6156 0.0393 -0.7870
vn -0.6156 0.0393 -0.7870
vn -0.6093 0.6841 0.4010
vn 0.6093 0.6841 0.4010
vn -0.6134 0.0093 0.7897
vn 0.6134 0.0093 0.7897
vn -0.6073 -0.6813 0.4086
vn 0.6073 -0.6813 0.4086
vn -0.6039 -0.6716 -0.4293
vn 0.6039 -0.6716 -0.4293
usemtl None
s 1
f 7/5/2 8/6/3 10/7/4 9/8/5
f 5/9/6 6/10/7 8/6/3 7/5/2
f 5/9/6 15/11/8 16/12/9 6/10/7
f 13/13/10 14/14/11 16/12/9 15/11/8
f 11/15/12 12/16/13 14/14/11 13/13/10
f 9/8/5 10/7/4 12/16/13 11/15/12
f 9/17/5 11/18/12 7/19/2
f 15/20/8 5/21/6 13/22/10
f 14/23/11 6/24/7 16/25/9
f 11/18/12 13/22/10 5/21/6 7/19/2
f 10/26/4 8/27/3 12/28/13
f 12/28/13 8/27/3 6/24/7 14/23/11
o Cylinder.002
v -1.292379 0.516553 -0.803245
v -1.161342 0.516553 -0.803245
v -1.292379 0.516918 -1.035968
v -1.161342 0.516918 -1.035968
v -1.292379 0.325945 -1.149147
v -1.161342 0.325945 -1.149147
v -1.292379 0.131645 -1.058811
v -1.161342 0.131645 -1.058811
v -1.292379 0.131166 -0.803159
v -1.161342 0.131166 -0.803159
v -1.292379 0.329179 -0.697930
v -1.161342 0.329179 -0.697930
vt 0.5680 0.6162
vt 0.4949 0.4615
vt 0.5824 0.3110
vt 0.7591 0.3381
vt 0.2312 0.6018
vt 0.3069 0.4624
vt 0.0408 0.3103
vt 0.2248 0.3073
vt 0.2255 0.0055
vt 0.3107 0.1569
vt 0.6229 0.0061
vt 0.5052 0.1503
vt 0.9347 0.7989
vt 0.8408 0.9998
vt 0.8179 0.6010
vt 0.4676 0.7947
vt 0.5769 0.6009
vt 0.5761 0.9998
vt 0.1088 0.6009
vt 0.1095 0.9998
vt 0.0002 0.8060
vt 0.4673 0.8020
vt 0.3504 0.9998
vt 0.3734 0.6010
vn -0.6107 0.6883 -0.3915
vn 0.6107 0.6883 -0.3915
vn 0.6156 0.0393 -0.7870
vn -0.6156 0.0393 -0.7870
vn -0.6093 0.6841 0.4010
vn 0.6093 0.6841 0.4010
vn -0.6134 0.0093 0.7897
vn 0.6134 0.0093 0.7897
vn -0.6073 -0.6813 0.4086
vn 0.6073 -0.6813 0.4086
vn -0.6039 -0.6716 -0.4293
vn 0.6039 -0.6716 -0.4293
usemtl None
s 1
f 19/29/14 20/30/15 22/31/16 21/32/17
f 17/33/18 18/34/19 20/30/15 19/29/14
f 17/33/18 27/35/20 28/36/21 18/34/19
f 25/37/22 26/38/23 28/36/21 27/35/20
f 23/39/24 24/40/25 26/38/23 25/37/22
f 21/32/17 22/31/16 24/40/25 23/39/24
f 21/41/17 23/42/24 19/43/14
f 27/44/20 17/45/18 25/46/22
f 26/47/23 18/48/19 28/49/21
f 23/42/24 25/46/22 17/45/18 19/43/14
f 22/50/16 20/51/15 24/52/25
f 24/52/25 20/51/15 18/48/19 26/47/23
o Cylinder.001
v -1.292379 0.516553 0.932041
v -1.161342 0.516553 0.932041
v -1.292379 0.516918 0.699319
v -1.161342 0.516918 0.699319
v -1.292379 0.325945 0.586139
v -1.161342 0.325945 0.586139
v -1.292379 0.131645 0.676476
v -1.161342 0.131645 0.676476
v -1.292379 0.131166 0.932128
v -1.161342 0.131166 0.932128
v -1.292379 0.329179 1.037357
v -1.161342 0.329179 1.037357
vt 0.5680 0.6162
vt 0.4949 0.4615
vt 0.5824 0.3110
vt 0.7591 0.3381
vt 0.2312 0.6018
vt 0.3069 0.4624
vt 0.0408 0.3103
vt 0.2248 0.3073
vt 0.2255 0.0055
vt 0.3107 0.1569
vt 0.6229 0.0061
vt 0.5052 0.1503
vt 0.9347 0.7989
vt 0.8408 0.9998
vt 0.8179 0.6010
vt 0.4676 0.7947
vt 0.5769 0.6009
vt 0.5761 0.9998
vt 0.1088 0.6009
vt 0.1095 0.9998
vt 0.0002 0.8060
vt 0.4673 0.8020
vt 0.3504 0.9998
vt 0.3734 0.6010
vn -0.6107 0.6883 -0.3915
vn 0.6107 0.6883 -0.3915
vn 0.6156 0.0393 -0.7870
vn -0.6156 0.0393 -0.7870
vn -0.6093 0.6841 0.4010
vn 0.6093 0.6841 0.4010
vn -0.6134 0.0093 0.7897
vn 0.6134 0.0093 0.7897
vn -0.6073 -0.6813 0.4086
vn 0.6073 -0.6813 0.4086
vn -0.6039 -0.6716 -0.4293
vn 0.6039 -0.6716 -0.4293
usemtl None
s 1
f 31/53/26 32/54/27 34/55/28 33/56/29
f 29/57/30 30/58/31 32/54/27 31/53/26
f 29/57/30 39/59/32 40/60/33 30/58/31
f 37/61/34 38/62/35 40/60/33 39/59/32
f 35/63/36 36/64/37 38/62/35 37/61/34
f 33/56/29 34/55/28 36/64/37 35/63/36
f 33/65/29 35/66/36 31/67/26
f 39/68/32 29/69/30 37/70/34
f 38/71/35 30/72/31 40/73/33
f 35/66/36 37/70/34 29/69/30 31/67/26
f 34/74/28 32/75/27 36/76/37
f 36/76/37 32/75/27 30/72/31 38/71/35
o Cube.004_Cube.007
v -0.812533 0.663229 0.580832
v -0.812533 1.345194 0.580832
v -0.812533 0.663229 -0.200419
v -0.812533 1.345194 -0.200419
v 0.784536 0.663229 0.580832
v 0.784536 1.345194 0.580832
v 0.784536 0.663229 -0.200419
v 0.784536 1.345194 -0.200419
vt 0.2304 0.9882
vt 0.0001 0.9882
vt 0.0001 0.7244
vt 0.2304 0.7244
vt 0.2304 0.4942
vt 0.7696 0.4942
vt 0.7696 0.7244
vt 0.9999 0.7244
vt 0.9999 0.9882
vt 0.7696 0.9882
vt 0.7696 0.0001
vt 0.7696 0.2304
vt 0.2304 0.2304
vt 0.2304 0.0001
vn -1.0000 0.0000 0.0000
vn 0.0000 0.0000 -1.0000
vn 1.0000 0.0000 0.0000
vn 0.0000 0.0000 1.0000
vn 0.0000 -1.0000 0.0000
vn 0.0000 1.0000 0.0000
usemtl None
s off
f 41/77/38 42/78/38 44/79/38 43/80/38
f 43/80/39 44/81/39 48/82/39 47/83/39
f 47/83/40 48/84/40 46/85/40 45/86/40
f 45/87/41 46/88/41 42/89/41 41/90/41
f 43/80/42 47/83/42 45/86/42 41/77/42
f 48/82/43 44/81/43 42/89/43 46/88/43
o BezierCircle
v 1.278969 2.972846 -4.190485
v 1.199057 2.972846 -4.110572
v 1.119144 2.972846 -4.190485
v 1.199057 2.972846 -4.270397
l 49 50
l 50 51
l 51 52
l 52 49
o NurbsPath
v 0.568985 0.858636 -0.126647
v 0.528862 0.817519 -0.131867
v 0.491247 0.856694 -0.151313
v 0.531370 0.897811 -0.146093
v 0.636574 0.819551 -0.581414
v 0.595772 0.778778 -0.582088
v 0.555000 0.819551 -0.580400
v 0.595802 0.860325 -0.579727
v 0.580373 0.866577 -0.904617
v 0.539489 0.825902 -0.905945
v 0.501001 0.863934 -0.885946
v 0.541885 0.904609 -0.884618
v 0.515847 0.952168 -1.105719
v 0.471926 0.917033 -1.118531
v 0.436903 0.948746 -1.085434
v 0.480824 0.983881 -1.072622
v 0.489036 1.076214 -1.215569
v 0.441615 1.056370 -1.241745
v 0.409314 1.076188 -1.198253
v 0.456735 1.096032 -1.172077
v 0.479879 1.288489 -1.275192
v 0.431549 1.280940 -1.305769
v 0.400114 1.289045 -1.258084
v 0.448444 1.296593 -1.227507
v 0.471521 1.612772 -1.309918
v 0.423045 1.610571 -1.341110
v 0.391797 1.611824 -1.292637
v 0.440273 1.614025 -1.261444
v 0.466114 1.975096 -1.299476
v 0.417564 1.979691 -1.330290
v 0.386409 1.972392 -1.282292
v 0.434959 1.967796 -1.251478
v 0.470035 2.281411 -1.214218
v 0.421570 2.294917 -1.242440
v 0.390303 2.275872 -1.197860
v 0.438768 2.262366 -1.169638
v 0.476897 2.505626 -1.073459
v 0.428454 2.522558 -1.099809
v 0.397136 2.495651 -1.059524
v 0.445579 2.478719 -1.033173
v 0.467395 2.689300 -0.946456
v 0.419509 2.698437 -0.977297
v 0.388035 2.673719 -0.935750
v 0.435921 2.664581 -0.904910
v 0.431793 2.869493 -0.887938
v 0.385657 2.867488 -0.922509
v 0.352562 2.853091 -0.877507
v 0.398698 2.855096 -0.842936
v 0.398898 3.063838 -0.877770
v 0.352805 3.061491 -0.912377
v 0.318379 3.057549 -0.866258
v 0.364471 3.059895 -0.831650
v 0.403374 3.290944 -0.876440
v 0.357322 3.299152 -0.910198
v 0.322898 3.295925 -0.864021
v 0.368950 3.287717 -0.830263
v 0.438835 3.531509 -0.813765
v 0.394354 3.555207 -0.841829
v 0.358114 3.534073 -0.802234
v 0.402595 3.510374 -0.774171
v 0.455018 3.715667 -0.585439
v 0.411204 3.750274 -0.599946
v 0.373723 3.708848 -0.585568
v 0.417536 3.674241 -0.571061
vn 0.9878 -0.0413 0.1502
vn 0.9989 -0.0452 -0.0130
vn 0.0766 0.9966 0.0286
vn 0.0781 0.9942 -0.0742
vn 0.0663 -0.9932 0.0954
vn 0.0668 -0.9973 -0.0298
vn -0.9887 -0.0422 -0.1434
vn -0.9982 -0.0584 0.0105
vn 0.9701 -0.0184 -0.2420
vn 0.0583 0.9653 0.2546
vn -0.0043 -0.9634 -0.2681
vn -0.9732 -0.0884 0.2121
vn 0.9509 -0.0432 -0.3063
vn 0.0909 0.8187 0.5669
vn -0.1262 -0.8194 -0.5592
vn -0.9739 -0.1176 0.1941
vn 0.9528 -0.0508 -0.2992
vn 0.1763 0.4856 0.8562
vn -0.1917 -0.4873 -0.8519
vn -0.9908 -0.0508 0.1250
vn 0.9695 -0.0149 -0.2447
vn 0.2112 0.1909 0.9586
vn -0.2028 -0.1931 -0.9600
vn -0.9849 -0.0017 0.1730
vn 0.9704 0.0104 -0.2411
vn 0.2153 0.0425 0.9756
vn -0.2073 -0.0421 -0.9774
vn -0.9832 -0.0128 0.1819
vn 0.9640 0.0412 -0.2626
vn 0.2193 -0.1454 0.9648
vn -0.2083 0.1463 -0.9670
vn -0.9872 -0.0248 0.1574
vn 0.9620 0.0929 -0.2567
vn 0.2228 -0.3983 0.8898
vn -0.2017 0.3992 -0.8943
vn -0.9889 -0.0423 0.1422
vn 0.9763 0.1259 -0.1761
vn 0.2269 -0.5350 0.8138
vn -0.1936 0.5395 -0.8194
vn -0.9791 -0.1184 0.1653
vn 0.9841 0.1626 -0.0711
vn 0.2174 -0.4113 0.8852
vn -0.1809 0.4190 -0.8897
vn -0.9557 -0.2200 0.1955
vn 0.9789 0.1912 -0.0720
vn 0.1481 -0.1550 0.9767
vn -0.1748 0.1486 -0.9733
vn -0.9610 -0.2091 0.1810
vn 0.9876 0.0770 -0.1368
vn 0.1014 -0.0231 0.9946
vn -0.1853 0.0166 -0.9825
vn -0.9864 -0.0771 0.1451
vn 0.9759 -0.0494 -0.2123
vn 0.1222 -0.1377 0.9829
vn -0.1603 0.1438 -0.9765
vn -0.9927 0.0698 0.0979
vn 0.9686 0.0418 -0.2450
vn 0.1422 -0.5494 0.8233
vn -0.0717 0.5504 -0.8318
vn -0.9936 0.1115 0.0199
vn 0.9721 0.1438 -0.1851
vn 0.1210 -0.7767 0.6181
vn -0.0235 0.7791 -0.6265
vn -0.9967 0.0804 0.0065
usemtl None
s 1
f 53//44 57//45 60//46 56//47
f 54//48 58//49 57//45 53//44
f 55//50 59//51 58//49 54//48
f 56//47 60//46 59//51 55//50
f 57//45 61//52 64//53 60//46
f 58//49 62//54 61//52 57//45
f 59//51 63//55 62//54 58//49
f 60//46 64//53 63//55 59//51
f 61//52 65//56 68//57 64//53
f 62//54 66//58 65//56 61//52
f 63//55 67//59 66//58 62//54
f 64//53 68//57 67//59 63//55
f 65//56 69//60 72//61 68//57
f 66//58 70//62 69//60 65//56
f 67//59 71//63 70//62 66//58
f 68//57 72//61 71//63 67//59
f 69//60 73//64 76//65 72//61
f 70//62 74//66 73//64 69//60
f 71//63 75//67 74//66 70//62
f 72//61 76//65 75//67 71//63
f 73//64 77//68 80//69 76//65
f 74//66 78//70 77//68 73//64
f 75//67 79//71 78//70 74//66
f 76//65 80//69 79//71 75//67
f 77//68 81//72 84//73 80//69
f 78//70 82//74 81//72 77//68
f 79//71 83//75 82//74 78//70
f 80//69 84//73 83//75 79//71
f 81//72 85//76 88//77 84//73
f 82//74 86//78 85//76 81//72
f 83//75 87//79 86//78 82//74
f 84//73 88//77 87//79 83//75
f 85//76 89//80 92//81 88//77
f 86//78 90//82 89//80 85//76
f 87//79 91//83 90//82 86//78
f 88//77 92//81 91//83 87//79
f 89//80 93//84 96//85 92//81
f 90//82 94//86 93//84 89//80
f 91//83 95//87 94//86 90//82
f 92//81 96//85 95//87 91//83
f 93//84 97//88 100//89 96//85
f 94//86 98//90 97//88 93//84
f 95//87 99//91 98//90 94//86
f 96//85 100//89 99//91 95//87
f 97//88 101//92 104//93 100//89
f 98//90 102//94 101//92 97//88
f 99//91 103//95 102//94 98//90
f 100//89 104//93 103//95 99//91
f 101//92 105//96 108//97 104//93
f 102//94 106//98 105//96 101//92
f 103//95 107//99 106//98 102//94
f 104//93 108//97 107//99 103//95
f 105//96 109//100 112//101 108//97
f 106//98 110//102 109//100 105//96
f 107//99 111//103 110//102 106//98
f 108//97 112//101 111//103 107//99
f 109//100 113//104 116//105 112//101
f 110//102 114//106 113//104 109//100
f 111//103 115//107 114//106 110//102
f 112//101 116//105 115//107 111//103
o Cube.002
v -0.124397 2.074114 -0.587412
v -0.124397 4.065718 -0.587412
v -0.124397 2.074114 -0.822490
v -0.124397 4.065717 -0.822490
v 0.110681 2.074114 -0.587412
v 0.110681 4.065718 -0.587412
v 0.110681 2.074114 -0.822490
v 0.110681 4.065717 -0.822490
v -0.335513 2.029914 -1.033606
v -0.335513 2.029914 -0.376296
v 0.321797 2.029914 -1.033606
v 0.321797 2.029914 -0.376296
v -0.336139 0.538064 -1.034233
v -0.336139 0.538064 -0.375670
v 0.322424 0.538064 -1.034233
v 0.322424 0.538064 -0.375670
v -1.397274 0.514813 1.040027
v -1.397274 0.678326 1.053092
v -1.397274 0.513547 -1.211144
v -1.397274 0.677061 -1.198080
v 1.330276 0.514813 1.040027
v 1.330276 0.678326 1.053092
v 1.330276 0.513547 -1.211144
v 1.330276 0.677061 -1.198080
v -1.397274 1.924903 1.040027
v -1.397274 2.088417 1.053092
v -1.397274 1.923637 -1.211145
v -1.397274 2.087151 -1.198080
v 1.330276 1.924903 1.040027
v 1.330276 2.088417 1.053092
v 1.330276 1.923637 -1.211145
v 1.330276 2.087151 -1.198080
vn -1.0000 0.0000 0.0000
vn 0.0000 0.0000 -1.0000
vn 1.0000 0.0000 0.0000
vn 0.0000 0.0000 1.0000
vn -0.2049 0.9788 0.0000
vn 0.0000 1.0000 -0.0000
vn 0.0000 0.0004 -1.0000
vn 0.2049 0.9788 0.0000
vn 0.0000 0.9788 0.2049
vn 0.0000 0.9788 -0.2049
vn 0.0000 -1.0000 0.0000
vn 1.0000 0.0004 0.0000
vn -1.0000 0.0004 0.0000
vn 0.0000 0.0004 1.0000
vn 0.0000 0.0796 -0.9968
vn 0.0000 -0.0796 0.9968
vn 0.0000 -1.0000 0.0006
vn 0.0000 1.0000 -0.0006
usemtl None
s off
f 117//108 118//108 120//108 119//108
f 119//109 120//109 124//109 123//109
f 123//110 124//110 122//110 121//110
f 121//111 122//111 118//111 117//111
f 117//112 119//112 125//112 126//112
f 124//113 120//113 118//113 122//113
f 125//114 127//114 131//114 129//114
f 123//115 121//115 128//115 127//115
f 121//116 117//116 126//116 128//116
f 119//117 123//117 127//117 125//117
f 129//118 131//118 132//118 130//118
f 127//119 128//119 132//119 131//119
f 126//120 125//120 129//120 130//120
f 128//121 126//121 130//121 132//121
f 133//108 134//108 136//108 135//108
f 135//122 136//122 140//122 139//122
f 139//110 140//110 138//110 137//110
f 137//123 138//123 134//123 133//123
f 135//124 139//124 137//124 133//124
f 140//125 136//125 134//125 138//125
f 141//108 142//108 144//108 143//108
f 143//122 144//122 148//122 147//122
f 147//110 148//110 146//110 145//110
f 145//123 146//123 142//123 141//123
f 143//124 147//124 145//124 141//124
f 148//125 144//125 142//125 146//125
o Cube
v 0.875795 3.127185 -0.606605
v 0.875795 3.127185 -0.080796
v -0.955719 3.127185 -0.080796
v -0.955719 3.127185 -0.606605
v 0.875795 4.813601 -0.604404
v 0.875794 4.813601 -0.080795
v -0.955719 4.813601 -0.080796
v -0.955719 4.813601 -0.604405
v -0.849575 3.076426 -0.606605
v -0.849576 3.076426 -0.080796
v -0.849576 4.864360 -0.604405
v -0.849576 4.864360 -0.080796
v 0.770207 3.076426 -0.606605
v 0.770207 3.076426 -0.080796
v 0.770207 4.864360 -0.604404
v 0.770206 4.864360 -0.080795
v 0.926386 4.700758 -0.604404
v 0.926385 4.700758 -0.080795
v -1.006310 4.700758 -0.080796
v -1.006310 4.700758 -0.604405
v -0.849576 4.700758 -0.604405
v -0.849576 4.700758 -0.080796
v 0.770206 4.700758 -0.080795
v 0.770207 4.700758 -0.604404
v -0.849576 3.367275 -0.080796
v 0.770207 3.367275 -0.080796
v 0.926386 3.233159 -0.606604
v 0.926386 3.233159 -0.080796
v -1.006310 3.233159 -0.080796
v -1.006310 3.233159 -0.606605
v -0.849575 3.233159 -0.606605
v 0.770207 3.233159 -0.606604
v 0.724771 4.659593 -0.108742
v -0.804141 4.659593 -0.108743
v -0.804141 3.408442 -0.108743
v 0.724772 3.408442 -0.108743
v 0.875795 3.127185 -0.256430
v -0.955719 3.127185 -0.256430
v 0.875794 4.813601 -0.255953
v -0.955719 4.813601 -0.255953
v -0.849576 4.864360 -0.255953
v -0.849576 3.076426 -0.256430
v 0.770207 3.076426 -0.256430
v 0.770207 4.864360 -0.255953
v -1.087293 4.700758 -0.475156
v 1.007369 4.700758 -0.475155
v 1.007369 3.233159 -0.475632
v -1.087293 3.233159 -0.475633
v 1.216559 3.233159 -0.080796
v 1.216558 4.700758 -0.080795
v -1.296483 3.233159 -0.080796
v -1.296484 4.700758 -0.080796
v 1.216558 4.700758 -0.255953
v 1.216559 3.233159 -0.256430
v -1.296483 4.700758 -0.255953
v -1.296483 3.233159 -0.256430
vt 0.9523 0.3636
vt 0.9814 0.3725
vt 0.9739 0.3941
vt 0.9442 0.3826
vt 0.6116 0.3209
vt 0.6057 0.3356
vt 0.5883 0.3249
vt 0.5927 0.3149
vt 0.6339 0.0996
vt 0.6070 0.1375
vt 0.5907 0.1475
vt 0.5816 0.1388
vt 0.5758 0.3166
vt 0.5790 0.3333
vt 0.6316 0.3748
vt 0.6539 0.3496
vt 0.6626 0.3704
vt 0.8835 0.3416
vt 0.9045 0.3411
vt 0.8979 0.3549
vt 0.8857 0.3630
vt 0.8857 0.1347
vt 0.9062 0.1356
vt 0.5782 0.1552
vt 0.5940 0.1574
vt 0.6123 0.1518
vt 0.9577 0.1154
vt 0.9880 0.1078
vt 0.9501 0.0956
vt 0.9820 0.0846
vt 0.8879 0.1135
vt 0.8999 0.1219
vt 0.6556 0.1247
vt 0.6647 0.1041
vt 0.6779 0.1315
vt 0.6563 0.1404
vt 0.4234 0.1112
vt 0.4367 0.1306
vt 0.4393 0.3431
vt 0.4451 0.3358
vt 0.5709 0.3120
vt 0.6762 0.3434
vt 0.6557 0.3338
vt 0.8979 0.3827
vt 0.6633 0.3911
vt 0.4267 0.3623
vt 0.4392 0.0692
vt 0.5701 0.1175
vt 0.9010 0.0934
vt 0.9735 0.0618
vt 0.4050 0.3458
vt 0.4130 0.3579
vt 0.4016 0.1285
vt 0.4094 0.1160
vt 0.0057 0.9964
vt 0.0057 0.4710
vt 0.6478 0.4710
vt 0.6478 0.9964
vt 0.4430 0.1377
vt 0.5732 0.1599
vt 0.9650 0.4154
vt 0.6656 0.0834
vt 0.9409 0.4647
vt 0.9111 0.4501
vt 0.4484 0.0490
vt 0.5784 0.1083
vt 0.4351 0.3928
vt 0.5675 0.3550
vt 0.5755 0.3643
vt 0.4428 0.4136
vt 0.4709 0.0086
vt 0.9180 0.0226
vt 0.9502 0.0086
vt 0.4628 0.4554
vn -0.4314 -0.9022 -0.0000
vn -0.4314 0.9022 0.0000
vn 0.8254 0.5522 0.1174
vn -0.0000 0.0000 1.0000
vn -0.7119 0.6918 -0.1207
vn -0.0000 0.0000 -1.0000
vn 0.0000 1.0000 0.0000
vn 0.0000 -1.0000 0.0000
vn 0.4333 -0.9013 0.0000
vn 0.4333 0.9013 0.0000
vn 0.5239 0.0000 0.8518
vn -0.8490 0.0005 -0.5284
vn 0.8090 -0.5765 0.1148
vn -0.6906 -0.7138 -0.1162
vn 0.0000 0.0015 -1.0000
vn -0.0000 0.5617 0.8274
vn -0.0000 -0.5617 0.8274
vn -0.5239 -0.0000 0.8518
vn -0.8090 -0.5765 0.1148
vn 0.6906 -0.7138 -0.1162
vn 0.8490 0.0005 -0.5284
vn -0.8254 0.5522 0.1174
vn 0.7119 0.6918 -0.1207
vn 1.0000 0.0000 0.0000
vn -1.0000 -0.0000 -0.0000
vn 0.7234 0.0002 -0.6904
vn -0.7234 0.0002 -0.6904
usemtl Material
s off
f 190/91/126 158/92/126 151/93/126 186/94/126
f 189/95/127 188/96/127 155/97/127 160/98/127
f 194/99/128 187/100/128 154/101/128 166/102/128
f 170/103/129 160/98/129 155/97/129 167/104/129
f 193/105/130 188/96/130 156/106/130 168/107/130
f 179/108/131 157/109/131 152/110/131 178/111/131
f 180/112/131 161/113/131 157/109/131 179/108/131
f 171/114/129 164/115/129 160/98/129 170/103/129
f 192/116/132 189/95/132 160/98/132 164/115/132
f 191/117/133 162/118/133 158/92/133 190/91/133
f 185/119/134 150/120/134 162/118/134 191/117/134
f 187/100/135 192/116/135 164/115/135 154/101/135
f 166/102/129 154/101/129 164/115/129 171/114/129
f 175/121/131 149/122/131 161/113/131 180/112/131
f 153/123/131 165/124/131 172/125/131 163/126/131
f 176/127/129 166/102/129 171/114/129 174/128/129
f 170/103/136 173/129/136 183/130/136 182/131/136
f 163/126/131 172/125/131 169/132/131 159/133/131
f 159/133/131 169/132/131 168/107/131 156/106/131
f 196/134/137 193/135/137 168/107/137 178/111/137
f 173/129/129 170/103/129 167/104/129 177/136/129
f 166/102/129 176/127/129 197/137/129 198/138/129
f 185/119/138 195/139/138 176/140/138 150/120/138
f 158/141/129 173/129/129 177/136/129 151/142/129
f 186/94/139 196/134/139 178/111/139 152/110/139
f 162/143/129 174/128/129 173/129/129 158/141/129
f 150/144/129 176/127/129 174/128/129 162/143/129
f 165/124/140 175/121/140 180/112/140 172/125/140
f 172/125/140 180/112/140 179/108/140 169/132/140
f 169/132/140 179/108/140 178/111/140 168/107/140
f 184/145/129 181/146/129 182/147/129 183/148/129
f 173/129/141 174/128/141 184/149/141 183/130/141
f 171/114/142 170/103/142 182/131/142 181/150/142
f 174/128/143 171/114/143 181/150/143 184/149/143
f 151/93/144 177/151/144 196/134/144 186/94/144
f 149/122/145 175/121/145 195/139/145 185/119/145
f 175/121/146 165/124/146 194/152/146 195/139/146
f 196/134/133 177/151/133 199/153/133 204/154/133
f 153/123/135 163/126/135 192/116/135 187/100/135
f 149/122/134 185/119/134 191/117/134 161/113/134
f 161/113/133 191/117/133 190/91/133 157/109/133
f 163/126/132 159/133/132 189/95/132 192/116/132
f 167/104/147 155/97/147 188/96/147 193/105/147
f 165/124/148 153/123/148 187/100/148 194/99/148
f 159/133/127 156/106/127 188/96/127 189/95/127
f 157/109/126 190/91/126 186/94/126 152/110/126
f 202/155/149 201/156/149 198/138/149 197/137/149
f 199/157/150 200/158/150 203/159/150 204/160/150
f 195/161/151 194/99/151 201/156/151 202/155/151
f 167/104/132 193/105/132 203/159/132 200/158/132
f 194/99/132 166/102/132 198/138/132 201/156/132
f 177/136/129 167/104/129 200/158/129 199/157/129
f 176/140/133 195/139/133 202/162/133 197/163/133
f 193/105/152 196/164/152 204/160/152 203/159/152
o Cylinder
v 1.134139 0.516553 0.932041
v 1.265177 0.516553 0.932041
v 1.134139 0.516918 0.699319
v 1.265177 0.516918 0.699319
v 1.134139 0.325945 0.586139
v 1.265177 0.325945 0.586139
v 1.134139 0.131645 0.676476
v 1.265177 0.131645 0.676476
v 1.134139 0.131166 0.932128
v 1.265177 0.131166 0.932128
v 1.134139 0.329179 1.037357
v 1.265177 0.329179 1.037357
vt 0.5680 0.6162
vt 0.4949 0.4615
vt 0.5824 0.3110
vt 0.7591 0.3381
vt 0.2312 0.6018
vt 0.3069 0.4624
vt 0.0408 0.3103
vt 0.2248 0.3073
vt 0.2255 0.0055
vt 0.3107 0.1569
vt 0.6229 0.0061
vt 0.5052 0.1503
vt 0.9347 0.7989
vt 0.8408 0.9998
vt 0.8179 0.6010
vt 0.4676 0.7947
vt 0.5769 0.6009
vt 0.5761 0.9998
vt 0.1088 0.6009
vt 0.1095 0.9998
vt 0.0002 0.8060
vt 0.4673 0.8020
vt 0.3504 0.9998
vt 0.3734 0.6010
vn -0.6107 0.6883 -0.3915
vn 0.6107 0.6883 -0.3915
vn 0.6156 0.0393 -0.7870
vn -0.6156 0.0393 -0.7870
vn -0.6093 0.6841 0.4010
vn 0.6093 0.6841 0.4010
vn -0.6134 0.0093 0.7897
vn 0.6134 0.0093 0.7897
vn -0.6073 -0.6813 0.4086
vn 0.6073 -0.6813 0.4086
vn -0.6039 -0.6716 -0.4293
vn 0.6039 -0.6716 -0.4293
usemtl None
s 1
f 207/165/153 208/166/154 210/167/155 209/168/156
f 205/169/157 206/170/158 208/166/154 207/165/153
f 205/169/157 215/171/159 216/172/160 206/170/158
f 213/173/161 214/174/162 216/172/160 215/171/159
f 211/175/163 212/176/164 214/174/162 213/173/161
f 209/168/156 210/167/155 212/176/164 211/175/163
f 209/177/156 211/178/163 207/179/153
f 215/180/159 205/181/157 213/182/161
f 214/183/162 206/184/158 216/185/160
f 211/178/163 213/182/161 205/181/157 207/179/153
f 210/186/155 208/187/154 212/188/164
f 212/188/164 208/187/154 206/184/158 214/183/162
