# Blender v2.78 (sub 0) OBJ File: 'untitled.blend'
# www.blender.org
mtllib mesh_trashcan.mtl
o Cube
v 1.140285 0.001701 -0.767383
v 1.140285 0.001701 0.782812
v -1.147367 0.001701 0.782812
v -1.147366 0.001701 -0.767383
v 1.140285 2.571749 -0.999999
v 1.140284 2.571749 1.000001
v -1.147367 2.571749 1.000000
v -1.147366 2.571749 -1.000000
v 0.961191 2.571749 -0.814539
v -0.954108 2.571749 -0.814539
v 0.961190 2.571749 0.802273
v -0.954109 2.571749 0.802273
v -0.954108 0.398639 -0.814539
v 0.961191 0.398639 -0.814539
v 0.961190 0.398639 0.802273
v -0.954109 0.398639 0.802273
vn 0.0000 1.0000 0.0000
vn 0.0000 -1.0000 0.0000
vn 0.0000 0.0842 -0.9964
vn 1.0000 0.0000 0.0000
vn -1.0000 -0.0000 -0.0000
vn -0.0000 0.0000 1.0000
vn -0.0000 0.0901 0.9959
vn 0.0000 0.0000 -1.0000
usemtl Material
s off
f 6//1 5//1 9//1 11//1
f 7//2 8//2 10//2 12//2
f 6//3 2//3 3//3 7//3
f 7//4 3//4 4//4 8//4
f 1//1 4//1 3//1 2//1
f 6//1 11//1 12//1 7//1
f 2//5 6//5 5//5 1//5
f 9//6 10//6 13//6 14//6
f 5//7 8//7 4//7 1//7
f 10//1 9//1 5//1 8//1
f 14//1 13//1 16//1 15//1
f 11//5 9//5 14//5 15//5
f 10//4 12//4 16//4 13//4
f 12//8 11//8 15//8 16//8
