# Blender v2.78 (sub 0) OBJ File: 'mesh_trashcan_bio.blend'
# www.blender.org
mtllib mesh_trashcan_bio.mtl
o Cube.010_Cube.003
v 0.798993 -0.017672 -0.488829
v 0.798993 -0.017672 0.577267
v -0.774265 -0.017672 0.577267
v -0.774265 -0.017672 -0.488830
v 0.798993 1.749794 -0.648804
v 0.798992 1.749794 0.726631
v -0.774266 1.749794 0.726631
v -0.774265 1.749794 -0.648804
v 0.675826 1.749794 -0.521259
v -0.641358 1.749794 -0.521259
v 0.675826 1.749794 0.590651
v -0.641359 1.749794 0.590651
v -0.641358 0.255308 -0.456846
v 0.675826 0.255308 -0.456846
v 0.675826 0.255308 0.546261
v -0.641359 0.255308 0.546261
vt 0.6846 0.8512
vt 0.6846 0.9999
vt 0.6712 0.9861
vt 0.6712 0.8659
vt 0.1912 0.8512
vt 0.2056 0.8659
vt 0.2056 0.9861
vt 0.1912 0.9999
vt 0.5489 0.8113
vt 0.1880 0.8113
vt 0.1880 0.4044
vt 0.5489 0.4044
vt 0.0001 0.9826
vt 0.0001 0.8673
vt 0.1733 0.5520
vt 0.1733 0.6673
vt 0.0032 0.6673
vt 0.0032 0.5520
vt 0.1702 0.6746
vt 0.1569 0.6894
vt 0.0144 0.6894
vt 0.0001 0.6746
vt 0.8757 0.8673
vt 0.8757 0.9826
vt 0.1606 0.5273
vt 0.0181 0.5273
vt 0.0181 0.4086
vt 0.1606 0.4086
vt 0.9519 0.4062
vt 0.9519 0.8126
vt 0.5917 0.8125
vt 0.5917 0.4062
vt 0.1739 0.5411
vt 0.0038 0.5411
vt 0.5096 0.9792
vt 0.3672 0.9792
vt 0.3672 0.8707
vt 0.5096 0.8707
vt 0.1569 0.8510
vt 0.0144 0.8510
vn 0.0000 1.0000 -0.0000
vn -0.0000 -0.0842 0.9964
vn -1.0000 -0.0000 -0.0000
vn 0.0000 -1.0000 0.0000
vn 1.0000 0.0000 0.0000
vn -0.0000 0.0431 0.9991
vn 0.0000 -0.0901 -0.9959
vn 0.0000 0.0297 -0.9996
usemtl Material
s off
f 6/1/1 5/2/1 9/3/1 11/4/1
f 7/5/1 12/6/1 10/7/1 8/8/1
f 6/9/2 7/10/2 3/11/2 2/12/2
f 7/5/3 8/8/3 4/13/3 3/14/3
f 1/15/4 2/16/4 3/17/4 4/18/4
f 6/19/1 11/20/1 12/21/1 7/22/1
f 2/23/5 1/24/5 5/2/5 6/1/5
f 9/25/6 10/26/6 13/27/6 14/28/6
f 5/29/7 1/30/7 4/31/7 8/32/7
f 10/26/1 9/25/1 5/33/1 8/34/1
f 14/35/1 13/36/1 16/37/1 15/38/1
f 11/4/3 9/3/3 14/35/3 15/38/3
f 10/7/5 12/6/5 16/37/5 13/36/5
f 12/21/8 11/20/8 15/39/8 16/40/8
