# Blender v2.78 (sub 0) OBJ File: 'mesh_wall_fire.blend'
# www.blender.org
mtllib mesh_wall_fire.mtl
o Cube
v 1.000000 0.000991 -1.025706
v 1.000000 0.000991 0.974294
v -1.000000 0.000991 0.974294
v -1.000000 0.000991 -1.025706
v 1.000000 6.000991 -1.025705
v 0.999999 6.000991 0.974295
v -1.000000 6.000991 0.974294
v -1.000000 6.000991 -1.025706
vt 0.7498 0.9992
vt 0.5002 0.9992
vt 0.5002 0.7497
vt 0.7498 0.7497
vt 0.2498 0.9992
vt 0.0002 0.9992
vt 0.0002 0.7497
vt 0.2498 0.7497
vt 0.7498 0.0002
vt 0.7498 0.7492
vt 0.5002 0.7492
vt 0.5002 0.0002
vt 0.2498 0.0002
vt 0.2498 0.7492
vt 0.0002 0.7492
vt 0.0002 0.0002
vt 0.9998 0.0002
vt 0.9998 0.7492
vt 0.7502 0.7492
vt 0.7502 0.0002
vt 0.2502 0.7492
vt 0.2502 0.0002
vt 0.4998 0.0002
vt 0.4998 0.7492
vn 0.0000 -1.0000 -0.0000
vn 0.0000 1.0000 0.0000
vn 1.0000 0.0000 0.0000
vn -0.0000 -0.0000 1.0000
vn -1.0000 -0.0000 -0.0000
vn 0.0000 0.0000 -1.0000
usemtl Material.002
s off
f 1/1/1 2/2/1 3/3/1 4/4/1
f 5/5/2 8/6/2 7/7/2 6/8/2
f 1/9/3 5/10/3 6/11/3 2/12/3
f 2/13/4 6/14/4 7/15/4 3/16/4
f 3/17/5 7/18/5 8/19/5 4/20/5
f 5/21/6 1/22/6 4/23/6 8/24/6
